{"glyphs":{"0":{"ha":833,"x_min":90,"x_max":743,"o":"m 417 978 q 660 849 576 978 q 743 481 743 721 q 660 111 743 240 q 417 -18 576 -18 q 174 111 257 -18 q 90 481 90 240 q 174 849 90 721 q 417 978 257 978 m 417 858 q 290 768 333 858 q 247 481 247 678 q 290 190 247 281 q 417 100 333 100 q 543 190 500 100 q 586 481 586 281 q 543 769 586 679 q 417 858 500 858 m 417 569 q 482 543 456 569 q 508 479 508 517 q 482 414 508 440 q 417 388 456 388 q 352 414 378 388 q 326 479 326 440 q 352 543 326 517 q 417 569 378 569 z "},"1":{"ha":833,"x_min":113,"x_max":736,"o":"m 736 122 l 736 0 l 157 0 l 157 122 l 390 122 l 390 799 l 179 669 l 113 778 l 407 958 l 544 958 l 544 122 l 736 122 z "},"2":{"ha":833,"x_min":72,"x_max":704,"o":"m 378 978 q 541 942 472 978 q 646 844 610 906 q 682 707 682 783 q 643 542 682 622 q 517 366 604 463 q 269 125 429 269 l 704 125 l 688 0 l 92 0 l 92 118 q 361 390 272 292 q 486 557 450 488 q 522 697 522 626 q 481 811 522 769 q 367 853 439 853 q 260 830 304 853 q 172 753 217 807 l 72 831 q 203 941 129 904 q 378 978 276 978 z "},"3":{"ha":833,"x_min":54,"x_max":713,"o":"m 375 978 q 538 945 468 978 q 644 857 607 913 q 682 735 682 801 q 628 589 682 649 q 492 510 575 529 q 651 440 589 500 q 713 274 713 381 q 669 125 713 192 q 547 20 626 58 q 365 -18 468 -18 q 190 16 272 -18 q 54 115 108 50 l 150 199 q 243 128 189 151 q 357 104 297 104 q 499 151 447 104 q 551 279 551 199 q 365 447 551 447 l 283 447 l 301 561 l 360 561 q 480 600 432 561 q 528 713 528 639 q 482 819 528 781 q 363 857 436 857 q 257 836 304 857 q 164 771 210 815 l 82 860 q 375 978 204 978 z "},"4":{"ha":833,"x_min":86,"x_max":747,"o":"m 747 221 l 633 221 l 633 0 l 483 0 l 483 221 l 86 221 l 86 329 l 361 978 l 492 926 l 249 342 l 485 342 l 500 597 l 633 597 l 633 342 l 747 342 l 747 221 z "},"5":{"ha":833,"x_min":88,"x_max":725,"o":"m 671 842 l 303 842 l 303 575 q 460 613 376 613 q 597 576 536 613 q 691 472 657 540 q 725 308 725 403 q 682 138 725 213 q 561 23 639 64 q 381 -18 483 -18 q 88 107 204 -18 l 179 194 q 374 104 261 104 q 513 158 463 104 q 563 308 563 211 q 520 453 563 408 q 406 499 478 499 q 341 491 372 499 q 269 467 310 483 l 154 467 l 154 958 l 692 958 l 671 842 z "},"6":{"ha":833,"x_min":94,"x_max":744,"o":"m 474 631 q 611 596 550 631 q 708 492 672 561 q 744 324 744 422 q 703 144 744 222 q 591 24 663 67 q 428 -18 519 -18 q 175 106 256 -18 q 94 446 94 231 q 140 726 94 606 q 271 912 185 846 q 474 978 357 978 q 671 919 583 978 l 611 819 q 474 860 547 860 q 318 769 376 860 q 254 518 260 678 q 474 631 339 631 m 429 100 q 547 158 507 100 q 588 317 588 217 q 442 515 588 515 q 338 485 386 515 q 256 403 290 456 q 299 173 258 246 q 429 100 339 100 z "},"7":{"ha":833,"x_min":119,"x_max":715,"o":"m 192 28 l 558 836 l 119 836 l 119 958 l 715 958 l 715 847 l 338 -17 l 192 28 z "},"8":{"ha":833,"x_min":79,"x_max":754,"o":"m 715 731 q 676 613 715 663 q 557 517 638 563 q 703 408 653 474 q 754 258 754 343 q 713 117 754 181 q 595 18 672 54 q 414 -18 518 -18 q 233 18 308 -18 q 118 116 157 54 q 79 254 79 178 q 265 501 79 418 q 153 592 188 542 q 118 722 118 643 q 160 862 118 804 q 272 949 203 919 q 417 978 340 978 q 566 949 499 978 q 674 865 633 921 q 715 731 715 810 m 268 721 q 289 646 268 675 q 347 598 310 617 q 451 556 385 579 q 539 631 513 593 q 565 722 565 668 q 526 826 565 788 q 417 864 488 864 q 307 826 346 864 q 268 721 268 789 m 594 257 q 568 348 594 313 q 497 406 542 383 q 365 458 451 428 q 239 260 239 393 q 284 142 239 185 q 415 100 329 100 q 548 144 501 100 q 594 257 594 188 z "},"9":{"ha":833,"x_min":81,"x_max":733,"o":"m 406 976 q 650 876 567 976 q 733 601 733 776 q 678 284 733 407 q 506 88 622 161 q 194 -33 390 15 l 160 79 q 454 216 353 131 q 569 446 556 301 q 354 343 481 344 q 214 381 276 343 q 116 488 151 418 q 81 650 81 557 q 123 825 81 751 q 239 938 165 899 q 406 976 313 976 m 393 460 q 490 486 447 461 q 572 558 533 511 q 537 790 575 721 q 404 858 499 858 q 281 806 324 858 q 239 650 239 753 q 279 506 239 551 q 393 460 319 460 z "},"\r":{"ha":833,"x_min":0,"x_max":0,"o":""}," ":{"ha":833,"x_min":0,"x_max":0,"o":""},"A":{"ha":833,"x_min":11,"x_max":822,"o":"m 243 231 l 176 0 l 11 0 l 317 958 l 517 958 l 822 0 l 651 0 l 585 231 l 243 231 m 551 356 l 414 833 l 276 356 l 551 356 z "},"Á":{"ha":833,"x_min":11,"x_max":822,"o":"m 243 231 l 176 0 l 11 0 l 317 958 l 517 958 l 822 0 l 651 0 l 585 231 l 243 231 m 551 356 l 414 833 l 276 356 l 551 356 m 593 1158 l 283 1047 l 244 1128 l 529 1283 l 593 1158 z "},"Ă":{"ha":833,"x_min":11,"x_max":822,"o":"m 243 231 l 176 0 l 11 0 l 317 958 l 517 958 l 822 0 l 651 0 l 585 231 l 243 231 m 551 356 l 414 833 l 276 356 l 551 356 m 414 1050 q 264 1101 322 1050 q 197 1233 206 1151 l 292 1253 q 414 1164 322 1164 q 494 1187 463 1164 q 539 1253 525 1210 l 635 1233 q 567 1101 626 1151 q 414 1050 507 1050 z "},"Â":{"ha":833,"x_min":11,"x_max":822,"o":"m 243 231 l 176 0 l 11 0 l 317 958 l 517 958 l 822 0 l 651 0 l 585 231 l 243 231 m 551 356 l 414 833 l 276 356 l 551 356 m 657 1121 l 596 1050 l 417 1164 l 239 1050 l 176 1121 l 367 1282 l 467 1282 l 657 1121 z "},"Ä":{"ha":833,"x_min":11,"x_max":822,"o":"m 243 231 l 176 0 l 11 0 l 317 958 l 517 958 l 822 0 l 651 0 l 585 231 l 243 231 m 551 356 l 414 833 l 276 356 l 551 356 m 267 1064 q 202 1089 228 1064 q 176 1151 176 1114 q 202 1215 176 1189 q 267 1240 228 1240 q 331 1215 306 1240 q 357 1151 357 1189 q 331 1089 357 1114 q 267 1064 306 1064 m 567 1064 q 503 1089 529 1064 q 476 1151 476 1114 q 503 1215 476 1189 q 567 1240 529 1240 q 631 1215 606 1240 q 657 1151 657 1189 q 631 1089 657 1114 q 567 1064 606 1064 z "},"À":{"ha":833,"x_min":11,"x_max":822,"o":"m 243 231 l 176 0 l 11 0 l 317 958 l 517 958 l 822 0 l 651 0 l 585 231 l 243 231 m 551 356 l 414 833 l 276 356 l 551 356 m 589 1128 l 547 1047 l 246 1161 l 317 1286 l 589 1128 z "},"Ā":{"ha":833,"x_min":11,"x_max":822,"o":"m 243 231 l 176 0 l 11 0 l 317 958 l 517 958 l 822 0 l 651 0 l 585 231 l 243 231 m 551 356 l 414 833 l 276 356 l 551 356 m 221 1097 l 221 1211 l 613 1211 l 613 1097 l 221 1097 z "},"Ą":{"ha":833,"x_min":11,"x_max":822,"o":"m 744 0 q 613 -76 649 -39 q 578 -157 578 -112 q 656 -224 578 -224 q 738 -214 694 -224 l 724 -321 q 638 -331 678 -331 q 504 -290 556 -331 q 453 -182 453 -249 q 501 -61 453 -111 q 643 26 549 -11 l 585 231 l 243 231 l 176 0 l 11 0 l 317 958 l 517 958 l 822 0 l 744 0 m 551 356 l 414 833 l 276 356 l 551 356 z "},"Å":{"ha":833,"x_min":11,"x_max":822,"o":"m 243 231 l 176 0 l 11 0 l 317 958 l 517 958 l 822 0 l 651 0 l 585 231 l 243 231 m 551 356 l 414 833 l 276 356 l 551 356 m 417 1335 q 539 1289 492 1335 q 586 1176 586 1243 q 539 1065 586 1110 q 417 1019 492 1019 q 296 1065 343 1019 q 249 1176 249 1111 q 296 1289 249 1243 q 417 1335 343 1335 m 417 1251 q 366 1231 385 1251 q 347 1176 347 1211 q 366 1121 347 1140 q 417 1101 385 1101 q 469 1121 450 1101 q 488 1176 488 1140 q 468 1231 488 1211 q 417 1251 449 1251 z "},"Ã":{"ha":833,"x_min":11,"x_max":822,"o":"m 243 231 l 176 0 l 11 0 l 317 958 l 517 958 l 822 0 l 651 0 l 585 231 l 243 231 m 551 356 l 414 833 l 276 356 l 551 356 m 497 1071 q 447 1081 469 1071 q 399 1108 425 1090 q 366 1129 381 1122 q 336 1136 351 1136 q 297 1121 314 1136 q 263 1074 281 1106 l 175 1117 q 243 1215 203 1178 q 336 1251 283 1251 q 386 1242 365 1251 q 435 1214 407 1232 q 468 1193 454 1200 q 497 1186 482 1186 q 535 1201 518 1186 q 569 1247 551 1215 l 657 1203 q 588 1105 629 1139 q 497 1071 547 1071 z "},"Æ":{"ha":833,"x_min":-17,"x_max":842,"o":"m 200 232 l 143 0 l -17 0 l 250 958 l 786 958 l 768 839 l 468 839 l 531 546 l 774 546 l 774 426 l 551 426 l 615 119 l 842 119 l 842 0 l 493 0 l 450 232 l 200 232 m 426 353 l 336 842 l 228 353 l 426 353 z "},"Ǽ":{"ha":833,"x_min":-17,"x_max":842,"o":"m 200 232 l 143 0 l -17 0 l 250 958 l 786 958 l 768 839 l 468 839 l 531 546 l 774 546 l 774 426 l 551 426 l 615 119 l 842 119 l 842 0 l 493 0 l 450 232 l 200 232 m 426 353 l 336 842 l 228 353 l 426 353 m 672 1158 l 363 1047 l 324 1128 l 608 1283 l 672 1158 z "},"B":{"ha":833,"x_min":113,"x_max":767,"o":"m 767 276 q 661 64 767 128 q 393 0 556 0 l 113 0 l 113 958 l 375 958 q 626 902 528 958 q 725 715 725 846 q 674 578 725 632 q 547 508 624 525 q 704 438 642 492 q 767 276 767 385 m 561 703 q 517 806 561 774 q 389 838 474 838 l 274 838 l 274 561 l 399 561 q 521 595 481 561 q 561 703 561 629 m 599 276 q 549 403 599 367 q 410 440 499 440 l 274 440 l 274 125 l 404 125 q 599 276 599 125 z "},"C":{"ha":833,"x_min":72,"x_max":800,"o":"m 497 978 q 658 954 592 978 q 786 881 725 931 l 703 781 q 504 851 615 851 q 314 762 388 851 q 240 481 240 672 q 313 202 240 292 q 506 113 385 113 q 624 134 575 113 q 722 194 674 156 l 800 96 q 500 -18 683 -18 q 279 40 376 -18 q 127 210 182 97 q 72 481 72 322 q 128 749 72 636 q 282 919 185 861 q 497 978 379 978 z "},"Ć":{"ha":833,"x_min":72,"x_max":800,"o":"m 497 978 q 658 954 592 978 q 786 881 725 931 l 703 781 q 504 851 615 851 q 314 762 388 851 q 240 481 240 672 q 313 202 240 292 q 506 113 385 113 q 624 134 575 113 q 722 194 674 156 l 800 96 q 500 -18 683 -18 q 279 40 376 -18 q 127 210 182 97 q 72 481 72 322 q 128 749 72 636 q 282 919 185 861 q 497 978 379 978 m 682 1158 l 372 1047 l 333 1128 l 618 1283 l 682 1158 z "},"Č":{"ha":833,"x_min":72,"x_max":800,"o":"m 497 978 q 658 954 592 978 q 786 881 725 931 l 703 781 q 504 851 615 851 q 314 762 388 851 q 240 481 240 672 q 313 202 240 292 q 506 113 385 113 q 624 134 575 113 q 722 194 674 156 l 800 96 q 500 -18 683 -18 q 279 40 376 -18 q 127 210 182 97 q 72 481 72 322 q 128 749 72 636 q 282 919 185 861 q 497 978 379 978 m 746 1207 l 556 1046 l 456 1046 l 265 1207 l 328 1278 l 506 1164 l 685 1278 l 746 1207 z "},"Ç":{"ha":833,"x_min":72,"x_max":800,"o":"m 521 -75 q 622 -115 588 -81 q 656 -199 656 -149 q 603 -304 656 -265 q 471 -343 550 -343 q 388 -333 428 -343 q 319 -307 347 -324 l 361 -226 q 453 -250 408 -250 q 532 -197 532 -250 q 502 -154 532 -165 q 410 -143 472 -143 l 421 -12 q 167 142 263 14 q 72 481 72 269 q 128 749 72 636 q 282 919 185 861 q 497 978 379 978 q 658 954 592 978 q 786 881 725 931 l 703 781 q 504 851 615 851 q 314 762 388 851 q 240 481 240 672 q 313 202 240 292 q 506 113 385 113 q 624 134 575 113 q 722 194 674 156 l 800 96 q 521 -18 692 -12 l 521 -75 z "},"Ĉ":{"ha":833,"x_min":72,"x_max":800,"o":"m 497 978 q 658 954 592 978 q 786 881 725 931 l 703 781 q 504 851 615 851 q 314 762 388 851 q 240 481 240 672 q 313 202 240 292 q 506 113 385 113 q 624 134 575 113 q 722 194 674 156 l 800 96 q 500 -18 683 -18 q 279 40 376 -18 q 127 210 182 97 q 72 481 72 322 q 128 749 72 636 q 282 919 185 861 q 497 978 379 978 m 746 1121 l 685 1050 l 506 1164 l 328 1050 l 265 1121 l 456 1282 l 556 1282 l 746 1121 z "},"Ċ":{"ha":833,"x_min":72,"x_max":800,"o":"m 497 978 q 658 954 592 978 q 786 881 725 931 l 703 781 q 504 851 615 851 q 314 762 388 851 q 240 481 240 672 q 313 202 240 292 q 506 113 385 113 q 624 134 575 113 q 722 194 674 156 l 800 96 q 500 -18 683 -18 q 279 40 376 -18 q 127 210 182 97 q 72 481 72 322 q 128 749 72 636 q 282 919 185 861 q 497 978 379 978 m 504 1261 q 577 1233 549 1261 q 606 1164 606 1206 q 577 1094 606 1122 q 504 1065 549 1065 q 431 1094 460 1065 q 403 1164 403 1122 q 431 1233 403 1206 q 504 1261 458 1261 z "},"D":{"ha":833,"x_min":99,"x_max":779,"o":"m 779 485 q 653 106 779 213 q 333 0 526 0 l 99 0 l 99 958 l 318 958 q 653 858 526 958 q 779 485 779 757 m 610 485 q 538 763 610 690 q 349 835 467 835 l 260 835 l 260 122 l 350 122 q 610 485 610 122 z "},"Ð":{"ha":833,"x_min":22,"x_max":794,"o":"m 333 958 q 667 857 540 958 q 794 485 794 756 q 668 106 794 213 q 349 0 542 0 l 114 0 l 114 436 l 22 436 l 22 544 l 114 544 l 114 958 l 333 958 m 365 122 q 625 485 625 122 q 553 763 625 690 q 364 835 482 835 l 275 835 l 275 544 l 475 544 l 475 436 l 275 436 l 275 122 l 365 122 z "},"Ď":{"ha":833,"x_min":99,"x_max":779,"o":"m 779 485 q 653 106 779 213 q 333 0 526 0 l 99 0 l 99 958 l 318 958 q 653 858 526 958 q 779 485 779 757 m 610 485 q 538 763 610 690 q 349 835 467 835 l 260 835 l 260 122 l 350 122 q 610 485 610 122 m 636 1207 l 446 1046 l 346 1046 l 156 1207 l 218 1278 l 396 1164 l 575 1278 l 636 1207 z "},"Đ":{"ha":833,"x_min":22,"x_max":794,"o":"m 333 958 q 667 857 540 958 q 794 485 794 756 q 668 106 794 213 q 349 0 542 0 l 114 0 l 114 436 l 22 436 l 22 544 l 114 544 l 114 958 l 333 958 m 365 122 q 625 485 625 122 q 553 763 625 690 q 364 835 482 835 l 275 835 l 275 544 l 475 544 l 475 436 l 275 436 l 275 122 l 365 122 z "},"E":{"ha":833,"x_min":157,"x_max":742,"o":"m 318 547 l 665 547 l 665 426 l 318 426 l 318 122 l 742 122 l 742 0 l 157 0 l 157 958 l 733 958 l 715 836 l 318 836 l 318 547 z "},"É":{"ha":833,"x_min":157,"x_max":742,"o":"m 318 547 l 665 547 l 665 426 l 318 426 l 318 122 l 742 122 l 742 0 l 157 0 l 157 958 l 733 958 l 715 836 l 318 836 l 318 547 m 622 1158 l 313 1047 l 274 1128 l 558 1283 l 622 1158 z "},"Ĕ":{"ha":833,"x_min":157,"x_max":742,"o":"m 318 547 l 665 547 l 665 426 l 318 426 l 318 122 l 742 122 l 742 0 l 157 0 l 157 958 l 733 958 l 715 836 l 318 836 l 318 547 m 443 1050 q 293 1101 351 1050 q 226 1233 235 1151 l 321 1253 q 443 1164 351 1164 q 523 1187 492 1164 q 568 1253 554 1210 l 664 1233 q 596 1101 656 1151 q 443 1050 536 1050 z "},"Ě":{"ha":833,"x_min":157,"x_max":742,"o":"m 318 547 l 665 547 l 665 426 l 318 426 l 318 122 l 742 122 l 742 0 l 157 0 l 157 958 l 733 958 l 715 836 l 318 836 l 318 547 m 686 1207 l 496 1046 l 396 1046 l 206 1207 l 268 1278 l 446 1164 l 625 1278 l 686 1207 z "},"Ê":{"ha":833,"x_min":157,"x_max":742,"o":"m 318 547 l 665 547 l 665 426 l 318 426 l 318 122 l 742 122 l 742 0 l 157 0 l 157 958 l 733 958 l 715 836 l 318 836 l 318 547 m 686 1121 l 625 1050 l 446 1164 l 268 1050 l 206 1121 l 396 1282 l 496 1282 l 686 1121 z "},"Ë":{"ha":833,"x_min":157,"x_max":742,"o":"m 318 547 l 665 547 l 665 426 l 318 426 l 318 122 l 742 122 l 742 0 l 157 0 l 157 958 l 733 958 l 715 836 l 318 836 l 318 547 m 294 1064 q 230 1089 256 1064 q 204 1151 204 1114 q 230 1215 204 1189 q 294 1240 256 1240 q 359 1215 333 1240 q 385 1151 385 1189 q 359 1089 385 1114 q 294 1064 333 1064 m 594 1064 q 531 1089 557 1064 q 504 1151 504 1114 q 531 1215 504 1189 q 594 1240 557 1240 q 659 1215 633 1240 q 685 1151 685 1189 q 659 1089 685 1114 q 594 1064 633 1064 z "},"Ė":{"ha":833,"x_min":157,"x_max":742,"o":"m 318 547 l 665 547 l 665 426 l 318 426 l 318 122 l 742 122 l 742 0 l 157 0 l 157 958 l 733 958 l 715 836 l 318 836 l 318 547 m 444 1261 q 517 1233 489 1261 q 546 1164 546 1206 q 517 1094 546 1122 q 444 1065 489 1065 q 372 1094 400 1065 q 343 1164 343 1122 q 371 1233 343 1206 q 444 1261 399 1261 z "},"È":{"ha":833,"x_min":157,"x_max":742,"o":"m 318 547 l 665 547 l 665 426 l 318 426 l 318 122 l 742 122 l 742 0 l 157 0 l 157 958 l 733 958 l 715 836 l 318 836 l 318 547 m 617 1128 l 575 1047 l 274 1161 l 344 1286 l 617 1128 z "},"Ē":{"ha":833,"x_min":157,"x_max":742,"o":"m 318 547 l 665 547 l 665 426 l 318 426 l 318 122 l 742 122 l 742 0 l 157 0 l 157 958 l 733 958 l 715 836 l 318 836 l 318 547 m 249 1097 l 249 1211 l 640 1211 l 640 1097 l 249 1097 z "},"Ę":{"ha":833,"x_min":157,"x_max":742,"o":"m 742 122 l 742 0 l 649 0 q 517 -76 553 -39 q 482 -157 482 -112 q 560 -224 482 -224 q 642 -214 599 -224 l 628 -321 q 542 -331 582 -331 q 408 -290 460 -331 q 357 -182 357 -249 q 390 -78 357 -122 q 489 0 422 -35 l 157 0 l 157 958 l 733 958 l 715 836 l 318 836 l 318 547 l 665 547 l 665 426 l 318 426 l 318 122 l 742 122 z "},"F":{"ha":833,"x_min":176,"x_max":765,"o":"m 338 531 l 699 531 l 699 408 l 338 408 l 338 0 l 176 0 l 176 958 l 765 958 l 749 836 l 338 836 l 338 531 z "},"G":{"ha":833,"x_min":51,"x_max":764,"o":"m 442 -18 q 153 109 256 -18 q 51 481 51 236 q 108 751 51 639 q 259 921 164 864 q 469 978 354 978 q 628 951 563 978 q 754 867 694 924 l 664 774 q 574 833 619 814 q 474 851 529 851 q 291 762 363 851 q 219 481 219 672 q 276 195 219 283 q 449 107 332 107 q 607 147 538 107 l 607 411 l 444 411 l 428 535 l 764 535 l 764 69 q 613 5 690 28 q 442 -18 536 -18 z "},"Ğ":{"ha":833,"x_min":51,"x_max":764,"o":"m 442 -18 q 153 109 256 -18 q 51 481 51 236 q 108 751 51 639 q 259 921 164 864 q 469 978 354 978 q 628 951 563 978 q 754 867 694 924 l 664 774 q 574 833 619 814 q 474 851 529 851 q 291 762 363 851 q 219 481 219 672 q 276 195 219 283 q 449 107 332 107 q 607 147 538 107 l 607 411 l 444 411 l 428 535 l 764 535 l 764 69 q 613 5 690 28 q 442 -18 536 -18 m 456 1050 q 306 1101 364 1050 q 239 1233 247 1151 l 333 1253 q 456 1164 364 1164 q 535 1187 504 1164 q 581 1253 567 1210 l 676 1233 q 608 1101 668 1151 q 456 1050 549 1050 z "},"Ĝ":{"ha":833,"x_min":51,"x_max":764,"o":"m 442 -18 q 153 109 256 -18 q 51 481 51 236 q 108 751 51 639 q 259 921 164 864 q 469 978 354 978 q 628 951 563 978 q 754 867 694 924 l 664 774 q 574 833 619 814 q 474 851 529 851 q 291 762 363 851 q 219 481 219 672 q 276 195 219 283 q 449 107 332 107 q 607 147 538 107 l 607 411 l 444 411 l 428 535 l 764 535 l 764 69 q 613 5 690 28 q 442 -18 536 -18 m 699 1121 l 638 1050 l 458 1164 l 281 1050 l 218 1121 l 408 1282 l 508 1282 l 699 1121 z "},"Ģ":{"ha":833,"x_min":51,"x_max":764,"o":"m 442 -18 q 153 109 256 -18 q 51 481 51 236 q 108 751 51 639 q 259 921 164 864 q 469 978 354 978 q 628 951 563 978 q 754 867 694 924 l 664 774 q 574 833 619 814 q 474 851 529 851 q 291 762 363 851 q 219 481 219 672 q 276 195 219 283 q 449 107 332 107 q 607 147 538 107 l 607 411 l 444 411 l 428 535 l 764 535 l 764 69 q 613 5 690 28 q 442 -18 536 -18 m 460 -96 q 523 -120 497 -96 q 549 -182 549 -144 q 524 -272 549 -221 l 454 -417 l 368 -417 l 408 -254 q 372 -182 372 -228 q 397 -121 372 -146 q 460 -96 422 -96 z "},"Ġ":{"ha":833,"x_min":51,"x_max":764,"o":"m 442 -18 q 153 109 256 -18 q 51 481 51 236 q 108 751 51 639 q 259 921 164 864 q 469 978 354 978 q 628 951 563 978 q 754 867 694 924 l 664 774 q 574 833 619 814 q 474 851 529 851 q 291 762 363 851 q 219 481 219 672 q 276 195 219 283 q 449 107 332 107 q 607 147 538 107 l 607 411 l 444 411 l 428 535 l 764 535 l 764 69 q 613 5 690 28 q 442 -18 536 -18 m 458 1261 q 531 1233 503 1261 q 560 1164 560 1206 q 531 1094 560 1122 q 458 1065 503 1065 q 385 1094 414 1065 q 357 1164 357 1122 q 385 1233 357 1206 q 458 1261 413 1261 z "},"H":{"ha":833,"x_min":99,"x_max":735,"o":"m 574 436 l 260 436 l 260 0 l 99 0 l 99 958 l 260 958 l 260 568 l 574 568 l 574 958 l 735 958 l 735 0 l 574 0 l 574 436 z "},"Ħ":{"ha":833,"x_min":3,"x_max":831,"o":"m 831 703 l 732 703 l 732 0 l 571 0 l 571 438 l 263 438 l 263 0 l 101 0 l 101 703 l 3 703 l 3 807 l 101 807 l 101 958 l 263 958 l 263 807 l 571 807 l 571 958 l 732 958 l 732 807 l 831 807 l 831 703 m 571 703 l 263 703 l 263 567 l 571 567 l 571 703 z "},"Ĥ":{"ha":833,"x_min":99,"x_max":735,"o":"m 574 436 l 260 436 l 260 0 l 99 0 l 99 958 l 260 958 l 260 568 l 574 568 l 574 958 l 735 958 l 735 0 l 574 0 l 574 436 m 657 1121 l 596 1050 l 417 1164 l 239 1050 l 176 1121 l 367 1282 l 467 1282 l 657 1121 z "},"I":{"ha":833,"x_min":128,"x_max":706,"o":"m 706 836 l 497 836 l 497 124 l 706 124 l 706 0 l 128 0 l 128 124 l 336 124 l 336 836 l 128 836 l 128 958 l 706 958 l 706 836 z "},"Ĳ":{"ha":833,"x_min":14,"x_max":751,"o":"m 263 -99 q 467 -38 394 -82 q 566 76 539 6 q 593 253 593 146 l 593 843 l 296 843 l 296 115 l 392 115 l 392 0 l 14 0 l 14 115 l 139 115 l 139 843 l 14 843 l 14 958 l 751 958 l 751 251 q 646 -62 751 58 q 282 -214 540 -183 l 263 -99 z "},"Í":{"ha":833,"x_min":128,"x_max":706,"o":"m 706 836 l 497 836 l 497 124 l 706 124 l 706 0 l 128 0 l 128 124 l 336 124 l 336 836 l 128 836 l 128 958 l 706 958 l 706 836 m 593 1158 l 283 1047 l 244 1128 l 529 1283 l 593 1158 z "},"Ĭ":{"ha":833,"x_min":128,"x_max":706,"o":"m 706 836 l 497 836 l 497 124 l 706 124 l 706 0 l 128 0 l 128 124 l 336 124 l 336 836 l 128 836 l 128 958 l 706 958 l 706 836 m 414 1050 q 264 1101 322 1050 q 197 1233 206 1151 l 292 1253 q 414 1164 322 1164 q 494 1187 463 1164 q 539 1253 525 1210 l 635 1233 q 567 1101 626 1151 q 414 1050 507 1050 z "},"Î":{"ha":833,"x_min":128,"x_max":706,"o":"m 706 836 l 497 836 l 497 124 l 706 124 l 706 0 l 128 0 l 128 124 l 336 124 l 336 836 l 128 836 l 128 958 l 706 958 l 706 836 m 657 1121 l 596 1050 l 417 1164 l 239 1050 l 176 1121 l 367 1282 l 467 1282 l 657 1121 z "},"Ï":{"ha":833,"x_min":128,"x_max":706,"o":"m 706 836 l 497 836 l 497 124 l 706 124 l 706 0 l 128 0 l 128 124 l 336 124 l 336 836 l 128 836 l 128 958 l 706 958 l 706 836 m 267 1064 q 202 1089 228 1064 q 176 1151 176 1114 q 202 1215 176 1189 q 267 1240 228 1240 q 331 1215 306 1240 q 357 1151 357 1189 q 331 1089 357 1114 q 267 1064 306 1064 m 567 1064 q 503 1089 529 1064 q 476 1151 476 1114 q 503 1215 476 1189 q 567 1240 529 1240 q 631 1215 606 1240 q 657 1151 657 1189 q 631 1089 657 1114 q 567 1064 606 1064 z "},"İ":{"ha":833,"x_min":128,"x_max":706,"o":"m 706 836 l 497 836 l 497 124 l 706 124 l 706 0 l 128 0 l 128 124 l 336 124 l 336 836 l 128 836 l 128 958 l 706 958 l 706 836 m 417 1261 q 490 1233 461 1261 q 518 1164 518 1206 q 490 1094 518 1122 q 417 1065 461 1065 q 344 1094 372 1065 q 315 1164 315 1122 q 343 1233 315 1206 q 417 1261 371 1261 z "},"Ì":{"ha":833,"x_min":128,"x_max":706,"o":"m 706 836 l 497 836 l 497 124 l 706 124 l 706 0 l 128 0 l 128 124 l 336 124 l 336 836 l 128 836 l 128 958 l 706 958 l 706 836 m 589 1128 l 547 1047 l 246 1161 l 317 1286 l 589 1128 z "},"Ī":{"ha":833,"x_min":128,"x_max":706,"o":"m 706 836 l 497 836 l 497 124 l 706 124 l 706 0 l 128 0 l 128 124 l 336 124 l 336 836 l 128 836 l 128 958 l 706 958 l 706 836 m 221 1097 l 221 1211 l 613 1211 l 613 1097 l 221 1097 z "},"Į":{"ha":833,"x_min":128,"x_max":706,"o":"m 497 836 l 497 124 l 706 124 l 706 0 l 497 0 q 366 -76 401 -39 q 331 -157 331 -112 q 408 -224 331 -224 q 490 -214 447 -224 l 476 -321 q 390 -331 431 -331 q 257 -290 308 -331 q 206 -182 206 -249 q 238 -78 206 -122 q 338 0 271 -35 l 128 0 l 128 124 l 336 124 l 336 836 l 128 836 l 128 958 l 706 958 l 706 836 l 497 836 z "},"Ĩ":{"ha":833,"x_min":128,"x_max":706,"o":"m 706 836 l 497 836 l 497 124 l 706 124 l 706 0 l 128 0 l 128 124 l 336 124 l 336 836 l 128 836 l 128 958 l 706 958 l 706 836 m 497 1071 q 447 1081 469 1071 q 399 1108 425 1090 q 366 1129 381 1122 q 336 1136 351 1136 q 297 1121 314 1136 q 263 1074 281 1106 l 175 1117 q 243 1215 203 1178 q 336 1251 283 1251 q 386 1242 365 1251 q 435 1214 407 1232 q 468 1193 454 1200 q 497 1186 482 1186 q 535 1201 518 1186 q 569 1247 551 1215 l 657 1203 q 588 1105 629 1139 q 497 1071 547 1071 z "},"J":{"ha":833,"x_min":83,"x_max":706,"o":"m 706 329 q 619 80 706 178 q 356 -18 532 -18 q 83 71 204 -18 l 149 172 q 251 123 203 138 q 350 108 300 108 q 492 167 440 108 q 544 332 544 225 l 544 835 l 257 835 l 257 958 l 706 958 l 706 329 z "},"Ĵ":{"ha":833,"x_min":83,"x_max":728,"o":"m 706 329 q 619 80 706 178 q 356 -18 532 -18 q 83 71 204 -18 l 149 172 q 251 123 203 138 q 350 108 300 108 q 492 167 440 108 q 544 332 544 225 l 544 835 l 257 835 l 257 958 l 706 958 l 706 329 m 728 1121 l 667 1050 l 488 1164 l 310 1050 l 247 1121 l 438 1282 l 538 1282 l 728 1121 z "},"K":{"ha":833,"x_min":122,"x_max":826,"o":"m 122 0 l 122 958 l 283 958 l 283 0 l 122 0 m 622 958 l 800 958 l 465 522 l 826 0 l 633 0 l 290 513 l 622 958 z "},"Ķ":{"ha":833,"x_min":122,"x_max":826,"o":"m 122 0 l 122 958 l 283 958 l 283 0 l 122 0 m 622 958 l 800 958 l 465 522 l 826 0 l 633 0 l 290 513 l 622 958 m 439 -96 q 502 -120 476 -96 q 528 -182 528 -144 q 503 -272 528 -221 l 433 -417 l 347 -417 l 388 -254 q 351 -182 351 -228 q 376 -121 351 -146 q 439 -96 401 -96 z "},"L":{"ha":833,"x_min":167,"x_max":757,"o":"m 167 958 l 326 958 l 326 135 l 757 135 l 739 0 l 167 0 l 167 958 z "},"Ĺ":{"ha":833,"x_min":75,"x_max":757,"o":"m 167 958 l 326 958 l 326 135 l 757 135 l 739 0 l 167 0 l 167 958 m 424 1158 l 114 1047 l 75 1128 l 360 1283 l 424 1158 z "},"Ľ":{"ha":833,"x_min":167,"x_max":757,"o":"m 167 958 l 326 958 l 326 135 l 757 135 l 739 0 l 167 0 l 167 958 m 589 960 l 501 685 l 408 699 l 450 978 l 589 960 z "},"Ļ":{"ha":833,"x_min":167,"x_max":757,"o":"m 167 958 l 326 958 l 326 135 l 757 135 l 739 0 l 167 0 l 167 958 m 456 -96 q 519 -120 493 -96 q 544 -182 544 -144 q 519 -272 544 -221 l 450 -417 l 364 -417 l 404 -254 q 368 -182 368 -228 q 393 -121 368 -146 q 456 -96 418 -96 z "},"Ŀ":{"ha":833,"x_min":167,"x_max":757,"o":"m 167 958 l 326 958 l 326 135 l 757 135 l 739 0 l 167 0 l 167 958 m 651 626 q 726 598 697 626 q 754 528 754 569 q 726 458 754 486 q 651 431 697 431 q 578 458 607 431 q 550 528 550 486 q 578 598 550 569 q 651 626 607 626 z "},"Ł":{"ha":833,"x_min":39,"x_max":763,"o":"m 763 135 l 744 0 l 172 0 l 172 351 l 99 306 l 39 401 l 172 482 l 172 958 l 333 958 l 333 582 l 540 711 l 601 618 l 333 451 l 333 135 l 763 135 z "},"M":{"ha":833,"x_min":35,"x_max":799,"o":"m 799 0 l 650 0 l 628 467 q 624 643 624 558 q 628 817 624 753 l 486 169 l 346 169 l 194 817 q 200 599 200 746 q 199 465 200 510 l 179 0 l 35 0 l 89 958 l 282 958 l 419 317 l 550 958 l 744 958 l 799 0 z "},"N":{"ha":833,"x_min":99,"x_max":735,"o":"m 219 815 q 242 435 242 588 l 242 0 l 99 0 l 99 958 l 308 958 l 614 143 q 598 328 604 246 q 592 522 592 411 l 592 958 l 735 958 l 735 0 l 525 0 l 219 815 z "},"Ń":{"ha":833,"x_min":99,"x_max":735,"o":"m 219 815 q 242 435 242 588 l 242 0 l 99 0 l 99 958 l 308 958 l 614 143 q 598 328 604 246 q 592 522 592 411 l 592 958 l 735 958 l 735 0 l 525 0 l 219 815 m 597 1158 l 288 1047 l 249 1128 l 533 1283 l 597 1158 z "},"Ň":{"ha":833,"x_min":99,"x_max":735,"o":"m 219 815 q 242 435 242 588 l 242 0 l 99 0 l 99 958 l 308 958 l 614 143 q 598 328 604 246 q 592 522 592 411 l 592 958 l 735 958 l 735 0 l 525 0 l 219 815 m 661 1207 l 471 1046 l 371 1046 l 181 1207 l 243 1278 l 421 1164 l 600 1278 l 661 1207 z "},"Ņ":{"ha":833,"x_min":99,"x_max":735,"o":"m 219 815 q 242 435 242 588 l 242 0 l 99 0 l 99 958 l 308 958 l 614 143 q 598 328 604 246 q 592 522 592 411 l 592 958 l 735 958 l 735 0 l 525 0 l 219 815 m 419 -96 q 483 -120 457 -96 q 508 -182 508 -144 q 483 -272 508 -221 l 414 -417 l 328 -417 l 368 -254 q 332 -182 332 -228 q 357 -121 332 -146 q 419 -96 382 -96 z "},"Ŋ":{"ha":833,"x_min":99,"x_max":735,"o":"m 735 -68 q 674 -243 735 -183 q 504 -303 614 -303 q 336 -247 410 -303 l 396 -150 q 444 -172 424 -165 q 493 -179 464 -179 q 574 -79 574 -179 l 574 0 l 525 0 l 219 815 q 242 435 242 588 l 242 0 l 99 0 l 99 958 l 308 958 l 614 143 q 598 328 604 246 q 592 522 592 411 l 592 958 l 735 958 l 735 -68 z "},"Ñ":{"ha":833,"x_min":99,"x_max":735,"o":"m 219 815 q 242 435 242 588 l 242 0 l 99 0 l 99 958 l 308 958 l 614 143 q 598 328 604 246 q 592 522 592 411 l 592 958 l 735 958 l 735 0 l 525 0 l 219 815 m 500 1071 q 450 1081 472 1071 q 401 1108 428 1090 q 369 1129 383 1122 q 339 1136 354 1136 q 300 1121 317 1136 q 265 1074 283 1106 l 178 1117 q 246 1215 206 1178 q 339 1251 286 1251 q 389 1242 368 1251 q 438 1214 410 1232 q 471 1193 457 1200 q 500 1186 485 1186 q 538 1201 521 1186 q 572 1247 554 1215 l 660 1203 q 591 1105 632 1139 q 500 1071 550 1071 z "},"O":{"ha":833,"x_min":53,"x_max":781,"o":"m 781 479 q 687 117 781 251 q 417 -18 593 -18 q 147 115 240 -18 q 53 478 53 247 q 147 842 53 706 q 417 978 240 978 q 687 844 593 978 q 781 479 781 710 m 615 479 q 568 760 615 668 q 417 851 521 851 q 265 760 313 851 q 218 478 218 668 q 266 199 218 290 q 417 107 314 107 q 568 199 521 107 q 615 479 615 290 z "},"Ó":{"ha":833,"x_min":53,"x_max":781,"o":"m 781 479 q 687 117 781 251 q 417 -18 593 -18 q 147 115 240 -18 q 53 478 53 247 q 147 842 53 706 q 417 978 240 978 q 687 844 593 978 q 781 479 781 710 m 615 479 q 568 760 615 668 q 417 851 521 851 q 265 760 313 851 q 218 478 218 668 q 266 199 218 290 q 417 107 314 107 q 568 199 521 107 q 615 479 615 290 m 593 1158 l 283 1047 l 244 1128 l 529 1283 l 593 1158 z "},"Ŏ":{"ha":833,"x_min":53,"x_max":781,"o":"m 781 479 q 687 117 781 251 q 417 -18 593 -18 q 147 115 240 -18 q 53 478 53 247 q 147 842 53 706 q 417 978 240 978 q 687 844 593 978 q 781 479 781 710 m 615 479 q 568 760 615 668 q 417 851 521 851 q 265 760 313 851 q 218 478 218 668 q 266 199 218 290 q 417 107 314 107 q 568 199 521 107 q 615 479 615 290 m 414 1050 q 264 1101 322 1050 q 197 1233 206 1151 l 292 1253 q 414 1164 322 1164 q 494 1187 463 1164 q 539 1253 525 1210 l 635 1233 q 567 1101 626 1151 q 414 1050 507 1050 z "},"Ô":{"ha":833,"x_min":53,"x_max":781,"o":"m 781 479 q 687 117 781 251 q 417 -18 593 -18 q 147 115 240 -18 q 53 478 53 247 q 147 842 53 706 q 417 978 240 978 q 687 844 593 978 q 781 479 781 710 m 615 479 q 568 760 615 668 q 417 851 521 851 q 265 760 313 851 q 218 478 218 668 q 266 199 218 290 q 417 107 314 107 q 568 199 521 107 q 615 479 615 290 m 657 1121 l 596 1050 l 417 1164 l 239 1050 l 176 1121 l 367 1282 l 467 1282 l 657 1121 z "},"Ö":{"ha":833,"x_min":53,"x_max":781,"o":"m 781 479 q 687 117 781 251 q 417 -18 593 -18 q 147 115 240 -18 q 53 478 53 247 q 147 842 53 706 q 417 978 240 978 q 687 844 593 978 q 781 479 781 710 m 615 479 q 568 760 615 668 q 417 851 521 851 q 265 760 313 851 q 218 478 218 668 q 266 199 218 290 q 417 107 314 107 q 568 199 521 107 q 615 479 615 290 m 267 1064 q 202 1089 228 1064 q 176 1151 176 1114 q 202 1215 176 1189 q 267 1240 228 1240 q 331 1215 306 1240 q 357 1151 357 1189 q 331 1089 357 1114 q 267 1064 306 1064 m 567 1064 q 503 1089 529 1064 q 476 1151 476 1114 q 503 1215 476 1189 q 567 1240 529 1240 q 631 1215 606 1240 q 657 1151 657 1189 q 631 1089 657 1114 q 567 1064 606 1064 z "},"Ò":{"ha":833,"x_min":53,"x_max":781,"o":"m 781 479 q 687 117 781 251 q 417 -18 593 -18 q 147 115 240 -18 q 53 478 53 247 q 147 842 53 706 q 417 978 240 978 q 687 844 593 978 q 781 479 781 710 m 615 479 q 568 760 615 668 q 417 851 521 851 q 265 760 313 851 q 218 478 218 668 q 266 199 218 290 q 417 107 314 107 q 568 199 521 107 q 615 479 615 290 m 589 1128 l 547 1047 l 246 1161 l 317 1286 l 589 1128 z "},"Ő":{"ha":833,"x_min":53,"x_max":781,"o":"m 781 479 q 687 117 781 251 q 417 -18 593 -18 q 147 115 240 -18 q 53 478 53 247 q 147 842 53 706 q 417 978 240 978 q 687 844 593 978 q 781 479 781 710 m 615 479 q 568 760 615 668 q 417 851 521 851 q 265 760 313 851 q 218 478 218 668 q 266 199 218 290 q 417 107 314 107 q 568 199 521 107 q 615 479 615 290 m 360 1340 l 481 1285 l 332 1047 l 240 1088 l 360 1340 m 597 1340 l 715 1281 l 557 1044 l 468 1089 l 597 1340 z "},"Ō":{"ha":833,"x_min":53,"x_max":781,"o":"m 781 479 q 687 117 781 251 q 417 -18 593 -18 q 147 115 240 -18 q 53 478 53 247 q 147 842 53 706 q 417 978 240 978 q 687 844 593 978 q 781 479 781 710 m 615 479 q 568 760 615 668 q 417 851 521 851 q 265 760 313 851 q 218 478 218 668 q 266 199 218 290 q 417 107 314 107 q 568 199 521 107 q 615 479 615 290 m 221 1097 l 221 1211 l 613 1211 l 613 1097 l 221 1097 z "},"Ø":{"ha":833,"x_min":53,"x_max":781,"o":"m 614 917 q 738 744 694 857 q 781 479 781 631 q 687 117 781 251 q 417 -18 593 -18 q 335 -10 372 -18 l 292 -153 l 168 -118 l 219 43 q 96 215 139 103 q 53 478 53 326 q 147 842 53 706 q 417 978 240 978 q 500 968 463 978 l 543 1115 l 665 1081 l 614 917 m 417 853 q 264 761 311 853 q 217 478 217 669 q 279 168 217 251 l 475 846 q 417 853 447 853 m 417 106 q 569 197 522 106 q 617 479 617 289 q 602 672 617 596 q 556 792 588 749 l 358 113 q 417 106 389 106 z "},"Ǿ":{"ha":833,"x_min":53,"x_max":781,"o":"m 614 917 q 738 744 694 857 q 781 479 781 631 q 687 117 781 251 q 417 -18 593 -18 q 335 -10 372 -18 l 292 -153 l 168 -118 l 219 43 q 96 215 139 103 q 53 478 53 326 q 147 842 53 706 q 417 978 240 978 q 500 968 463 978 l 543 1115 l 665 1081 l 614 917 m 417 853 q 264 761 311 853 q 217 478 217 669 q 279 168 217 251 l 475 846 q 417 853 447 853 m 417 106 q 569 197 522 106 q 617 479 617 289 q 602 672 617 596 q 556 792 588 749 l 358 113 q 417 106 389 106 m 593 1158 l 283 1047 l 244 1128 l 529 1283 l 593 1158 z "},"Õ":{"ha":833,"x_min":53,"x_max":781,"o":"m 781 479 q 687 117 781 251 q 417 -18 593 -18 q 147 115 240 -18 q 53 478 53 247 q 147 842 53 706 q 417 978 240 978 q 687 844 593 978 q 781 479 781 710 m 615 479 q 568 760 615 668 q 417 851 521 851 q 265 760 313 851 q 218 478 218 668 q 266 199 218 290 q 417 107 314 107 q 568 199 521 107 q 615 479 615 290 m 497 1071 q 447 1081 469 1071 q 399 1108 425 1090 q 366 1129 381 1122 q 336 1136 351 1136 q 297 1121 314 1136 q 263 1074 281 1106 l 175 1117 q 243 1215 203 1178 q 336 1251 283 1251 q 386 1242 365 1251 q 435 1214 407 1232 q 468 1193 454 1200 q 497 1186 482 1186 q 535 1201 518 1186 q 569 1247 551 1215 l 657 1203 q 588 1105 629 1139 q 497 1071 547 1071 z "},"Œ":{"ha":833,"x_min":4,"x_max":846,"o":"m 301 978 q 413 958 354 978 l 839 958 l 821 839 l 515 839 q 592 546 582 747 l 788 546 l 788 426 l 592 426 q 508 119 586 221 l 846 119 l 846 0 l 408 0 q 301 -18 351 -18 q 77 107 150 -18 q 4 478 4 232 q 78 849 4 721 q 301 978 151 978 m 301 857 q 192 769 225 857 q 158 478 158 682 q 193 188 158 276 q 301 100 228 100 q 413 188 379 100 q 447 479 447 276 q 433 700 447 618 q 386 819 418 782 q 301 857 354 857 z "},"P":{"ha":833,"x_min":133,"x_max":783,"o":"m 783 657 q 683 419 783 496 q 410 342 583 342 l 293 342 l 293 0 l 133 0 l 133 958 l 399 958 q 683 883 583 958 q 783 657 783 807 m 615 657 q 410 838 615 838 l 293 838 l 293 464 l 411 464 q 562 508 508 464 q 615 657 615 553 z "},"Þ":{"ha":833,"x_min":124,"x_max":783,"o":"m 285 799 l 399 799 q 683 722 583 799 q 783 493 783 646 q 684 251 783 331 q 410 172 585 172 l 285 172 l 285 0 l 124 0 l 124 958 l 285 958 l 285 799 m 285 678 l 285 294 l 414 294 q 562 339 510 294 q 614 490 614 383 q 561 633 614 588 q 411 678 508 678 l 285 678 z "},"Q":{"ha":833,"x_min":56,"x_max":844,"o":"m 781 479 q 734 212 781 322 q 581 44 688 101 q 748 -27 688 24 q 844 -185 808 -78 l 696 -240 q 628 -113 664 -161 q 538 -40 592 -65 q 403 -15 483 -15 q 145 116 235 -15 q 56 478 56 247 q 149 842 56 707 q 418 978 243 978 q 688 844 594 978 q 781 479 781 711 m 613 479 q 567 760 613 669 q 418 851 522 851 q 269 760 314 851 q 224 478 224 668 q 270 198 224 289 q 418 107 317 107 q 567 198 522 107 q 613 479 613 289 z "},"R":{"ha":833,"x_min":118,"x_max":813,"o":"m 758 681 q 699 514 758 581 q 540 417 639 447 l 813 0 l 625 0 l 383 394 l 279 394 l 279 0 l 118 0 l 118 958 l 385 958 q 758 681 758 958 m 590 681 q 542 801 590 764 q 394 839 494 839 l 279 839 l 279 513 l 399 513 q 542 553 493 513 q 590 681 590 593 z "},"Ŕ":{"ha":833,"x_min":118,"x_max":813,"o":"m 758 681 q 699 514 758 581 q 540 417 639 447 l 813 0 l 625 0 l 383 394 l 279 394 l 279 0 l 118 0 l 118 958 l 385 958 q 758 681 758 958 m 590 681 q 542 801 590 764 q 394 839 494 839 l 279 839 l 279 513 l 399 513 q 542 553 493 513 q 590 681 590 593 m 593 1158 l 283 1047 l 244 1128 l 529 1283 l 593 1158 z "},"Ř":{"ha":833,"x_min":118,"x_max":813,"o":"m 758 681 q 699 514 758 581 q 540 417 639 447 l 813 0 l 625 0 l 383 394 l 279 394 l 279 0 l 118 0 l 118 958 l 385 958 q 758 681 758 958 m 590 681 q 542 801 590 764 q 394 839 494 839 l 279 839 l 279 513 l 399 513 q 542 553 493 513 q 590 681 590 593 m 657 1207 l 467 1046 l 367 1046 l 176 1207 l 239 1278 l 417 1164 l 596 1278 l 657 1207 z "},"Ŗ":{"ha":833,"x_min":118,"x_max":813,"o":"m 758 681 q 699 514 758 581 q 540 417 639 447 l 813 0 l 625 0 l 383 394 l 279 394 l 279 0 l 118 0 l 118 958 l 385 958 q 758 681 758 958 m 590 681 q 542 801 590 764 q 394 839 494 839 l 279 839 l 279 513 l 399 513 q 542 553 493 513 q 590 681 590 593 m 424 -96 q 487 -120 461 -96 q 513 -182 513 -144 q 488 -272 513 -221 l 418 -417 l 332 -417 l 372 -254 q 336 -182 336 -228 q 361 -121 336 -146 q 424 -96 386 -96 z "},"S":{"ha":833,"x_min":43,"x_max":763,"o":"m 763 271 q 719 119 763 185 q 592 18 675 54 q 396 -18 510 -18 q 43 110 174 -18 l 132 208 q 396 108 240 108 q 538 149 482 108 q 594 263 594 189 q 577 335 594 306 q 518 387 560 364 q 399 433 476 410 q 164 546 239 481 q 89 718 89 611 q 131 853 89 794 q 249 945 174 913 q 418 978 324 978 q 739 863 611 978 l 654 767 q 428 851 556 851 q 302 819 350 851 q 254 728 254 788 q 274 664 254 690 q 342 616 294 638 q 478 568 390 594 q 690 461 617 526 q 763 271 763 396 z "},"Ś":{"ha":833,"x_min":43,"x_max":763,"o":"m 763 271 q 719 119 763 185 q 592 18 675 54 q 396 -18 510 -18 q 43 110 174 -18 l 132 208 q 396 108 240 108 q 538 149 482 108 q 594 263 594 189 q 577 335 594 306 q 518 387 560 364 q 399 433 476 410 q 164 546 239 481 q 89 718 89 611 q 131 853 89 794 q 249 945 174 913 q 418 978 324 978 q 739 863 611 978 l 654 767 q 428 851 556 851 q 302 819 350 851 q 254 728 254 788 q 274 664 254 690 q 342 616 294 638 q 478 568 390 594 q 690 461 617 526 q 763 271 763 396 m 603 1158 l 293 1047 l 254 1128 l 539 1283 l 603 1158 z "},"Š":{"ha":833,"x_min":43,"x_max":763,"o":"m 763 271 q 719 119 763 185 q 592 18 675 54 q 396 -18 510 -18 q 43 110 174 -18 l 132 208 q 396 108 240 108 q 538 149 482 108 q 594 263 594 189 q 577 335 594 306 q 518 387 560 364 q 399 433 476 410 q 164 546 239 481 q 89 718 89 611 q 131 853 89 794 q 249 945 174 913 q 418 978 324 978 q 739 863 611 978 l 654 767 q 428 851 556 851 q 302 819 350 851 q 254 728 254 788 q 274 664 254 690 q 342 616 294 638 q 478 568 390 594 q 690 461 617 526 q 763 271 763 396 m 667 1207 l 476 1046 l 376 1046 l 186 1207 l 249 1278 l 426 1164 l 606 1278 l 667 1207 z "},"Ş":{"ha":833,"x_min":43,"x_max":763,"o":"m 763 271 q 679 74 763 151 q 447 -17 596 -4 l 447 -75 q 548 -115 514 -81 q 582 -199 582 -149 q 529 -304 582 -265 q 397 -343 476 -343 q 314 -333 354 -343 q 246 -307 274 -324 l 288 -226 q 379 -250 335 -250 q 458 -197 458 -250 q 428 -154 458 -165 q 336 -143 399 -143 l 347 -17 q 43 110 160 -3 l 132 208 q 396 108 240 108 q 538 149 482 108 q 594 263 594 189 q 577 335 594 306 q 518 387 560 364 q 399 433 476 410 q 164 546 239 481 q 89 718 89 611 q 131 853 89 794 q 249 945 174 913 q 418 978 324 978 q 739 863 611 978 l 654 767 q 428 851 556 851 q 302 819 350 851 q 254 728 254 788 q 274 664 254 690 q 342 616 294 638 q 478 568 390 594 q 690 461 617 526 q 763 271 763 396 z "},"Ŝ":{"ha":833,"x_min":43,"x_max":763,"o":"m 763 271 q 719 119 763 185 q 592 18 675 54 q 396 -18 510 -18 q 43 110 174 -18 l 132 208 q 396 108 240 108 q 538 149 482 108 q 594 263 594 189 q 577 335 594 306 q 518 387 560 364 q 399 433 476 410 q 164 546 239 481 q 89 718 89 611 q 131 853 89 794 q 249 945 174 913 q 418 978 324 978 q 739 863 611 978 l 654 767 q 428 851 556 851 q 302 819 350 851 q 254 728 254 788 q 274 664 254 690 q 342 616 294 638 q 478 568 390 594 q 690 461 617 526 q 763 271 763 396 m 667 1121 l 606 1050 l 426 1164 l 249 1050 l 186 1121 l 376 1282 l 476 1282 l 667 1121 z "},"Ș":{"ha":833,"x_min":43,"x_max":763,"o":"m 763 271 q 719 119 763 185 q 592 18 675 54 q 396 -18 510 -18 q 43 110 174 -18 l 132 208 q 396 108 240 108 q 538 149 482 108 q 594 263 594 189 q 577 335 594 306 q 518 387 560 364 q 399 433 476 410 q 164 546 239 481 q 89 718 89 611 q 131 853 89 794 q 249 945 174 913 q 418 978 324 978 q 739 863 611 978 l 654 767 q 428 851 556 851 q 302 819 350 851 q 254 728 254 788 q 274 664 254 690 q 342 616 294 638 q 478 568 390 594 q 690 461 617 526 q 763 271 763 396 m 417 -96 q 480 -120 454 -96 q 506 -182 506 -144 q 481 -272 506 -221 l 411 -417 l 325 -417 l 365 -254 q 329 -182 329 -228 q 354 -121 329 -146 q 417 -96 379 -96 z "},"T":{"ha":833,"x_min":46,"x_max":789,"o":"m 496 0 l 335 0 l 335 828 l 46 828 l 46 958 l 789 958 l 772 828 l 496 828 l 496 0 z "},"Ŧ":{"ha":833,"x_min":46,"x_max":789,"o":"m 496 828 l 496 574 l 671 574 l 671 467 l 496 467 l 496 0 l 335 0 l 335 467 l 161 467 l 161 574 l 335 574 l 335 828 l 46 828 l 46 958 l 789 958 l 772 828 l 496 828 z "},"Ť":{"ha":833,"x_min":46,"x_max":789,"o":"m 496 0 l 335 0 l 335 828 l 46 828 l 46 958 l 789 958 l 772 828 l 496 828 l 496 0 m 656 1207 l 465 1046 l 365 1046 l 175 1207 l 238 1278 l 415 1164 l 594 1278 l 656 1207 z "},"Ţ":{"ha":833,"x_min":46,"x_max":789,"o":"m 465 0 l 465 -75 q 566 -115 532 -81 q 600 -199 600 -149 q 548 -304 600 -265 q 417 -343 496 -343 q 333 -333 374 -343 q 264 -307 292 -324 l 307 -226 q 399 -250 351 -250 q 478 -197 478 -250 q 448 -154 478 -165 q 354 -143 418 -143 l 368 0 l 335 0 l 335 828 l 46 828 l 46 958 l 789 958 l 772 828 l 496 828 l 496 0 l 465 0 z "},"Ț":{"ha":833,"x_min":46,"x_max":789,"o":"m 496 0 l 335 0 l 335 828 l 46 828 l 46 958 l 789 958 l 772 828 l 496 828 l 496 0 m 418 -96 q 481 -120 456 -96 q 507 -182 507 -144 q 482 -272 507 -221 l 413 -417 l 326 -417 l 367 -254 q 331 -182 331 -228 q 356 -121 331 -146 q 418 -96 381 -96 z "},"U":{"ha":833,"x_min":85,"x_max":749,"o":"m 749 314 q 709 142 749 217 q 594 24 669 67 q 415 -18 519 -18 q 172 72 258 -18 q 85 314 85 163 l 85 958 l 246 958 l 246 344 q 287 167 246 225 q 415 110 328 110 q 545 167 504 110 q 586 344 586 225 l 586 958 l 749 958 l 749 314 z "},"Ú":{"ha":833,"x_min":85,"x_max":749,"o":"m 749 314 q 709 142 749 217 q 594 24 669 67 q 415 -18 519 -18 q 172 72 258 -18 q 85 314 85 163 l 85 958 l 246 958 l 246 344 q 287 167 246 225 q 415 110 328 110 q 545 167 504 110 q 586 344 586 225 l 586 958 l 749 958 l 749 314 m 593 1158 l 283 1047 l 244 1128 l 529 1283 l 593 1158 z "},"Ŭ":{"ha":833,"x_min":85,"x_max":749,"o":"m 749 314 q 709 142 749 217 q 594 24 669 67 q 415 -18 519 -18 q 172 72 258 -18 q 85 314 85 163 l 85 958 l 246 958 l 246 344 q 287 167 246 225 q 415 110 328 110 q 545 167 504 110 q 586 344 586 225 l 586 958 l 749 958 l 749 314 m 414 1050 q 264 1101 322 1050 q 197 1233 206 1151 l 292 1253 q 414 1164 322 1164 q 494 1187 463 1164 q 539 1253 525 1210 l 635 1233 q 567 1101 626 1151 q 414 1050 507 1050 z "},"Û":{"ha":833,"x_min":85,"x_max":749,"o":"m 749 314 q 709 142 749 217 q 594 24 669 67 q 415 -18 519 -18 q 172 72 258 -18 q 85 314 85 163 l 85 958 l 246 958 l 246 344 q 287 167 246 225 q 415 110 328 110 q 545 167 504 110 q 586 344 586 225 l 586 958 l 749 958 l 749 314 m 657 1121 l 596 1050 l 417 1164 l 239 1050 l 176 1121 l 367 1282 l 467 1282 l 657 1121 z "},"Ü":{"ha":833,"x_min":85,"x_max":749,"o":"m 749 314 q 709 142 749 217 q 594 24 669 67 q 415 -18 519 -18 q 172 72 258 -18 q 85 314 85 163 l 85 958 l 246 958 l 246 344 q 287 167 246 225 q 415 110 328 110 q 545 167 504 110 q 586 344 586 225 l 586 958 l 749 958 l 749 314 m 267 1064 q 202 1089 228 1064 q 176 1151 176 1114 q 202 1215 176 1189 q 267 1240 228 1240 q 331 1215 306 1240 q 357 1151 357 1189 q 331 1089 357 1114 q 267 1064 306 1064 m 567 1064 q 503 1089 529 1064 q 476 1151 476 1114 q 503 1215 476 1189 q 567 1240 529 1240 q 631 1215 606 1240 q 657 1151 657 1189 q 631 1089 657 1114 q 567 1064 606 1064 z "},"Ù":{"ha":833,"x_min":85,"x_max":749,"o":"m 749 314 q 709 142 749 217 q 594 24 669 67 q 415 -18 519 -18 q 172 72 258 -18 q 85 314 85 163 l 85 958 l 246 958 l 246 344 q 287 167 246 225 q 415 110 328 110 q 545 167 504 110 q 586 344 586 225 l 586 958 l 749 958 l 749 314 m 589 1128 l 547 1047 l 246 1161 l 317 1286 l 589 1128 z "},"Ű":{"ha":833,"x_min":85,"x_max":749,"o":"m 749 314 q 709 142 749 217 q 594 24 669 67 q 415 -18 519 -18 q 172 72 258 -18 q 85 314 85 163 l 85 958 l 246 958 l 246 344 q 287 167 246 225 q 415 110 328 110 q 545 167 504 110 q 586 344 586 225 l 586 958 l 749 958 l 749 314 m 360 1340 l 481 1285 l 332 1047 l 240 1088 l 360 1340 m 597 1340 l 715 1281 l 557 1044 l 468 1089 l 597 1340 z "},"Ū":{"ha":833,"x_min":85,"x_max":749,"o":"m 749 314 q 709 142 749 217 q 594 24 669 67 q 415 -18 519 -18 q 172 72 258 -18 q 85 314 85 163 l 85 958 l 246 958 l 246 344 q 287 167 246 225 q 415 110 328 110 q 545 167 504 110 q 586 344 586 225 l 586 958 l 749 958 l 749 314 m 221 1097 l 221 1211 l 613 1211 l 613 1097 l 221 1097 z "},"Ų":{"ha":833,"x_min":85,"x_max":749,"o":"m 749 958 l 749 314 q 691 111 749 196 q 529 -4 633 26 q 404 -78 438 -42 q 371 -157 371 -114 q 449 -224 371 -224 q 531 -214 488 -224 l 517 -321 q 431 -331 471 -331 q 297 -290 349 -331 q 246 -182 246 -249 q 273 -88 246 -129 q 353 -14 300 -47 q 155 92 225 4 q 85 314 85 179 l 85 958 l 246 958 l 246 344 q 287 167 246 225 q 415 110 328 110 q 545 167 504 110 q 586 344 586 225 l 586 958 l 749 958 z "},"Ů":{"ha":833,"x_min":85,"x_max":749,"o":"m 749 314 q 709 142 749 217 q 594 24 669 67 q 415 -18 519 -18 q 172 72 258 -18 q 85 314 85 163 l 85 958 l 246 958 l 246 344 q 287 167 246 225 q 415 110 328 110 q 545 167 504 110 q 586 344 586 225 l 586 958 l 749 958 l 749 314 m 417 1335 q 539 1289 492 1335 q 586 1176 586 1243 q 539 1065 586 1110 q 417 1019 492 1019 q 296 1065 343 1019 q 249 1176 249 1111 q 296 1289 249 1243 q 417 1335 343 1335 m 417 1251 q 366 1231 385 1251 q 347 1176 347 1211 q 366 1121 347 1140 q 417 1101 385 1101 q 469 1121 450 1101 q 488 1176 488 1140 q 468 1231 488 1211 q 417 1251 449 1251 z "},"Ũ":{"ha":833,"x_min":85,"x_max":749,"o":"m 749 314 q 709 142 749 217 q 594 24 669 67 q 415 -18 519 -18 q 172 72 258 -18 q 85 314 85 163 l 85 958 l 246 958 l 246 344 q 287 167 246 225 q 415 110 328 110 q 545 167 504 110 q 586 344 586 225 l 586 958 l 749 958 l 749 314 m 497 1071 q 447 1081 469 1071 q 399 1108 425 1090 q 366 1129 381 1122 q 336 1136 351 1136 q 297 1121 314 1136 q 263 1074 281 1106 l 175 1117 q 243 1215 203 1178 q 336 1251 283 1251 q 386 1242 365 1251 q 435 1214 407 1232 q 468 1193 454 1200 q 497 1186 482 1186 q 535 1201 518 1186 q 569 1247 551 1215 l 657 1203 q 588 1105 629 1139 q 497 1071 547 1071 z "},"V":{"ha":833,"x_min":21,"x_max":813,"o":"m 649 958 l 813 958 l 508 0 l 325 0 l 21 958 l 193 958 l 419 153 l 649 958 z "},"W":{"ha":833,"x_min":3,"x_max":831,"o":"m 699 0 l 510 0 l 415 710 l 317 0 l 125 0 l 3 958 l 158 958 l 233 156 l 336 847 l 501 847 l 597 156 l 686 958 l 831 958 l 699 0 z "},"Ẃ":{"ha":833,"x_min":3,"x_max":831,"o":"m 699 0 l 510 0 l 415 710 l 317 0 l 125 0 l 3 958 l 158 958 l 233 156 l 336 847 l 501 847 l 597 156 l 686 958 l 831 958 l 699 0 m 593 1158 l 283 1047 l 244 1128 l 529 1283 l 593 1158 z "},"Ŵ":{"ha":833,"x_min":3,"x_max":831,"o":"m 699 0 l 510 0 l 415 710 l 317 0 l 125 0 l 3 958 l 158 958 l 233 156 l 336 847 l 501 847 l 597 156 l 686 958 l 831 958 l 699 0 m 657 1121 l 596 1050 l 417 1164 l 239 1050 l 176 1121 l 367 1282 l 467 1282 l 657 1121 z "},"Ẅ":{"ha":833,"x_min":3,"x_max":831,"o":"m 699 0 l 510 0 l 415 710 l 317 0 l 125 0 l 3 958 l 158 958 l 233 156 l 336 847 l 501 847 l 597 156 l 686 958 l 831 958 l 699 0 m 267 1064 q 202 1089 228 1064 q 176 1151 176 1114 q 202 1215 176 1189 q 267 1240 228 1240 q 331 1215 306 1240 q 357 1151 357 1189 q 331 1089 357 1114 q 267 1064 306 1064 m 567 1064 q 503 1089 529 1064 q 476 1151 476 1114 q 503 1215 476 1189 q 567 1240 529 1240 q 631 1215 606 1240 q 657 1151 657 1189 q 631 1089 657 1114 q 567 1064 606 1064 z "},"Ẁ":{"ha":833,"x_min":3,"x_max":831,"o":"m 699 0 l 510 0 l 415 710 l 317 0 l 125 0 l 3 958 l 158 958 l 233 156 l 336 847 l 501 847 l 597 156 l 686 958 l 831 958 l 699 0 m 589 1128 l 547 1047 l 246 1161 l 317 1286 l 589 1128 z "},"X":{"ha":833,"x_min":29,"x_max":806,"o":"m 232 958 l 417 614 l 604 958 l 775 958 l 510 518 l 806 0 l 626 0 l 414 407 l 200 0 l 29 0 l 318 510 l 53 958 l 232 958 z "},"Y":{"ha":833,"x_min":15,"x_max":818,"o":"m 497 0 l 336 0 l 336 365 l 15 958 l 193 958 l 419 504 l 649 958 l 818 958 l 497 367 l 497 0 z "},"Ý":{"ha":833,"x_min":15,"x_max":818,"o":"m 497 0 l 336 0 l 336 365 l 15 958 l 193 958 l 419 504 l 649 958 l 818 958 l 497 367 l 497 0 m 596 1158 l 286 1047 l 247 1128 l 532 1283 l 596 1158 z "},"Ŷ":{"ha":833,"x_min":15,"x_max":818,"o":"m 497 0 l 336 0 l 336 365 l 15 958 l 193 958 l 419 504 l 649 958 l 818 958 l 497 367 l 497 0 m 660 1121 l 599 1050 l 419 1164 l 242 1050 l 179 1121 l 369 1282 l 469 1282 l 660 1121 z "},"Ÿ":{"ha":833,"x_min":15,"x_max":818,"o":"m 497 0 l 336 0 l 336 365 l 15 958 l 193 958 l 419 504 l 649 958 l 818 958 l 497 367 l 497 0 m 269 1064 q 205 1089 231 1064 q 179 1151 179 1114 q 205 1215 179 1189 q 269 1240 231 1240 q 334 1215 308 1240 q 360 1151 360 1189 q 334 1089 360 1114 q 269 1064 308 1064 m 569 1064 q 506 1089 532 1064 q 479 1151 479 1114 q 506 1215 479 1189 q 569 1240 532 1240 q 634 1215 608 1240 q 660 1151 660 1189 q 634 1089 660 1114 q 569 1064 608 1064 z "},"Ỳ":{"ha":833,"x_min":15,"x_max":818,"o":"m 497 0 l 336 0 l 336 365 l 15 958 l 193 958 l 419 504 l 649 958 l 818 958 l 497 367 l 497 0 m 592 1128 l 550 1047 l 249 1161 l 319 1286 l 592 1128 z "},"Z":{"ha":833,"x_min":82,"x_max":750,"o":"m 750 133 l 733 0 l 82 0 l 82 125 l 569 828 l 132 828 l 132 958 l 747 958 l 747 832 l 267 133 l 750 133 z "},"Ź":{"ha":833,"x_min":82,"x_max":750,"o":"m 750 133 l 733 0 l 82 0 l 82 125 l 569 828 l 132 828 l 132 958 l 747 958 l 747 832 l 267 133 l 750 133 m 615 1158 l 306 1047 l 267 1128 l 551 1283 l 615 1158 z "},"Ž":{"ha":833,"x_min":82,"x_max":750,"o":"m 750 133 l 733 0 l 82 0 l 82 125 l 569 828 l 132 828 l 132 958 l 747 958 l 747 832 l 267 133 l 750 133 m 681 1207 l 490 1046 l 390 1046 l 200 1207 l 263 1278 l 440 1164 l 619 1278 l 681 1207 z "},"Ż":{"ha":833,"x_min":82,"x_max":750,"o":"m 750 133 l 733 0 l 82 0 l 82 125 l 569 828 l 132 828 l 132 958 l 747 958 l 747 832 l 267 133 l 750 133 m 439 1261 q 512 1233 483 1261 q 540 1164 540 1206 q 512 1094 540 1122 q 439 1065 483 1065 q 366 1094 394 1065 q 338 1164 338 1122 q 365 1233 338 1206 q 439 1261 393 1261 z "},"a":{"ha":833,"x_min":78,"x_max":740,"o":"m 685 179 q 697 117 685 138 q 740 88 710 97 l 704 -18 q 553 83 589 -4 q 452 8 513 33 q 319 -18 392 -18 q 143 44 208 -18 q 78 210 78 107 q 169 388 78 325 q 426 450 260 450 l 531 450 l 531 497 q 489 599 531 567 q 368 631 447 631 q 278 621 329 631 q 174 593 226 611 l 135 703 q 392 753 267 753 q 611 689 538 753 q 685 507 685 625 l 685 179 m 365 96 q 459 121 414 96 q 531 190 504 146 l 531 353 l 444 353 q 290 317 339 353 q 242 215 242 282 q 273 126 242 157 q 365 96 304 96 z "},"á":{"ha":833,"x_min":78,"x_max":740,"o":"m 685 179 q 697 117 685 138 q 740 88 710 97 l 704 -18 q 553 83 589 -4 q 452 8 513 33 q 319 -18 392 -18 q 143 44 208 -18 q 78 210 78 107 q 169 388 78 325 q 426 450 260 450 l 531 450 l 531 497 q 489 599 531 567 q 368 631 447 631 q 278 621 329 631 q 174 593 226 611 l 135 703 q 392 753 267 753 q 611 689 538 753 q 685 507 685 625 l 685 179 m 365 96 q 459 121 414 96 q 531 190 504 146 l 531 353 l 444 353 q 290 317 339 353 q 242 215 242 282 q 273 126 242 157 q 365 96 304 96 m 583 1003 l 279 879 l 233 961 l 518 1126 l 583 1003 z "},"ă":{"ha":833,"x_min":78,"x_max":740,"o":"m 685 179 q 697 117 685 138 q 740 88 710 97 l 704 -18 q 553 83 589 -4 q 452 8 513 33 q 319 -18 392 -18 q 143 44 208 -18 q 78 210 78 107 q 169 388 78 325 q 426 450 260 450 l 531 450 l 531 497 q 489 599 531 567 q 368 631 447 631 q 278 621 329 631 q 174 593 226 611 l 135 703 q 392 753 267 753 q 611 689 538 753 q 685 507 685 625 l 685 179 m 365 96 q 459 121 414 96 q 531 190 504 146 l 531 353 l 444 353 q 290 317 339 353 q 242 215 242 282 q 273 126 242 157 q 365 96 304 96 m 404 865 q 252 928 308 865 q 186 1075 196 990 l 282 1093 q 326 1008 296 1039 q 404 978 357 978 q 483 1008 451 978 q 529 1093 514 1039 l 624 1075 q 591 974 618 1022 q 516 896 564 926 q 404 865 468 865 z "},"â":{"ha":833,"x_min":78,"x_max":740,"o":"m 685 179 q 697 117 685 138 q 740 88 710 97 l 704 -18 q 553 83 589 -4 q 452 8 513 33 q 319 -18 392 -18 q 143 44 208 -18 q 78 210 78 107 q 169 388 78 325 q 426 450 260 450 l 531 450 l 531 497 q 489 599 531 567 q 368 631 447 631 q 278 621 329 631 q 174 593 226 611 l 135 703 q 392 753 267 753 q 611 689 538 753 q 685 507 685 625 l 685 179 m 365 96 q 459 121 414 96 q 531 190 504 146 l 531 353 l 444 353 q 290 317 339 353 q 242 215 242 282 q 273 126 242 157 q 365 96 304 96 m 165 933 l 356 1110 l 456 1110 l 646 933 l 583 864 l 407 992 l 229 864 l 165 933 z "},"ä":{"ha":833,"x_min":78,"x_max":740,"o":"m 685 179 q 697 117 685 138 q 740 88 710 97 l 704 -18 q 553 83 589 -4 q 452 8 513 33 q 319 -18 392 -18 q 143 44 208 -18 q 78 210 78 107 q 169 388 78 325 q 426 450 260 450 l 531 450 l 531 497 q 489 599 531 567 q 368 631 447 631 q 278 621 329 631 q 174 593 226 611 l 135 703 q 392 753 267 753 q 611 689 538 753 q 685 507 685 625 l 685 179 m 365 96 q 459 121 414 96 q 531 190 504 146 l 531 353 l 444 353 q 290 317 339 353 q 242 215 242 282 q 273 126 242 157 q 365 96 304 96 m 256 894 q 190 919 217 894 q 164 982 164 944 q 190 1046 164 1021 q 256 1071 217 1071 q 319 1046 293 1071 q 344 982 344 1021 q 319 919 344 944 q 256 894 293 894 m 556 894 q 492 919 518 894 q 465 982 465 944 q 492 1045 465 1019 q 556 1071 518 1071 q 620 1046 594 1071 q 646 982 646 1021 q 620 919 646 944 q 556 894 594 894 z "},"à":{"ha":833,"x_min":78,"x_max":740,"o":"m 685 179 q 697 117 685 138 q 740 88 710 97 l 704 -18 q 553 83 589 -4 q 452 8 513 33 q 319 -18 392 -18 q 143 44 208 -18 q 78 210 78 107 q 169 388 78 325 q 426 450 260 450 l 531 450 l 531 497 q 489 599 531 567 q 368 631 447 631 q 278 621 329 631 q 174 593 226 611 l 135 703 q 392 753 267 753 q 611 689 538 753 q 685 507 685 625 l 685 179 m 365 96 q 459 121 414 96 q 531 190 504 146 l 531 353 l 444 353 q 290 317 339 353 q 242 215 242 282 q 273 126 242 157 q 365 96 304 96 m 233 993 l 306 1118 l 579 946 l 532 864 l 233 993 z "},"ā":{"ha":833,"x_min":78,"x_max":740,"o":"m 685 179 q 697 117 685 138 q 740 88 710 97 l 704 -18 q 553 83 589 -4 q 452 8 513 33 q 319 -18 392 -18 q 143 44 208 -18 q 78 210 78 107 q 169 388 78 325 q 426 450 260 450 l 531 450 l 531 497 q 489 599 531 567 q 368 631 447 631 q 278 621 329 631 q 174 593 226 611 l 135 703 q 392 753 267 753 q 611 689 538 753 q 685 507 685 625 l 685 179 m 365 96 q 459 121 414 96 q 531 190 504 146 l 531 353 l 444 353 q 290 317 339 353 q 242 215 242 282 q 273 126 242 157 q 365 96 304 96 m 208 929 l 208 1042 l 601 1042 l 601 929 l 208 929 z "},"ą":{"ha":833,"x_min":78,"x_max":740,"o":"m 704 -18 l 704 -18 q 573 -94 608 -57 q 538 -175 538 -131 q 615 -242 538 -242 q 697 -232 654 -242 l 683 -339 q 597 -349 638 -349 q 464 -308 515 -349 q 413 -200 413 -267 q 462 -77 413 -128 q 611 11 511 -26 q 553 83 574 36 q 452 8 513 33 q 319 -18 392 -18 q 143 44 208 -18 q 78 210 78 107 q 169 388 78 325 q 426 450 260 450 l 531 450 l 531 497 q 489 599 531 567 q 368 631 447 631 q 278 621 329 631 q 174 593 226 611 l 135 703 q 392 753 267 753 q 611 689 538 753 q 685 507 685 625 l 685 179 q 697 117 685 138 q 740 88 710 97 l 704 -18 m 531 353 l 444 353 q 290 317 339 353 q 242 215 242 282 q 273 126 242 157 q 365 96 304 96 q 459 121 414 96 q 531 190 504 146 l 531 353 z "},"å":{"ha":833,"x_min":78,"x_max":740,"o":"m 685 179 q 697 117 685 138 q 740 88 710 97 l 704 -18 q 553 83 589 -4 q 452 8 513 33 q 319 -18 392 -18 q 143 44 208 -18 q 78 210 78 107 q 169 388 78 325 q 426 450 260 450 l 531 450 l 531 497 q 489 599 531 567 q 368 631 447 631 q 278 621 329 631 q 174 593 226 611 l 135 703 q 392 753 267 753 q 611 689 538 753 q 685 507 685 625 l 685 179 m 365 96 q 459 121 414 96 q 531 190 504 146 l 531 353 l 444 353 q 290 317 339 353 q 242 215 242 282 q 273 126 242 157 q 365 96 304 96 m 406 1165 q 527 1120 481 1165 q 574 1008 574 1075 q 527 896 574 942 q 406 850 481 850 q 283 896 331 850 q 236 1008 236 942 q 283 1120 236 1075 q 406 1165 331 1165 m 406 1082 q 353 1063 372 1082 q 335 1008 335 1043 q 353 952 335 972 q 406 932 372 932 q 456 952 438 932 q 475 1008 475 972 q 456 1063 475 1043 q 406 1082 438 1082 z "},"ã":{"ha":833,"x_min":78,"x_max":740,"o":"m 685 179 q 697 117 685 138 q 740 88 710 97 l 704 -18 q 553 83 589 -4 q 452 8 513 33 q 319 -18 392 -18 q 143 44 208 -18 q 78 210 78 107 q 169 388 78 325 q 426 450 260 450 l 531 450 l 531 497 q 489 599 531 567 q 368 631 447 631 q 278 621 329 631 q 174 593 226 611 l 135 703 q 392 753 267 753 q 611 689 538 753 q 685 507 685 625 l 685 179 m 365 96 q 459 121 414 96 q 531 190 504 146 l 531 353 l 444 353 q 290 317 339 353 q 242 215 242 282 q 273 126 242 157 q 365 96 304 96 m 485 903 q 435 913 457 903 q 388 940 414 922 q 353 962 367 956 q 325 968 340 968 q 285 953 301 968 q 251 904 269 938 l 164 947 q 232 1046 192 1008 q 324 1083 272 1083 q 376 1073 353 1083 q 424 1044 399 1063 q 456 1024 443 1031 q 485 1017 469 1017 q 522 1031 506 1017 q 558 1078 539 1046 l 646 1035 q 577 937 618 971 q 485 903 536 903 z "},"æ":{"ha":833,"x_min":-8,"x_max":839,"o":"m 600 753 q 839 386 839 753 q 836 319 839 358 l 478 319 q 522 151 488 204 q 625 97 557 97 q 692 110 661 97 q 757 149 722 122 l 822 57 q 729 1 778 21 q 619 -18 681 -18 q 407 103 478 -18 q 315 10 361 38 q 201 -18 269 -18 q 49 44 106 -18 q -8 210 -8 107 q 65 388 -8 326 q 283 449 139 449 l 344 449 l 344 497 q 218 642 344 642 q 155 633 185 642 q 79 604 125 625 l 42 704 q 233 753 146 753 q 355 724 310 753 q 425 640 400 694 q 492 723 447 693 q 600 753 538 753 m 594 640 q 511 591 539 640 q 478 422 483 542 l 706 422 q 680 588 704 535 q 594 640 656 640 m 296 353 q 175 319 211 353 q 139 218 139 285 q 163 124 139 157 q 228 92 186 92 q 295 119 265 92 q 358 207 325 147 q 344 353 344 271 l 296 353 z "},"ǽ":{"ha":833,"x_min":-8,"x_max":839,"o":"m 600 753 q 839 386 839 753 q 836 319 839 358 l 478 319 q 522 151 488 204 q 625 97 557 97 q 692 110 661 97 q 757 149 722 122 l 822 57 q 729 1 778 21 q 619 -18 681 -18 q 407 103 478 -18 q 315 10 361 38 q 201 -18 269 -18 q 49 44 106 -18 q -8 210 -8 107 q 65 388 -8 326 q 283 449 139 449 l 344 449 l 344 497 q 218 642 344 642 q 155 633 185 642 q 79 604 125 625 l 42 704 q 233 753 146 753 q 355 724 310 753 q 425 640 400 694 q 492 723 447 693 q 600 753 538 753 m 594 640 q 511 591 539 640 q 478 422 483 542 l 706 422 q 680 588 704 535 q 594 640 656 640 m 296 353 q 175 319 211 353 q 139 218 139 285 q 163 124 139 157 q 228 92 186 92 q 295 119 265 92 q 358 207 325 147 q 344 353 344 271 l 296 353 m 603 1003 l 299 879 l 253 961 l 538 1126 l 603 1003 z "},"b":{"ha":833,"x_min":124,"x_max":754,"o":"m 279 646 q 369 725 317 697 q 481 753 421 753 q 688 651 621 753 q 754 368 754 550 q 677 89 754 196 q 461 -18 600 -18 q 269 72 339 -18 l 261 0 l 124 0 l 124 1028 l 279 1046 l 279 646 m 424 100 q 547 166 504 100 q 589 367 589 232 q 551 569 589 506 q 438 633 513 633 q 349 604 390 633 q 279 528 308 575 l 279 185 q 424 100 335 100 z "},"c":{"ha":833,"x_min":115,"x_max":729,"o":"m 478 110 q 658 172 565 110 l 729 72 q 613 6 681 31 q 472 -18 544 -18 q 210 85 304 -18 q 115 363 115 189 q 158 563 115 475 q 283 702 201 651 q 475 753 364 753 q 729 664 621 753 l 657 567 q 478 628 568 628 q 333 562 386 628 q 281 363 281 496 q 333 171 281 232 q 478 110 386 110 z "},"ć":{"ha":833,"x_min":115,"x_max":729,"o":"m 478 110 q 658 172 565 110 l 729 72 q 613 6 681 31 q 472 -18 544 -18 q 210 85 304 -18 q 115 363 115 189 q 158 563 115 475 q 283 702 201 651 q 475 753 364 753 q 729 664 621 753 l 657 567 q 478 628 568 628 q 333 562 386 628 q 281 363 281 496 q 333 171 281 232 q 478 110 386 110 m 656 989 l 351 865 l 306 947 l 590 1113 l 656 989 z "},"č":{"ha":833,"x_min":115,"x_max":729,"o":"m 478 110 q 658 172 565 110 l 729 72 q 613 6 681 31 q 472 -18 544 -18 q 210 85 304 -18 q 115 363 115 189 q 158 563 115 475 q 283 702 201 651 q 475 753 364 753 q 729 664 621 753 l 657 567 q 478 628 568 628 q 333 562 386 628 q 281 363 281 496 q 333 171 281 232 q 478 110 386 110 m 718 1026 l 528 850 l 428 850 l 238 1026 l 301 1096 l 479 968 l 656 1096 l 718 1026 z "},"ç":{"ha":833,"x_min":115,"x_max":729,"o":"m 504 -75 q 605 -115 571 -81 q 639 -199 639 -149 q 586 -304 639 -265 q 454 -343 533 -343 q 371 -333 411 -343 q 303 -307 331 -324 l 344 -226 q 436 -250 392 -250 q 515 -197 515 -250 q 485 -154 515 -165 q 393 -143 456 -143 l 404 -14 q 191 107 267 7 q 115 363 115 207 q 158 563 115 475 q 283 702 201 651 q 475 753 364 753 q 729 664 621 753 l 657 567 q 478 628 568 628 q 333 562 386 628 q 281 363 281 496 q 333 171 281 232 q 478 110 386 110 q 658 172 565 110 l 729 72 q 627 11 686 35 q 504 -18 568 -12 l 504 -75 z "},"ĉ":{"ha":833,"x_min":115,"x_max":729,"o":"m 478 110 q 658 172 565 110 l 729 72 q 613 6 681 31 q 472 -18 544 -18 q 210 85 304 -18 q 115 363 115 189 q 158 563 115 475 q 283 702 201 651 q 475 753 364 753 q 729 664 621 753 l 657 567 q 478 628 568 628 q 333 562 386 628 q 281 363 281 496 q 333 171 281 232 q 478 110 386 110 m 238 919 l 428 1096 l 528 1096 l 718 919 l 656 850 l 479 978 l 301 850 l 238 919 z "},"ċ":{"ha":833,"x_min":115,"x_max":729,"o":"m 478 110 q 658 172 565 110 l 729 72 q 613 6 681 31 q 472 -18 544 -18 q 210 85 304 -18 q 115 363 115 189 q 158 563 115 475 q 283 702 201 651 q 475 753 364 753 q 729 664 621 753 l 657 567 q 478 628 568 628 q 333 562 386 628 q 281 363 281 496 q 333 171 281 232 q 478 110 386 110 m 476 1079 q 551 1051 522 1079 q 579 981 579 1022 q 551 911 579 939 q 476 883 522 883 q 403 911 432 883 q 375 981 375 939 q 403 1051 375 1022 q 476 1079 432 1079 z "},"d":{"ha":833,"x_min":79,"x_max":710,"o":"m 710 1028 l 710 0 l 572 0 l 561 90 q 472 10 525 38 q 356 -18 419 -18 q 149 85 218 -18 q 79 367 79 188 q 115 567 79 479 q 215 703 150 654 q 369 753 281 753 q 554 672 482 753 l 554 1046 l 710 1028 m 410 633 q 287 567 329 633 q 244 367 244 501 q 397 100 244 100 q 554 206 489 100 l 554 551 q 410 633 497 633 z "},"ð":{"ha":833,"x_min":79,"x_max":751,"o":"m 313 890 q 164 933 251 917 l 196 1044 q 401 983 314 1024 l 500 1086 l 588 1011 l 506 928 q 692 706 632 843 q 751 374 751 569 q 710 169 751 258 q 592 31 669 81 q 410 -18 514 -18 q 242 23 317 -18 q 123 142 167 64 q 79 326 79 219 q 119 504 79 426 q 228 625 160 582 q 375 668 296 668 q 491 647 440 668 q 582 582 542 625 q 414 835 542 743 l 317 735 l 213 785 l 313 890 m 594 365 q 592 460 594 399 q 512 528 560 504 q 406 553 464 553 q 285 497 332 553 q 238 331 238 440 q 284 159 238 218 q 410 100 331 100 q 547 167 499 100 q 594 365 594 235 z "},"ď":{"ha":833,"x_min":33,"x_max":894,"o":"m 664 1028 l 664 0 l 526 0 l 515 90 q 426 10 479 38 q 310 -18 374 -18 q 103 85 172 -18 q 33 367 33 188 q 69 567 33 479 q 169 703 104 654 q 324 753 235 753 q 508 672 436 753 l 508 1046 l 664 1028 m 364 633 q 241 567 283 633 q 199 367 199 501 q 351 100 199 100 q 508 206 443 100 l 508 551 q 364 633 451 633 m 894 1029 l 807 754 l 714 768 l 756 1047 l 894 1029 z "},"đ":{"ha":833,"x_min":72,"x_max":813,"o":"m 813 828 l 703 828 l 703 0 l 565 0 l 554 90 q 347 -18 476 -18 q 142 85 211 -18 q 72 367 72 188 q 107 567 72 479 q 207 703 142 654 q 361 753 272 753 q 547 672 475 753 l 547 828 l 335 828 l 335 935 l 547 935 l 547 1046 l 703 1028 l 703 935 l 813 935 l 813 828 m 547 551 q 403 633 488 633 q 279 567 322 633 q 236 367 236 501 q 389 100 236 100 q 547 206 479 100 l 547 551 z "},"e":{"ha":833,"x_min":92,"x_max":743,"o":"m 253 317 q 315 156 260 210 q 453 103 369 103 q 551 119 504 103 q 646 167 597 135 l 713 72 q 592 6 661 29 q 446 -18 522 -18 q 185 87 278 -18 q 92 367 92 192 q 132 565 92 476 q 249 703 172 653 q 426 753 325 753 q 658 655 572 753 q 743 386 743 557 q 739 317 743 344 l 253 317 m 428 638 q 306 583 353 638 q 251 422 258 529 l 592 422 q 547 582 589 526 q 428 638 506 638 z "},"é":{"ha":833,"x_min":92,"x_max":743,"o":"m 253 317 q 315 156 260 210 q 453 103 369 103 q 551 119 504 103 q 646 167 597 135 l 713 72 q 592 6 661 29 q 446 -18 522 -18 q 185 87 278 -18 q 92 367 92 192 q 132 565 92 476 q 249 703 172 653 q 426 753 325 753 q 658 655 572 753 q 743 386 743 557 q 739 317 743 344 l 253 317 m 428 638 q 306 583 353 638 q 251 422 258 529 l 592 422 q 547 582 589 526 q 428 638 506 638 m 607 1003 l 303 879 l 257 961 l 542 1126 l 607 1003 z "},"ĕ":{"ha":833,"x_min":92,"x_max":743,"o":"m 253 317 q 315 156 260 210 q 453 103 369 103 q 551 119 504 103 q 646 167 597 135 l 713 72 q 592 6 661 29 q 446 -18 522 -18 q 185 87 278 -18 q 92 367 92 192 q 132 565 92 476 q 249 703 172 653 q 426 753 325 753 q 658 655 572 753 q 743 386 743 557 q 739 317 743 344 l 253 317 m 428 638 q 306 583 353 638 q 251 422 258 529 l 592 422 q 547 582 589 526 q 428 638 506 638 m 428 865 q 276 928 332 865 q 210 1075 219 990 l 306 1093 q 350 1008 319 1039 q 428 978 381 978 q 506 1008 475 978 q 553 1093 538 1039 l 647 1075 q 615 974 642 1022 q 540 896 588 926 q 428 865 492 865 z "},"ě":{"ha":833,"x_min":92,"x_max":743,"o":"m 253 317 q 315 156 260 210 q 453 103 369 103 q 551 119 504 103 q 646 167 597 135 l 713 72 q 592 6 661 29 q 446 -18 522 -18 q 185 87 278 -18 q 92 367 92 192 q 132 565 92 476 q 249 703 172 653 q 426 753 325 753 q 658 655 572 753 q 743 386 743 557 q 739 317 743 344 l 253 317 m 428 638 q 306 583 353 638 q 251 422 258 529 l 592 422 q 547 582 589 526 q 428 638 506 638 m 669 1040 l 479 864 l 379 864 l 189 1040 l 253 1110 l 431 982 l 607 1110 l 669 1040 z "},"ê":{"ha":833,"x_min":92,"x_max":743,"o":"m 253 317 q 315 156 260 210 q 453 103 369 103 q 551 119 504 103 q 646 167 597 135 l 713 72 q 592 6 661 29 q 446 -18 522 -18 q 185 87 278 -18 q 92 367 92 192 q 132 565 92 476 q 249 703 172 653 q 426 753 325 753 q 658 655 572 753 q 743 386 743 557 q 739 317 743 344 l 253 317 m 428 638 q 306 583 353 638 q 251 422 258 529 l 592 422 q 547 582 589 526 q 428 638 506 638 m 189 933 l 379 1110 l 479 1110 l 669 933 l 607 864 l 431 992 l 253 864 l 189 933 z "},"ë":{"ha":833,"x_min":92,"x_max":743,"o":"m 253 317 q 315 156 260 210 q 453 103 369 103 q 551 119 504 103 q 646 167 597 135 l 713 72 q 592 6 661 29 q 446 -18 522 -18 q 185 87 278 -18 q 92 367 92 192 q 132 565 92 476 q 249 703 172 653 q 426 753 325 753 q 658 655 572 753 q 743 386 743 557 q 739 317 743 344 l 253 317 m 428 638 q 306 583 353 638 q 251 422 258 529 l 592 422 q 547 582 589 526 q 428 638 506 638 m 279 894 q 214 919 240 894 q 188 982 188 944 q 214 1046 188 1021 q 279 1071 240 1071 q 342 1046 317 1071 q 368 982 368 1021 q 342 919 368 944 q 279 894 317 894 m 579 894 q 515 919 542 894 q 489 982 489 944 q 515 1045 489 1019 q 579 1071 542 1071 q 644 1046 618 1071 q 669 982 669 1021 q 644 919 669 944 q 579 894 618 894 z "},"ė":{"ha":833,"x_min":92,"x_max":743,"o":"m 253 317 q 315 156 260 210 q 453 103 369 103 q 551 119 504 103 q 646 167 597 135 l 713 72 q 592 6 661 29 q 446 -18 522 -18 q 185 87 278 -18 q 92 367 92 192 q 132 565 92 476 q 249 703 172 653 q 426 753 325 753 q 658 655 572 753 q 743 386 743 557 q 739 317 743 344 l 253 317 m 428 638 q 306 583 353 638 q 251 422 258 529 l 592 422 q 547 582 589 526 q 428 638 506 638 m 428 1093 q 502 1065 474 1093 q 531 994 531 1036 q 502 925 531 953 q 428 897 474 897 q 355 925 383 897 q 326 994 326 953 q 355 1065 326 1036 q 428 1093 383 1093 z "},"è":{"ha":833,"x_min":92,"x_max":743,"o":"m 253 317 q 315 156 260 210 q 453 103 369 103 q 551 119 504 103 q 646 167 597 135 l 713 72 q 592 6 661 29 q 446 -18 522 -18 q 185 87 278 -18 q 92 367 92 192 q 132 565 92 476 q 249 703 172 653 q 426 753 325 753 q 658 655 572 753 q 743 386 743 557 q 739 317 743 344 l 253 317 m 428 638 q 306 583 353 638 q 251 422 258 529 l 592 422 q 547 582 589 526 q 428 638 506 638 m 257 993 l 329 1118 l 603 946 l 556 864 l 257 993 z "},"ē":{"ha":833,"x_min":92,"x_max":743,"o":"m 253 317 q 315 156 260 210 q 453 103 369 103 q 551 119 504 103 q 646 167 597 135 l 713 72 q 592 6 661 29 q 446 -18 522 -18 q 185 87 278 -18 q 92 367 92 192 q 132 565 92 476 q 249 703 172 653 q 426 753 325 753 q 658 655 572 753 q 743 386 743 557 q 739 317 743 344 l 253 317 m 428 638 q 306 583 353 638 q 251 422 258 529 l 592 422 q 547 582 589 526 q 428 638 506 638 m 232 929 l 232 1042 l 625 1042 l 625 929 l 232 929 z "},"ę":{"ha":833,"x_min":92,"x_max":743,"o":"m 743 386 q 739 317 743 344 l 253 317 q 315 156 260 210 q 453 103 369 103 q 551 119 504 103 q 646 167 597 135 l 713 72 q 569 -1 651 24 q 440 -77 475 -40 q 406 -157 406 -114 q 483 -224 406 -224 q 565 -214 522 -224 l 551 -321 q 465 -331 506 -331 q 332 -290 383 -331 q 281 -182 281 -249 q 401 -17 281 -78 q 173 101 254 -3 q 92 367 92 204 q 132 565 92 476 q 249 703 172 653 q 426 753 325 753 q 658 655 572 753 q 743 386 743 557 m 592 422 q 547 582 589 526 q 428 638 506 638 q 306 583 353 638 q 251 422 258 529 l 592 422 z "},"f":{"ha":833,"x_min":121,"x_max":789,"o":"m 569 1046 q 789 1003 689 1046 l 742 894 q 585 925 671 925 q 478 897 513 925 q 443 811 443 869 l 443 681 l 689 681 l 671 565 l 443 565 l 443 0 l 288 0 l 288 565 l 121 565 l 121 681 l 288 681 l 288 813 q 323 935 288 882 q 422 1017 358 988 q 569 1046 486 1046 z "},"g":{"ha":833,"x_min":74,"x_max":782,"o":"m 782 697 q 691 678 742 683 q 569 674 640 674 q 669 597 636 643 q 703 486 703 551 q 667 358 703 414 q 567 271 632 303 q 413 239 501 239 q 313 251 350 239 q 289 224 297 240 q 281 190 281 208 q 371 135 281 135 l 499 135 q 638 108 576 135 q 733 35 699 82 q 767 -69 767 -11 q 672 -240 767 -179 q 400 -300 578 -300 q 205 -274 276 -300 q 103 -199 133 -249 q 74 -72 74 -150 l 213 -72 q 228 -138 213 -114 q 285 -174 244 -162 q 401 -186 325 -186 q 561 -159 513 -186 q 610 -79 610 -132 q 572 -10 610 -35 q 468 14 533 14 l 342 14 q 192 54 243 14 q 142 156 142 94 q 163 228 142 193 q 222 288 183 263 q 127 372 157 322 q 97 493 97 421 q 136 628 97 569 q 244 720 175 688 q 403 753 314 753 q 592 769 522 751 q 742 826 663 788 l 782 697 m 404 644 q 293 603 331 644 q 256 493 256 563 q 294 381 256 422 q 406 340 332 340 q 511 381 475 340 q 547 496 547 421 q 404 644 547 644 z "},"ğ":{"ha":833,"x_min":74,"x_max":782,"o":"m 782 697 q 691 678 742 683 q 569 674 640 674 q 669 597 636 643 q 703 486 703 551 q 667 358 703 414 q 567 271 632 303 q 413 239 501 239 q 313 251 350 239 q 289 224 297 240 q 281 190 281 208 q 371 135 281 135 l 499 135 q 638 108 576 135 q 733 35 699 82 q 767 -69 767 -11 q 672 -240 767 -179 q 400 -300 578 -300 q 205 -274 276 -300 q 103 -199 133 -249 q 74 -72 74 -150 l 213 -72 q 228 -138 213 -114 q 285 -174 244 -162 q 401 -186 325 -186 q 561 -159 513 -186 q 610 -79 610 -132 q 572 -10 610 -35 q 468 14 533 14 l 342 14 q 192 54 243 14 q 142 156 142 94 q 163 228 142 193 q 222 288 183 263 q 127 372 157 322 q 97 493 97 421 q 136 628 97 569 q 244 720 175 688 q 403 753 314 753 q 592 769 522 751 q 742 826 663 788 l 782 697 m 404 644 q 293 603 331 644 q 256 493 256 563 q 294 381 256 422 q 406 340 332 340 q 511 381 475 340 q 547 496 547 421 q 404 644 547 644 m 410 865 q 258 928 314 865 q 192 1075 201 990 l 288 1093 q 332 1008 301 1039 q 410 978 363 978 q 488 1008 457 978 q 535 1093 519 1039 l 629 1075 q 597 974 624 1022 q 522 896 569 926 q 410 865 474 865 z "},"ĝ":{"ha":833,"x_min":74,"x_max":782,"o":"m 782 697 q 691 678 742 683 q 569 674 640 674 q 669 597 636 643 q 703 486 703 551 q 667 358 703 414 q 567 271 632 303 q 413 239 501 239 q 313 251 350 239 q 289 224 297 240 q 281 190 281 208 q 371 135 281 135 l 499 135 q 638 108 576 135 q 733 35 699 82 q 767 -69 767 -11 q 672 -240 767 -179 q 400 -300 578 -300 q 205 -274 276 -300 q 103 -199 133 -249 q 74 -72 74 -150 l 213 -72 q 228 -138 213 -114 q 285 -174 244 -162 q 401 -186 325 -186 q 561 -159 513 -186 q 610 -79 610 -132 q 572 -10 610 -35 q 468 14 533 14 l 342 14 q 192 54 243 14 q 142 156 142 94 q 163 228 142 193 q 222 288 183 263 q 127 372 157 322 q 97 493 97 421 q 136 628 97 569 q 244 720 175 688 q 403 753 314 753 q 592 769 522 751 q 742 826 663 788 l 782 697 m 404 644 q 293 603 331 644 q 256 493 256 563 q 294 381 256 422 q 406 340 332 340 q 511 381 475 340 q 547 496 547 421 q 404 644 547 644 m 171 933 l 361 1110 l 461 1110 l 651 933 l 589 864 l 413 992 l 235 864 l 171 933 z "},"ģ":{"ha":833,"x_min":74,"x_max":782,"o":"m 408 829 q 345 853 371 829 q 319 915 319 878 q 344 1006 319 954 l 414 1150 l 500 1150 l 460 988 q 496 915 496 961 q 471 854 496 879 q 408 829 446 829 m 782 697 q 691 678 742 683 q 569 674 640 674 q 669 597 636 643 q 703 486 703 551 q 667 358 703 414 q 567 271 632 303 q 413 239 501 239 q 313 251 350 239 q 289 224 297 240 q 281 190 281 208 q 371 135 281 135 l 499 135 q 638 108 576 135 q 733 35 699 82 q 767 -69 767 -11 q 672 -240 767 -179 q 400 -300 578 -300 q 205 -274 276 -300 q 103 -199 133 -249 q 74 -72 74 -150 l 213 -72 q 228 -138 213 -114 q 285 -174 244 -162 q 401 -186 325 -186 q 561 -159 513 -186 q 610 -79 610 -132 q 572 -10 610 -35 q 468 14 533 14 l 342 14 q 192 54 243 14 q 142 156 142 94 q 163 228 142 193 q 222 288 183 263 q 127 372 157 322 q 97 493 97 421 q 136 628 97 569 q 244 720 175 688 q 403 753 314 753 q 592 769 522 751 q 742 826 663 788 l 782 697 m 404 644 q 293 603 331 644 q 256 493 256 563 q 294 381 256 422 q 406 340 332 340 q 511 381 475 340 q 547 496 547 421 q 404 644 547 644 z "},"ġ":{"ha":833,"x_min":74,"x_max":782,"o":"m 782 697 q 691 678 742 683 q 569 674 640 674 q 669 597 636 643 q 703 486 703 551 q 667 358 703 414 q 567 271 632 303 q 413 239 501 239 q 313 251 350 239 q 289 224 297 240 q 281 190 281 208 q 371 135 281 135 l 499 135 q 638 108 576 135 q 733 35 699 82 q 767 -69 767 -11 q 672 -240 767 -179 q 400 -300 578 -300 q 205 -274 276 -300 q 103 -199 133 -249 q 74 -72 74 -150 l 213 -72 q 228 -138 213 -114 q 285 -174 244 -162 q 401 -186 325 -186 q 561 -159 513 -186 q 610 -79 610 -132 q 572 -10 610 -35 q 468 14 533 14 l 342 14 q 192 54 243 14 q 142 156 142 94 q 163 228 142 193 q 222 288 183 263 q 127 372 157 322 q 97 493 97 421 q 136 628 97 569 q 244 720 175 688 q 403 753 314 753 q 592 769 522 751 q 742 826 663 788 l 782 697 m 404 644 q 293 603 331 644 q 256 493 256 563 q 294 381 256 422 q 406 340 332 340 q 511 381 475 340 q 547 496 547 421 q 404 644 547 644 m 410 1093 q 484 1065 456 1093 q 513 994 513 1036 q 484 925 513 953 q 410 897 456 897 q 337 925 365 897 q 308 994 308 953 q 337 1065 308 1036 q 410 1093 365 1093 z "},"h":{"ha":833,"x_min":124,"x_max":711,"o":"m 279 643 q 383 725 324 697 q 507 753 442 753 q 660 697 608 753 q 711 535 711 640 l 711 0 l 556 0 l 556 511 q 531 605 556 576 q 450 633 506 633 q 356 602 401 633 q 279 525 311 571 l 279 0 l 124 0 l 124 1026 l 279 1043 l 279 643 z "},"ħ":{"ha":833,"x_min":21,"x_max":711,"o":"m 507 753 q 660 697 608 753 q 711 535 711 640 l 711 0 l 556 0 l 556 511 q 531 605 556 576 q 450 633 506 633 q 356 602 401 633 q 279 525 311 571 l 279 0 l 124 0 l 124 828 l 21 828 l 21 935 l 124 935 l 124 1026 l 279 1043 l 279 935 l 499 935 l 499 828 l 279 828 l 279 643 q 383 725 324 697 q 507 753 442 753 z "},"ĥ":{"ha":833,"x_min":124,"x_max":711,"o":"m 279 643 q 383 725 324 697 q 507 753 442 753 q 660 697 608 753 q 711 535 711 640 l 711 0 l 556 0 l 556 511 q 531 605 556 576 q 450 633 506 633 q 356 602 401 633 q 279 525 311 571 l 279 0 l 124 0 l 124 1026 l 279 1043 l 279 643 m 657 1190 l 596 1119 l 417 1233 l 239 1119 l 176 1190 l 367 1351 l 467 1351 l 657 1190 z "},"i":{"ha":833,"x_min":150,"x_max":724,"o":"m 417 1093 q 490 1065 461 1093 q 518 994 518 1036 q 490 925 518 953 q 417 897 461 897 q 343 925 371 897 q 315 994 315 953 q 344 1065 315 1038 q 417 1093 372 1093 m 524 114 l 724 114 l 724 0 l 150 0 l 150 114 l 368 114 l 368 619 l 157 619 l 157 733 l 524 733 l 524 114 z "},"ı":{"ha":833,"x_min":150,"x_max":724,"o":"m 524 114 l 724 114 l 724 0 l 150 0 l 150 114 l 368 114 l 368 619 l 157 619 l 157 733 l 524 733 l 524 114 z "},"í":{"ha":833,"x_min":150,"x_max":724,"o":"m 524 114 l 724 114 l 724 0 l 150 0 l 150 114 l 368 114 l 368 619 l 157 619 l 157 733 l 524 733 l 524 114 m 594 1003 l 290 879 l 244 961 l 529 1126 l 594 1003 z "},"ĭ":{"ha":833,"x_min":150,"x_max":724,"o":"m 524 114 l 724 114 l 724 0 l 150 0 l 150 114 l 368 114 l 368 619 l 157 619 l 157 733 l 524 733 l 524 114 m 415 865 q 263 928 319 865 q 197 1075 207 990 l 293 1093 q 338 1008 307 1039 q 415 978 368 978 q 494 1008 463 978 q 540 1093 525 1039 l 635 1075 q 602 974 629 1022 q 527 896 575 926 q 415 865 479 865 z "},"î":{"ha":833,"x_min":150,"x_max":724,"o":"m 524 114 l 724 114 l 724 0 l 150 0 l 150 114 l 368 114 l 368 619 l 157 619 l 157 733 l 524 733 l 524 114 m 176 933 l 367 1110 l 467 1110 l 657 933 l 594 864 l 418 992 l 240 864 l 176 933 z "},"ï":{"ha":833,"x_min":150,"x_max":724,"o":"m 524 114 l 724 114 l 724 0 l 150 0 l 150 114 l 368 114 l 368 619 l 157 619 l 157 733 l 524 733 l 524 114 m 267 894 q 201 919 228 894 q 175 982 175 944 q 201 1046 175 1021 q 267 1071 228 1071 q 330 1046 304 1071 q 356 982 356 1021 q 330 919 356 944 q 267 894 304 894 m 567 894 q 503 919 529 894 q 476 982 476 944 q 503 1045 476 1019 q 567 1071 529 1071 q 631 1046 606 1071 q 657 982 657 1021 q 631 919 657 944 q 567 894 606 894 z "},"ì":{"ha":833,"x_min":150,"x_max":724,"o":"m 524 114 l 724 114 l 724 0 l 150 0 l 150 114 l 368 114 l 368 619 l 157 619 l 157 733 l 524 733 l 524 114 m 244 993 l 317 1118 l 590 946 l 543 864 l 244 993 z "},"ĳ":{"ha":833,"x_min":60,"x_max":729,"o":"m 254 1093 q 329 1065 300 1093 q 358 994 358 1036 q 329 925 358 953 q 254 897 300 897 q 182 925 210 897 q 154 994 154 953 q 182 1065 154 1036 q 254 1093 210 1093 m 626 1093 q 700 1065 671 1093 q 729 994 729 1036 q 700 925 729 953 q 626 897 671 897 q 553 925 582 897 q 525 994 525 953 q 553 1065 525 1036 q 626 1093 582 1093 m 718 111 q 622 -148 718 -54 q 340 -300 525 -242 l 292 -182 q 437 -118 379 -151 q 530 -31 494 -85 q 565 100 565 22 l 565 622 l 329 622 l 329 114 l 439 114 l 439 0 l 60 0 l 60 114 l 178 114 l 178 622 l 67 622 l 67 733 l 718 733 l 718 111 z "},"ī":{"ha":833,"x_min":150,"x_max":724,"o":"m 524 114 l 724 114 l 724 0 l 150 0 l 150 114 l 368 114 l 368 619 l 157 619 l 157 733 l 524 733 l 524 114 m 219 929 l 219 1042 l 613 1042 l 613 929 l 219 929 z "},"į":{"ha":833,"x_min":150,"x_max":724,"o":"m 415 897 q 342 925 371 897 q 314 994 314 953 q 342 1065 314 1036 q 415 1093 371 1093 q 490 1065 461 1093 q 518 994 518 1036 q 490 925 518 953 q 415 897 461 897 m 724 114 l 724 0 l 524 0 q 392 -76 428 -39 q 357 -157 357 -112 q 435 -224 357 -224 q 517 -214 474 -224 l 503 -321 q 417 -331 457 -331 q 283 -290 335 -331 q 232 -182 232 -249 q 265 -78 232 -122 q 364 0 297 -35 l 150 0 l 150 114 l 368 114 l 368 619 l 157 619 l 157 733 l 524 733 l 524 114 l 724 114 z "},"ĩ":{"ha":833,"x_min":150,"x_max":724,"o":"m 524 114 l 724 114 l 724 0 l 150 0 l 150 114 l 368 114 l 368 619 l 157 619 l 157 733 l 524 733 l 524 114 m 496 903 q 447 913 468 903 q 399 940 425 922 q 365 962 378 956 q 336 968 351 968 q 297 953 313 968 q 263 904 281 938 l 175 947 q 243 1046 203 1008 q 335 1083 283 1083 q 387 1073 364 1083 q 435 1044 410 1063 q 467 1024 454 1031 q 496 1017 481 1017 q 533 1031 517 1017 q 569 1078 550 1046 l 657 1035 q 588 937 629 971 q 496 903 547 903 z "},"j":{"ha":833,"x_min":119,"x_max":632,"o":"m 511 1093 q 585 1065 557 1093 q 613 994 613 1038 q 585 925 613 953 q 511 897 557 897 q 438 925 467 897 q 410 994 410 953 q 438 1065 410 1036 q 511 1093 467 1093 m 632 154 q 511 -150 632 -44 q 144 -300 390 -256 l 119 -181 q 387 -74 297 -147 q 476 144 476 0 l 476 619 l 188 619 l 188 733 l 632 733 l 632 154 z "},"ȷ":{"ha":833,"x_min":119,"x_max":632,"o":"m 632 154 q 511 -150 632 -44 q 144 -300 390 -256 l 119 -181 q 387 -74 297 -147 q 476 144 476 0 l 476 619 l 188 619 l 188 733 l 632 733 l 632 154 z "},"ĵ":{"ha":833,"x_min":119,"x_max":753,"o":"m 632 154 q 511 -150 632 -44 q 144 -300 390 -256 l 119 -181 q 387 -74 297 -147 q 476 144 476 0 l 476 619 l 188 619 l 188 733 l 632 733 l 632 154 m 272 933 l 463 1110 l 563 1110 l 753 933 l 690 864 l 514 992 l 336 864 l 272 933 z "},"k":{"ha":833,"x_min":128,"x_max":800,"o":"m 283 0 l 128 0 l 128 1028 l 283 1046 l 283 0 m 474 406 l 800 0 l 610 0 l 294 401 l 589 733 l 769 733 l 474 406 z "},"ķ":{"ha":833,"x_min":128,"x_max":800,"o":"m 283 0 l 128 0 l 128 1028 l 283 1046 l 283 0 m 474 406 l 800 0 l 610 0 l 294 401 l 589 733 l 769 733 l 474 406 m 424 -96 q 487 -120 461 -96 q 513 -182 513 -144 q 488 -272 513 -221 l 418 -417 l 332 -417 l 372 -254 q 336 -182 336 -228 q 361 -121 336 -146 q 424 -96 386 -96 z "},"ĸ":{"ha":833,"x_min":124,"x_max":796,"o":"m 279 0 l 124 0 l 124 733 l 279 733 l 279 0 m 465 400 l 796 0 l 606 0 l 290 389 l 583 733 l 764 733 l 465 400 z "},"l":{"ha":833,"x_min":69,"x_max":713,"o":"m 446 200 q 557 107 446 107 q 674 132 613 107 l 713 24 q 524 -18 636 -18 q 352 44 414 -18 q 290 214 290 106 l 290 914 l 69 914 l 69 1028 l 446 1028 l 446 200 z "},"ĺ":{"ha":833,"x_min":69,"x_max":713,"o":"m 446 200 q 557 107 446 107 q 674 132 613 107 l 713 24 q 524 -18 636 -18 q 352 44 414 -18 q 290 214 290 106 l 290 914 l 69 914 l 69 1028 l 446 1028 l 446 200 m 542 1297 l 238 1174 l 192 1256 l 476 1421 l 542 1297 z "},"ľ":{"ha":833,"x_min":69,"x_max":713,"o":"m 446 200 q 557 107 446 107 q 674 132 613 107 l 713 24 q 524 -18 636 -18 q 352 44 414 -18 q 290 214 290 106 l 290 914 l 69 914 l 69 1028 l 446 1028 l 446 200 m 689 1029 l 601 754 l 508 768 l 550 1047 l 689 1029 z "},"ļ":{"ha":833,"x_min":69,"x_max":713,"o":"m 446 200 q 557 107 446 107 q 674 132 613 107 l 713 24 q 524 -18 636 -18 q 352 44 414 -18 q 290 214 290 106 l 290 914 l 69 914 l 69 1028 l 446 1028 l 446 200 m 500 -96 q 563 -120 538 -96 q 589 -182 589 -144 q 564 -272 589 -221 l 494 -417 l 408 -417 l 449 -254 q 413 -182 413 -228 q 438 -121 413 -146 q 500 -96 463 -96 z "},"ŀ":{"ha":833,"x_min":69,"x_max":885,"o":"m 446 200 q 557 107 446 107 q 674 132 613 107 l 713 24 q 524 -18 636 -18 q 352 44 414 -18 q 290 214 290 106 l 290 914 l 69 914 l 69 1028 l 446 1028 l 446 200 m 782 629 q 856 601 828 629 q 885 531 885 572 q 856 461 885 489 q 782 433 828 433 q 709 461 738 433 q 681 531 681 489 q 709 601 681 572 q 782 629 738 629 z "},"ł":{"ha":833,"x_min":69,"x_max":713,"o":"m 713 24 q 524 -18 636 -18 q 352 44 414 -18 q 290 214 290 106 l 290 400 l 208 350 l 149 443 l 290 529 l 290 914 l 69 914 l 69 1028 l 446 1028 l 446 625 l 557 694 l 618 600 l 446 494 l 446 200 q 557 107 446 107 q 674 132 613 107 l 713 24 z "},"m":{"ha":833,"x_min":58,"x_max":775,"o":"m 629 753 q 736 706 697 753 q 775 544 775 658 l 775 0 l 638 0 l 638 524 q 628 608 638 585 q 589 632 619 632 q 481 558 531 632 l 481 0 l 354 0 l 354 524 q 345 608 354 585 q 306 632 336 632 q 197 558 247 632 l 197 0 l 58 0 l 58 733 l 175 733 l 186 654 q 257 728 221 703 q 343 753 293 753 q 468 660 440 753 q 540 728 501 704 q 629 753 579 753 z "},"n":{"ha":833,"x_min":124,"x_max":711,"o":"m 124 733 l 258 733 l 269 638 q 377 723 315 693 q 507 753 439 753 q 660 696 608 753 q 711 535 711 639 l 711 0 l 556 0 l 556 457 q 548 562 556 525 q 518 616 540 599 q 451 633 496 633 q 356 603 401 633 q 279 526 311 572 l 279 0 l 124 0 l 124 733 z "},"ń":{"ha":833,"x_min":124,"x_max":711,"o":"m 124 733 l 258 733 l 269 638 q 377 723 315 693 q 507 753 439 753 q 660 696 608 753 q 711 535 711 639 l 711 0 l 556 0 l 556 457 q 548 562 556 525 q 518 616 540 599 q 451 633 496 633 q 356 603 401 633 q 279 526 311 572 l 279 0 l 124 0 l 124 733 m 594 1003 l 290 879 l 244 961 l 529 1126 l 594 1003 z "},"ŉ":{"ha":833,"x_min":-3,"x_max":729,"o":"m 86 1050 q 148 1026 122 1050 q 174 965 174 1001 q 167 923 174 944 q 139 860 160 901 l 82 742 l -3 742 l 35 893 q -3 965 -3 924 q 23 1026 -3 1001 q 86 1050 49 1050 m 142 733 l 276 733 l 288 638 q 395 723 333 693 q 524 753 457 753 q 677 696 625 753 q 729 535 729 639 l 729 0 l 574 0 l 574 457 q 566 562 574 525 q 535 616 558 599 q 468 633 513 633 q 374 603 418 633 q 297 526 329 572 l 297 0 l 142 0 l 142 733 z "},"ň":{"ha":833,"x_min":124,"x_max":711,"o":"m 124 733 l 258 733 l 269 638 q 377 723 315 693 q 507 753 439 753 q 660 696 608 753 q 711 535 711 639 l 711 0 l 556 0 l 556 457 q 548 562 556 525 q 518 616 540 599 q 451 633 496 633 q 356 603 401 633 q 279 526 311 572 l 279 0 l 124 0 l 124 733 m 657 1040 l 467 864 l 367 864 l 176 1040 l 240 1110 l 418 982 l 594 1110 l 657 1040 z "},"ņ":{"ha":833,"x_min":124,"x_max":711,"o":"m 124 733 l 258 733 l 269 638 q 377 723 315 693 q 507 753 439 753 q 660 696 608 753 q 711 535 711 639 l 711 0 l 556 0 l 556 457 q 548 562 556 525 q 518 616 540 599 q 451 633 496 633 q 356 603 401 633 q 279 526 311 572 l 279 0 l 124 0 l 124 733 m 421 -96 q 484 -120 458 -96 q 510 -182 510 -144 q 485 -272 510 -221 l 415 -417 l 329 -417 l 369 -254 q 333 -182 333 -228 q 358 -121 333 -146 q 421 -96 383 -96 z "},"ŋ":{"ha":833,"x_min":124,"x_max":711,"o":"m 711 57 q 683 -115 711 -50 q 605 -221 656 -181 q 467 -299 554 -261 l 410 -185 q 494 -136 464 -160 q 540 -69 524 -112 q 556 46 556 -26 l 556 457 q 548 563 556 526 q 518 616 540 599 q 450 633 496 633 q 356 602 401 633 q 279 525 311 571 l 279 0 l 124 0 l 124 733 l 258 733 l 269 638 q 377 723 314 693 q 507 753 440 753 q 660 697 608 753 q 711 535 711 640 l 711 57 z "},"ñ":{"ha":833,"x_min":124,"x_max":711,"o":"m 124 733 l 258 733 l 269 638 q 377 723 315 693 q 507 753 439 753 q 660 696 608 753 q 711 535 711 639 l 711 0 l 556 0 l 556 457 q 548 562 556 525 q 518 616 540 599 q 451 633 496 633 q 356 603 401 633 q 279 526 311 572 l 279 0 l 124 0 l 124 733 m 496 903 q 447 913 468 903 q 399 940 425 922 q 365 962 378 956 q 336 968 351 968 q 297 953 313 968 q 263 904 281 938 l 175 947 q 243 1046 203 1008 q 335 1083 283 1083 q 387 1073 364 1083 q 435 1044 410 1063 q 467 1024 454 1031 q 496 1017 481 1017 q 533 1031 517 1017 q 569 1078 550 1046 l 657 1035 q 588 937 629 971 q 496 903 547 903 z "},"o":{"ha":833,"x_min":85,"x_max":749,"o":"m 418 753 q 663 649 576 753 q 749 368 749 546 q 661 86 749 190 q 417 -18 574 -18 q 172 84 258 -18 q 85 367 85 186 q 173 647 85 542 q 418 753 261 753 m 418 632 q 291 567 333 632 q 249 367 249 501 q 290 166 249 231 q 417 101 332 101 q 543 167 501 101 q 585 368 585 232 q 543 567 585 503 q 418 632 501 632 z "},"ó":{"ha":833,"x_min":85,"x_max":749,"o":"m 418 753 q 663 649 576 753 q 749 368 749 546 q 661 86 749 190 q 417 -18 574 -18 q 172 84 258 -18 q 85 367 85 186 q 173 647 85 542 q 418 753 261 753 m 418 632 q 291 567 333 632 q 249 367 249 501 q 290 166 249 231 q 417 101 332 101 q 543 167 501 101 q 585 368 585 232 q 543 567 585 503 q 418 632 501 632 m 594 1003 l 290 879 l 244 961 l 529 1126 l 594 1003 z "},"ŏ":{"ha":833,"x_min":85,"x_max":749,"o":"m 418 753 q 663 649 576 753 q 749 368 749 546 q 661 86 749 190 q 417 -18 574 -18 q 172 84 258 -18 q 85 367 85 186 q 173 647 85 542 q 418 753 261 753 m 418 632 q 291 567 333 632 q 249 367 249 501 q 290 166 249 231 q 417 101 332 101 q 543 167 501 101 q 585 368 585 232 q 543 567 585 503 q 418 632 501 632 m 415 865 q 263 928 319 865 q 197 1075 207 990 l 293 1093 q 338 1008 307 1039 q 415 978 368 978 q 494 1008 463 978 q 540 1093 525 1039 l 635 1075 q 602 974 629 1022 q 527 896 575 926 q 415 865 479 865 z "},"ô":{"ha":833,"x_min":85,"x_max":749,"o":"m 418 753 q 663 649 576 753 q 749 368 749 546 q 661 86 749 190 q 417 -18 574 -18 q 172 84 258 -18 q 85 367 85 186 q 173 647 85 542 q 418 753 261 753 m 418 632 q 291 567 333 632 q 249 367 249 501 q 290 166 249 231 q 417 101 332 101 q 543 167 501 101 q 585 368 585 232 q 543 567 585 503 q 418 632 501 632 m 176 933 l 367 1110 l 467 1110 l 657 933 l 594 864 l 418 992 l 240 864 l 176 933 z "},"ö":{"ha":833,"x_min":85,"x_max":749,"o":"m 418 753 q 663 649 576 753 q 749 368 749 546 q 661 86 749 190 q 417 -18 574 -18 q 172 84 258 -18 q 85 367 85 186 q 173 647 85 542 q 418 753 261 753 m 418 632 q 291 567 333 632 q 249 367 249 501 q 290 166 249 231 q 417 101 332 101 q 543 167 501 101 q 585 368 585 232 q 543 567 585 503 q 418 632 501 632 m 267 894 q 201 919 228 894 q 175 982 175 944 q 201 1046 175 1021 q 267 1071 228 1071 q 330 1046 304 1071 q 356 982 356 1021 q 330 919 356 944 q 267 894 304 894 m 567 894 q 503 919 529 894 q 476 982 476 944 q 503 1045 476 1019 q 567 1071 529 1071 q 631 1046 606 1071 q 657 982 657 1021 q 631 919 657 944 q 567 894 606 894 z "},"ò":{"ha":833,"x_min":85,"x_max":749,"o":"m 418 753 q 663 649 576 753 q 749 368 749 546 q 661 86 749 190 q 417 -18 574 -18 q 172 84 258 -18 q 85 367 85 186 q 173 647 85 542 q 418 753 261 753 m 418 632 q 291 567 333 632 q 249 367 249 501 q 290 166 249 231 q 417 101 332 101 q 543 167 501 101 q 585 368 585 232 q 543 567 585 503 q 418 632 501 632 m 244 993 l 317 1118 l 590 946 l 543 864 l 244 993 z "},"ő":{"ha":833,"x_min":85,"x_max":749,"o":"m 418 753 q 663 649 576 753 q 749 368 749 546 q 661 86 749 190 q 417 -18 574 -18 q 172 84 258 -18 q 85 367 85 186 q 173 647 85 542 q 418 753 261 753 m 418 632 q 291 567 333 632 q 249 367 249 501 q 290 166 249 231 q 417 101 332 101 q 543 167 501 101 q 585 368 585 232 q 543 567 585 503 q 418 632 501 632 m 356 1172 l 476 1115 l 326 878 l 236 919 l 356 1172 m 592 1172 l 711 1111 l 551 875 l 464 919 l 592 1172 z "},"ō":{"ha":833,"x_min":85,"x_max":749,"o":"m 418 753 q 663 649 576 753 q 749 368 749 546 q 661 86 749 190 q 417 -18 574 -18 q 172 84 258 -18 q 85 367 85 186 q 173 647 85 542 q 418 753 261 753 m 418 632 q 291 567 333 632 q 249 367 249 501 q 290 166 249 231 q 417 101 332 101 q 543 167 501 101 q 585 368 585 232 q 543 567 585 503 q 418 632 501 632 m 219 929 l 219 1042 l 613 1042 l 613 929 l 219 929 z "},"ø":{"ha":833,"x_min":85,"x_max":749,"o":"m 593 707 q 708 573 668 660 q 749 368 749 486 q 661 86 749 190 q 417 -18 574 -18 q 357 -14 386 -18 l 306 -185 l 185 -149 l 242 26 q 126 160 167 72 q 85 367 85 247 q 173 647 85 542 q 418 753 261 753 q 476 749 447 753 l 529 913 l 650 878 l 593 707 m 418 633 q 290 568 332 633 q 247 367 247 503 q 301 142 247 203 l 454 631 q 418 633 432 633 m 417 100 q 544 165 503 100 q 586 368 586 231 q 533 590 586 532 l 381 103 q 417 100 403 100 z "},"ǿ":{"ha":833,"x_min":85,"x_max":749,"o":"m 593 707 q 708 573 668 660 q 749 368 749 486 q 661 86 749 190 q 417 -18 574 -18 q 357 -14 386 -18 l 306 -185 l 185 -149 l 242 26 q 126 160 167 72 q 85 367 85 247 q 173 647 85 542 q 418 753 261 753 q 476 749 447 753 l 529 913 l 650 878 l 593 707 m 418 633 q 290 568 332 633 q 247 367 247 503 q 301 142 247 203 l 454 631 q 418 633 432 633 m 417 100 q 544 165 503 100 q 586 368 586 231 q 533 590 586 532 l 381 103 q 417 100 403 100 m 594 1003 l 290 879 l 244 961 l 529 1126 l 594 1003 z "},"õ":{"ha":833,"x_min":85,"x_max":749,"o":"m 418 753 q 663 649 576 753 q 749 368 749 546 q 661 86 749 190 q 417 -18 574 -18 q 172 84 258 -18 q 85 367 85 186 q 173 647 85 542 q 418 753 261 753 m 418 632 q 291 567 333 632 q 249 367 249 501 q 290 166 249 231 q 417 101 332 101 q 543 167 501 101 q 585 368 585 232 q 543 567 585 503 q 418 632 501 632 m 496 903 q 447 913 468 903 q 399 940 425 922 q 365 962 378 956 q 336 968 351 968 q 297 953 313 968 q 263 904 281 938 l 175 947 q 243 1046 203 1008 q 335 1083 283 1083 q 387 1073 364 1083 q 435 1044 410 1063 q 467 1024 454 1031 q 496 1017 481 1017 q 533 1031 517 1017 q 569 1078 550 1046 l 657 1035 q 588 937 629 971 q 496 903 547 903 z "},"œ":{"ha":833,"x_min":-6,"x_max":850,"o":"m 618 753 q 794 659 739 753 q 850 386 850 565 q 846 319 850 349 l 496 319 q 540 150 506 203 q 640 97 574 97 q 703 110 675 97 q 767 149 732 122 l 832 57 q 740 1 788 19 q 635 -18 693 -18 q 425 111 488 -18 q 354 15 399 49 q 236 -18 310 -18 q 54 83 114 -18 q -6 367 -6 183 q 54 650 -6 547 q 236 753 114 753 q 358 719 314 753 q 428 619 403 685 q 618 753 485 753 m 613 640 q 530 591 557 640 q 496 422 503 542 l 717 422 q 692 588 714 536 q 613 640 669 640 m 249 633 q 165 570 190 633 q 140 367 140 507 q 165 163 140 224 q 249 101 189 101 q 312 127 289 101 q 345 210 335 153 q 356 368 356 268 q 331 571 356 508 q 249 633 307 633 z "},"p":{"ha":833,"x_min":124,"x_max":749,"o":"m 482 753 q 749 368 749 753 q 675 88 749 194 q 465 -18 601 -18 q 279 63 350 -18 l 279 -282 l 124 -300 l 124 733 l 258 733 l 268 639 q 365 724 310 694 q 482 753 419 753 m 439 633 q 350 604 390 633 q 279 528 310 575 l 279 185 q 424 103 333 103 q 544 167 504 103 q 585 367 585 231 q 549 570 585 507 q 439 633 513 633 z "},"þ":{"ha":833,"x_min":124,"x_max":749,"o":"m 279 649 q 369 726 317 699 q 482 753 422 753 q 749 368 749 753 q 675 88 749 194 q 465 -18 601 -18 q 279 63 350 -18 l 279 -282 l 124 -300 l 124 1028 l 279 1046 l 279 649 m 439 633 q 350 604 390 633 q 279 528 310 575 l 279 185 q 424 103 333 103 q 544 167 504 103 q 585 367 585 231 q 549 570 585 507 q 439 633 513 633 z "},"q":{"ha":833,"x_min":85,"x_max":710,"o":"m 371 753 q 565 661 493 753 l 575 733 l 710 733 l 710 -300 l 554 -282 l 554 81 q 354 -18 479 -18 q 150 83 215 -18 q 85 367 85 183 q 160 646 85 539 q 371 753 236 753 m 410 633 q 249 367 249 633 q 285 166 249 229 q 396 103 322 103 q 485 131 446 103 q 554 206 525 158 l 554 551 q 410 633 499 633 z "},"r":{"ha":833,"x_min":131,"x_max":754,"o":"m 643 751 q 754 733 700 751 l 728 463 l 617 463 l 617 613 q 484 551 540 611 q 394 383 428 492 l 394 111 l 542 111 l 542 0 l 131 0 l 131 111 l 239 111 l 239 622 l 131 622 l 131 733 l 357 733 l 385 564 q 490 705 428 658 q 643 751 551 751 z "},"ŕ":{"ha":833,"x_min":131,"x_max":754,"o":"m 643 751 q 754 733 700 751 l 728 463 l 617 463 l 617 613 q 484 551 540 611 q 394 383 428 492 l 394 111 l 542 111 l 542 0 l 131 0 l 131 111 l 239 111 l 239 622 l 131 622 l 131 733 l 357 733 l 385 564 q 490 705 428 658 q 643 751 551 751 m 635 1003 l 331 879 l 285 961 l 569 1126 l 635 1003 z "},"ř":{"ha":833,"x_min":131,"x_max":754,"o":"m 643 751 q 754 733 700 751 l 728 463 l 617 463 l 617 613 q 484 551 540 611 q 394 383 428 492 l 394 111 l 542 111 l 542 0 l 131 0 l 131 111 l 239 111 l 239 622 l 131 622 l 131 733 l 357 733 l 385 564 q 490 705 428 658 q 643 751 551 751 m 697 1040 l 507 864 l 407 864 l 217 1040 l 281 1110 l 458 982 l 635 1110 l 697 1040 z "},"ŗ":{"ha":833,"x_min":131,"x_max":754,"o":"m 643 751 q 754 733 700 751 l 728 463 l 617 463 l 617 613 q 484 551 540 611 q 394 383 428 492 l 394 111 l 542 111 l 542 0 l 131 0 l 131 111 l 239 111 l 239 622 l 131 622 l 131 733 l 357 733 l 385 564 q 490 705 428 658 q 643 751 551 751 m 318 -96 q 381 -120 356 -96 q 407 -182 407 -144 q 382 -272 407 -221 l 313 -417 l 226 -417 l 267 -254 q 231 -182 231 -228 q 256 -121 231 -146 q 318 -96 281 -96 z "},"s":{"ha":833,"x_min":89,"x_max":714,"o":"m 390 100 q 506 126 464 100 q 549 199 549 153 q 536 251 549 231 q 486 288 524 271 q 374 325 449 306 q 192 403 253 356 q 132 542 132 451 q 211 695 132 638 q 425 753 290 753 q 704 668 588 753 l 638 569 q 429 635 539 635 q 290 554 290 635 q 306 508 290 526 q 361 474 322 490 q 476 438 400 458 q 655 356 596 404 q 714 210 714 307 q 621 40 714 97 q 390 -18 528 -18 q 89 85 208 -18 l 171 179 q 273 122 217 143 q 390 100 329 100 z "},"ś":{"ha":833,"x_min":89,"x_max":714,"o":"m 390 100 q 506 126 464 100 q 549 199 549 153 q 536 251 549 231 q 486 288 524 271 q 374 325 449 306 q 192 403 253 356 q 132 542 132 451 q 211 695 132 638 q 425 753 290 753 q 704 668 588 753 l 638 569 q 429 635 539 635 q 290 554 290 635 q 306 508 290 526 q 361 474 322 490 q 476 438 400 458 q 655 356 596 404 q 714 210 714 307 q 621 40 714 97 q 390 -18 528 -18 q 89 85 208 -18 l 171 179 q 273 122 217 143 q 390 100 329 100 m 607 1003 l 303 879 l 257 961 l 542 1126 l 607 1003 z "},"š":{"ha":833,"x_min":89,"x_max":714,"o":"m 390 100 q 506 126 464 100 q 549 199 549 153 q 536 251 549 231 q 486 288 524 271 q 374 325 449 306 q 192 403 253 356 q 132 542 132 451 q 211 695 132 638 q 425 753 290 753 q 704 668 588 753 l 638 569 q 429 635 539 635 q 290 554 290 635 q 306 508 290 526 q 361 474 322 490 q 476 438 400 458 q 655 356 596 404 q 714 210 714 307 q 621 40 714 97 q 390 -18 528 -18 q 89 85 208 -18 l 171 179 q 273 122 217 143 q 390 100 329 100 m 669 1040 l 479 864 l 379 864 l 189 1040 l 253 1110 l 431 982 l 607 1110 l 669 1040 z "},"ş":{"ha":833,"x_min":89,"x_max":714,"o":"m 714 210 q 639 53 714 110 q 447 -17 564 -4 l 447 -75 q 548 -115 514 -81 q 582 -199 582 -149 q 529 -304 582 -265 q 397 -343 476 -343 q 314 -333 354 -343 q 246 -307 274 -324 l 288 -226 q 379 -250 335 -250 q 458 -197 458 -250 q 428 -154 458 -165 q 336 -143 399 -143 l 347 -17 q 89 85 190 -6 l 171 179 q 273 122 217 143 q 390 100 329 100 q 506 126 464 100 q 549 199 549 153 q 536 251 549 231 q 486 288 524 271 q 374 325 449 306 q 192 403 253 356 q 132 542 132 451 q 211 695 132 638 q 425 753 290 753 q 704 668 588 753 l 638 569 q 429 635 539 635 q 290 554 290 635 q 306 508 290 526 q 361 474 322 490 q 476 438 400 458 q 655 356 596 404 q 714 210 714 307 z "},"ŝ":{"ha":833,"x_min":89,"x_max":714,"o":"m 390 100 q 506 126 464 100 q 549 199 549 153 q 536 251 549 231 q 486 288 524 271 q 374 325 449 306 q 192 403 253 356 q 132 542 132 451 q 211 695 132 638 q 425 753 290 753 q 704 668 588 753 l 638 569 q 429 635 539 635 q 290 554 290 635 q 306 508 290 526 q 361 474 322 490 q 476 438 400 458 q 655 356 596 404 q 714 210 714 307 q 621 40 714 97 q 390 -18 528 -18 q 89 85 208 -18 l 171 179 q 273 122 217 143 q 390 100 329 100 m 189 933 l 379 1110 l 479 1110 l 669 933 l 607 864 l 431 992 l 253 864 l 189 933 z "},"ș":{"ha":833,"x_min":89,"x_max":714,"o":"m 390 100 q 506 126 464 100 q 549 199 549 153 q 536 251 549 231 q 486 288 524 271 q 374 325 449 306 q 192 403 253 356 q 132 542 132 451 q 211 695 132 638 q 425 753 290 753 q 704 668 588 753 l 638 569 q 429 635 539 635 q 290 554 290 635 q 306 508 290 526 q 361 474 322 490 q 476 438 400 458 q 655 356 596 404 q 714 210 714 307 q 621 40 714 97 q 390 -18 528 -18 q 89 85 208 -18 l 171 179 q 273 122 217 143 q 390 100 329 100 m 417 -96 q 480 -120 454 -96 q 506 -182 506 -144 q 481 -272 506 -221 l 411 -417 l 325 -417 l 365 -254 q 329 -182 329 -228 q 354 -121 329 -146 q 417 -96 379 -96 z "},"ß":{"ha":833,"x_min":114,"x_max":785,"o":"m 410 1046 q 596 988 526 1046 q 665 839 665 929 q 644 759 665 790 q 581 690 622 728 q 534 642 549 661 q 519 597 519 624 q 543 542 519 565 q 617 485 567 518 q 703 419 669 449 q 760 344 736 390 q 785 232 785 297 q 749 97 785 154 q 653 11 714 40 q 518 -18 593 -18 q 340 28 417 -18 l 396 133 q 501 104 447 104 q 593 135 561 104 q 625 228 625 167 q 594 317 625 282 q 504 393 564 351 q 437 444 463 422 q 394 498 411 465 q 376 574 376 531 q 396 651 376 619 q 451 718 415 682 q 499 773 483 749 q 515 829 515 797 q 489 900 515 871 q 407 929 463 929 q 303 886 338 929 q 269 749 269 843 l 269 0 l 114 0 l 114 739 q 191 967 114 888 q 410 1046 268 1046 z "},"t":{"ha":833,"x_min":99,"x_max":736,"o":"m 736 39 q 639 -3 694 13 q 522 -18 583 -18 q 329 47 397 -18 q 261 222 261 111 l 261 619 l 99 619 l 99 733 l 261 733 l 261 897 l 417 915 l 417 733 l 665 733 l 647 619 l 417 619 l 417 224 q 447 135 417 164 q 544 107 478 107 q 681 142 618 107 l 736 39 z "},"ŧ":{"ha":833,"x_min":99,"x_max":736,"o":"m 736 39 q 639 -3 694 13 q 522 -18 583 -18 q 329 47 397 -18 q 261 222 261 111 l 261 386 l 114 386 l 114 493 l 261 493 l 261 619 l 99 619 l 99 733 l 261 733 l 261 897 l 417 915 l 417 733 l 665 733 l 647 619 l 417 619 l 417 493 l 647 493 l 647 386 l 417 386 l 417 224 q 447 135 417 164 q 544 107 478 107 q 681 142 618 107 l 736 39 z "},"ť":{"ha":833,"x_min":99,"x_max":736,"o":"m 736 39 q 639 -3 694 13 q 522 -18 583 -18 q 329 47 397 -18 q 261 222 261 111 l 261 619 l 99 619 l 99 733 l 261 733 l 261 897 l 417 915 l 417 733 l 665 733 l 647 619 l 417 619 l 417 224 q 447 135 417 164 q 544 107 478 107 q 681 142 618 107 l 736 39 m 661 1078 l 574 803 l 481 817 l 522 1096 l 661 1078 z "},"ţ":{"ha":833,"x_min":99,"x_max":736,"o":"m 543 -75 q 644 -115 610 -81 q 678 -199 678 -149 q 625 -304 678 -265 q 493 -343 572 -343 q 410 -333 450 -343 q 342 -307 369 -324 l 383 -226 q 475 -250 431 -250 q 554 -197 554 -250 q 524 -154 554 -165 q 432 -143 494 -143 l 443 -11 q 308 70 354 8 q 261 222 261 132 l 261 619 l 99 619 l 99 733 l 261 733 l 261 897 l 417 915 l 417 733 l 665 733 l 647 619 l 417 619 l 417 224 q 447 135 417 164 q 544 107 478 107 q 681 142 618 107 l 736 39 q 648 -1 699 14 q 543 -18 597 -17 l 543 -75 z "},"ț":{"ha":833,"x_min":99,"x_max":736,"o":"m 736 39 q 639 -3 694 13 q 522 -18 583 -18 q 329 47 397 -18 q 261 222 261 111 l 261 619 l 99 619 l 99 733 l 261 733 l 261 897 l 417 915 l 417 733 l 665 733 l 647 619 l 417 619 l 417 224 q 447 135 417 164 q 544 107 478 107 q 681 142 618 107 l 736 39 m 513 -96 q 576 -120 550 -96 q 601 -182 601 -144 q 576 -272 601 -221 l 507 -417 l 421 -417 l 461 -254 q 425 -182 425 -228 q 450 -121 425 -146 q 513 -96 475 -96 z "},"u":{"ha":833,"x_min":124,"x_max":710,"o":"m 279 221 q 305 128 279 157 q 383 100 331 100 q 480 129 433 100 q 554 203 526 158 l 554 733 l 710 733 l 710 0 l 575 0 l 565 94 q 464 11 526 40 q 335 -18 401 -18 q 176 39 229 -18 q 124 201 124 96 l 124 733 l 279 733 l 279 221 z "},"ú":{"ha":833,"x_min":124,"x_max":710,"o":"m 279 221 q 305 128 279 157 q 383 100 331 100 q 480 129 433 100 q 554 203 526 158 l 554 733 l 710 733 l 710 0 l 575 0 l 565 94 q 464 11 526 40 q 335 -18 401 -18 q 176 39 229 -18 q 124 201 124 96 l 124 733 l 279 733 l 279 221 m 594 1003 l 290 879 l 244 961 l 529 1126 l 594 1003 z "},"ŭ":{"ha":833,"x_min":124,"x_max":710,"o":"m 279 221 q 305 128 279 157 q 383 100 331 100 q 480 129 433 100 q 554 203 526 158 l 554 733 l 710 733 l 710 0 l 575 0 l 565 94 q 464 11 526 40 q 335 -18 401 -18 q 176 39 229 -18 q 124 201 124 96 l 124 733 l 279 733 l 279 221 m 415 865 q 263 928 319 865 q 197 1075 207 990 l 293 1093 q 338 1008 307 1039 q 415 978 368 978 q 494 1008 463 978 q 540 1093 525 1039 l 635 1075 q 602 974 629 1022 q 527 896 575 926 q 415 865 479 865 z "},"û":{"ha":833,"x_min":124,"x_max":710,"o":"m 279 221 q 305 128 279 157 q 383 100 331 100 q 480 129 433 100 q 554 203 526 158 l 554 733 l 710 733 l 710 0 l 575 0 l 565 94 q 464 11 526 40 q 335 -18 401 -18 q 176 39 229 -18 q 124 201 124 96 l 124 733 l 279 733 l 279 221 m 176 933 l 367 1110 l 467 1110 l 657 933 l 594 864 l 418 992 l 240 864 l 176 933 z "},"ü":{"ha":833,"x_min":124,"x_max":710,"o":"m 279 221 q 305 128 279 157 q 383 100 331 100 q 480 129 433 100 q 554 203 526 158 l 554 733 l 710 733 l 710 0 l 575 0 l 565 94 q 464 11 526 40 q 335 -18 401 -18 q 176 39 229 -18 q 124 201 124 96 l 124 733 l 279 733 l 279 221 m 267 894 q 201 919 228 894 q 175 982 175 944 q 201 1046 175 1021 q 267 1071 228 1071 q 330 1046 304 1071 q 356 982 356 1021 q 330 919 356 944 q 267 894 304 894 m 567 894 q 503 919 529 894 q 476 982 476 944 q 503 1045 476 1019 q 567 1071 529 1071 q 631 1046 606 1071 q 657 982 657 1021 q 631 919 657 944 q 567 894 606 894 z "},"ù":{"ha":833,"x_min":124,"x_max":710,"o":"m 279 221 q 305 128 279 157 q 383 100 331 100 q 480 129 433 100 q 554 203 526 158 l 554 733 l 710 733 l 710 0 l 575 0 l 565 94 q 464 11 526 40 q 335 -18 401 -18 q 176 39 229 -18 q 124 201 124 96 l 124 733 l 279 733 l 279 221 m 244 993 l 317 1118 l 590 946 l 543 864 l 244 993 z "},"ű":{"ha":833,"x_min":124,"x_max":711,"o":"m 279 221 q 305 128 279 157 q 383 100 331 100 q 480 129 433 100 q 554 203 526 158 l 554 733 l 710 733 l 710 0 l 575 0 l 565 94 q 464 11 526 40 q 335 -18 401 -18 q 176 39 229 -18 q 124 201 124 96 l 124 733 l 279 733 l 279 221 m 356 1172 l 476 1115 l 326 878 l 236 919 l 356 1172 m 592 1172 l 711 1111 l 551 875 l 464 919 l 592 1172 z "},"ū":{"ha":833,"x_min":124,"x_max":710,"o":"m 279 221 q 305 128 279 157 q 383 100 331 100 q 480 129 433 100 q 554 203 526 158 l 554 733 l 710 733 l 710 0 l 575 0 l 565 94 q 464 11 526 40 q 335 -18 401 -18 q 176 39 229 -18 q 124 201 124 96 l 124 733 l 279 733 l 279 221 m 219 929 l 219 1042 l 613 1042 l 613 929 l 219 929 z "},"ų":{"ha":833,"x_min":124,"x_max":710,"o":"m 710 733 l 710 0 q 578 -76 614 -39 q 543 -157 543 -112 q 621 -224 543 -224 q 703 -214 660 -224 l 689 -321 q 603 -331 643 -331 q 469 -290 521 -331 q 418 -182 418 -249 q 457 -71 418 -118 q 574 13 496 -24 l 565 94 q 464 11 526 40 q 335 -18 401 -18 q 176 39 229 -18 q 124 201 124 96 l 124 733 l 279 733 l 279 221 q 305 128 279 157 q 383 100 331 100 q 480 129 433 100 q 554 203 526 158 l 554 733 l 710 733 z "},"ů":{"ha":833,"x_min":124,"x_max":710,"o":"m 279 221 q 305 128 279 157 q 383 100 331 100 q 480 129 433 100 q 554 203 526 158 l 554 733 l 710 733 l 710 0 l 575 0 l 565 94 q 464 11 526 40 q 335 -18 401 -18 q 176 39 229 -18 q 124 201 124 96 l 124 733 l 279 733 l 279 221 m 417 1165 q 538 1120 492 1165 q 585 1008 585 1075 q 538 896 585 942 q 417 850 492 850 q 294 896 342 850 q 247 1008 247 942 q 294 1120 247 1075 q 417 1165 342 1165 m 417 1082 q 365 1063 383 1082 q 346 1008 346 1043 q 365 952 346 972 q 417 932 383 932 q 467 952 449 932 q 486 1008 486 972 q 467 1063 486 1043 q 417 1082 449 1082 z "},"ũ":{"ha":833,"x_min":124,"x_max":710,"o":"m 279 221 q 305 128 279 157 q 383 100 331 100 q 480 129 433 100 q 554 203 526 158 l 554 733 l 710 733 l 710 0 l 575 0 l 565 94 q 464 11 526 40 q 335 -18 401 -18 q 176 39 229 -18 q 124 201 124 96 l 124 733 l 279 733 l 279 221 m 496 903 q 447 913 468 903 q 399 940 425 922 q 365 962 378 956 q 336 968 351 968 q 297 953 313 968 q 263 904 281 938 l 175 947 q 243 1046 203 1008 q 335 1083 283 1083 q 387 1073 364 1083 q 435 1044 410 1063 q 467 1024 454 1031 q 496 1017 481 1017 q 533 1031 517 1017 q 569 1078 550 1046 l 657 1035 q 588 937 629 971 q 496 903 547 903 z "},"v":{"ha":833,"x_min":67,"x_max":767,"o":"m 507 0 l 326 0 l 67 733 l 235 733 l 419 129 l 607 733 l 767 733 l 507 0 z "},"w":{"ha":833,"x_min":17,"x_max":817,"o":"m 503 0 l 419 521 l 331 0 l 140 0 l 17 733 l 167 733 l 243 97 l 346 640 l 501 640 l 596 97 l 672 733 l 817 733 l 697 0 l 503 0 z "},"ẃ":{"ha":833,"x_min":17,"x_max":817,"o":"m 503 0 l 419 521 l 331 0 l 140 0 l 17 733 l 167 733 l 243 97 l 346 640 l 501 640 l 596 97 l 672 733 l 817 733 l 697 0 l 503 0 m 594 1003 l 290 879 l 244 961 l 529 1126 l 594 1003 z "},"ŵ":{"ha":833,"x_min":17,"x_max":817,"o":"m 503 0 l 419 521 l 331 0 l 140 0 l 17 733 l 167 733 l 243 97 l 346 640 l 501 640 l 596 97 l 672 733 l 817 733 l 697 0 l 503 0 m 176 933 l 367 1110 l 467 1110 l 657 933 l 594 864 l 418 992 l 240 864 l 176 933 z "},"ẅ":{"ha":833,"x_min":17,"x_max":817,"o":"m 503 0 l 419 521 l 331 0 l 140 0 l 17 733 l 167 733 l 243 97 l 346 640 l 501 640 l 596 97 l 672 733 l 817 733 l 697 0 l 503 0 m 267 894 q 201 919 228 894 q 175 982 175 944 q 201 1046 175 1021 q 267 1071 228 1071 q 330 1046 304 1071 q 356 982 356 1021 q 330 919 356 944 q 267 894 304 894 m 567 894 q 503 919 529 894 q 476 982 476 944 q 503 1045 476 1019 q 567 1071 529 1071 q 631 1046 606 1071 q 657 982 657 1021 q 631 919 657 944 q 567 894 606 894 z "},"ẁ":{"ha":833,"x_min":17,"x_max":817,"o":"m 503 0 l 419 521 l 331 0 l 140 0 l 17 733 l 167 733 l 243 97 l 346 640 l 501 640 l 596 97 l 672 733 l 817 733 l 697 0 l 503 0 m 244 993 l 317 1118 l 590 946 l 543 864 l 244 993 z "},"x":{"ha":833,"x_min":60,"x_max":774,"o":"m 60 0 l 324 386 l 89 733 l 268 733 l 418 475 l 568 733 l 739 733 l 510 393 l 774 0 l 592 0 l 411 300 l 232 0 l 60 0 z "},"y":{"ha":833,"x_min":68,"x_max":765,"o":"m 513 -3 q 384 -212 468 -136 q 153 -300 300 -287 l 133 -183 q 250 -149 206 -172 q 321 -92 294 -126 q 368 0 347 -57 l 315 0 l 68 733 l 233 733 l 418 108 l 606 733 l 765 733 l 513 -3 z "},"ý":{"ha":833,"x_min":68,"x_max":765,"o":"m 513 -3 q 384 -212 468 -136 q 153 -300 300 -287 l 133 -183 q 250 -149 206 -172 q 321 -92 294 -126 q 368 0 347 -57 l 315 0 l 68 733 l 233 733 l 418 108 l 606 733 l 765 733 l 513 -3 m 594 1003 l 290 879 l 244 961 l 529 1126 l 594 1003 z "},"ŷ":{"ha":833,"x_min":68,"x_max":765,"o":"m 513 -3 q 384 -212 468 -136 q 153 -300 300 -287 l 133 -183 q 250 -149 206 -172 q 321 -92 294 -126 q 368 0 347 -57 l 315 0 l 68 733 l 233 733 l 418 108 l 606 733 l 765 733 l 513 -3 m 176 933 l 367 1110 l 467 1110 l 657 933 l 594 864 l 418 992 l 240 864 l 176 933 z "},"ÿ":{"ha":833,"x_min":68,"x_max":765,"o":"m 513 -3 q 384 -212 468 -136 q 153 -300 300 -287 l 133 -183 q 250 -149 206 -172 q 321 -92 294 -126 q 368 0 347 -57 l 315 0 l 68 733 l 233 733 l 418 108 l 606 733 l 765 733 l 513 -3 m 267 894 q 201 919 228 894 q 175 982 175 944 q 201 1046 175 1021 q 267 1071 228 1071 q 330 1046 304 1071 q 356 982 356 1021 q 330 919 356 944 q 267 894 304 894 m 567 894 q 503 919 529 894 q 476 982 476 944 q 503 1045 476 1019 q 567 1071 529 1071 q 631 1046 606 1071 q 657 982 657 1021 q 631 919 657 944 q 567 894 606 894 z "},"ỳ":{"ha":833,"x_min":68,"x_max":765,"o":"m 513 -3 q 384 -212 468 -136 q 153 -300 300 -287 l 133 -183 q 250 -149 206 -172 q 321 -92 294 -126 q 368 0 347 -57 l 315 0 l 68 733 l 233 733 l 418 108 l 606 733 l 765 733 l 513 -3 m 244 993 l 317 1118 l 590 946 l 543 864 l 244 993 z "},"z":{"ha":833,"x_min":126,"x_max":706,"o":"m 706 125 l 689 0 l 126 0 l 126 114 l 517 608 l 157 608 l 157 733 l 700 733 l 700 619 l 313 125 l 706 125 z "},"ź":{"ha":833,"x_min":126,"x_max":706,"o":"m 706 125 l 689 0 l 126 0 l 126 114 l 517 608 l 157 608 l 157 733 l 700 733 l 700 619 l 313 125 l 706 125 m 607 1003 l 303 879 l 257 961 l 542 1126 l 607 1003 z "},"ž":{"ha":833,"x_min":126,"x_max":706,"o":"m 706 125 l 689 0 l 126 0 l 126 114 l 517 608 l 157 608 l 157 733 l 700 733 l 700 619 l 313 125 l 706 125 m 669 1040 l 479 864 l 379 864 l 189 1040 l 253 1110 l 431 982 l 607 1110 l 669 1040 z "},"ż":{"ha":833,"x_min":126,"x_max":706,"o":"m 706 125 l 689 0 l 126 0 l 126 114 l 517 608 l 157 608 l 157 733 l 700 733 l 700 619 l 313 125 l 706 125 m 428 1093 q 502 1065 474 1093 q 531 994 531 1036 q 502 925 531 953 q 428 897 474 897 q 355 925 383 897 q 326 994 326 953 q 355 1065 326 1036 q 428 1093 383 1093 z "},"ﬁ":{"ha":833,"x_min":22,"x_max":817,"o":"m 436 0 l 436 114 l 549 114 l 549 618 l 294 618 l 294 0 l 142 0 l 142 618 l 22 618 l 22 733 l 142 733 l 142 813 q 219 981 142 917 q 422 1046 296 1046 q 642 1003 544 1046 l 596 894 q 438 925 525 925 q 329 897 364 925 q 294 811 294 869 l 294 733 l 703 733 l 703 114 l 817 114 l 817 0 l 436 0 z "},"ﬂ":{"ha":833,"x_min":15,"x_max":838,"o":"m 838 10 q 707 -18 775 -18 q 570 31 621 -18 q 519 176 519 79 l 519 914 q 422 926 474 926 q 318 898 351 926 q 285 811 285 869 l 285 733 l 438 733 l 419 618 l 285 618 l 285 0 l 131 0 l 131 618 l 15 618 l 15 733 l 131 733 l 131 813 q 166 934 131 881 q 265 1017 201 988 q 411 1046 329 1046 q 551 1021 481 1046 l 672 1043 l 672 186 q 688 125 672 143 q 736 107 704 107 q 801 121 764 107 l 838 10 z "},"ª":{"ha":833,"x_min":132,"x_max":700,"o":"m 403 1046 q 587 994 526 1046 q 647 844 647 942 l 647 588 q 658 542 647 558 q 692 519 668 526 l 660 426 q 578 451 610 432 q 529 507 547 469 q 446 447 494 468 q 343 425 397 425 q 190 476 249 425 q 132 613 132 528 q 211 757 132 706 q 433 808 290 808 l 513 808 l 513 840 q 481 916 513 893 q 383 939 449 939 q 308 931 353 939 q 217 906 264 922 l 179 1003 q 403 1046 297 1046 m 446 715 q 320 691 360 715 q 281 618 281 667 q 306 549 281 572 q 381 525 332 525 q 453 544 418 525 q 513 599 488 564 l 513 715 l 446 715 m 700 0 l 144 0 l 144 122 l 700 122 l 700 0 z "},"º":{"ha":833,"x_min":124,"x_max":708,"o":"m 417 1046 q 630 961 551 1046 q 708 736 708 876 q 673 574 708 644 q 571 465 638 504 q 417 425 504 425 q 203 510 282 425 q 124 736 124 594 q 160 897 124 826 q 263 1006 196 967 q 417 1046 329 1046 m 417 939 q 308 889 347 939 q 269 736 269 839 q 308 583 269 633 q 417 533 347 533 q 524 583 486 533 q 563 736 563 633 q 524 889 563 839 q 417 939 486 939 m 696 0 l 139 0 l 139 122 l 696 122 l 696 0 z "},"ⁿ":{"ha":833,"x_min":225,"x_max":610,"o":"m 471 1004 q 575 967 540 1004 q 610 861 610 931 l 610 525 l 488 525 l 488 814 q 478 890 488 869 q 436 910 468 910 q 389 894 413 910 q 346 851 365 878 l 346 525 l 225 525 l 225 993 l 333 993 l 338 940 q 399 989 364 974 q 471 1004 435 1004 z "},"Ԭ":{"ha":833,"x_min":63,"x_max":793,"o":"m 793 126 l 793 -218 l 668 -218 l 646 0 l 222 0 l 200 -218 l 74 -218 l 74 126 l 129 126 q 269 457 225 243 q 113 557 163 482 q 63 764 63 632 l 63 958 l 207 958 l 207 768 q 226 648 207 692 q 293 583 246 604 l 306 683 l 333 958 l 738 958 l 738 126 l 793 126 m 451 676 q 438 565 444 607 l 592 565 l 592 836 l 467 836 l 451 676 m 592 126 l 592 443 l 418 443 q 360 253 394 326 q 275 126 326 181 l 592 126 z "},"Ԫ":{"ha":833,"x_min":-19,"x_max":851,"o":"m 851 0 l 726 0 l 628 447 l 592 447 l 592 0 l 504 0 l 504 -218 l 408 -218 l 388 0 l 97 0 l 76 -218 l -19 -218 l -19 107 l 25 107 q 76 290 56 181 q 110 625 96 399 l 131 958 l 415 958 l 415 553 l 481 553 l 481 958 l 592 958 l 592 553 l 628 553 l 717 958 l 829 958 l 726 511 l 851 0 m 303 856 l 238 856 l 225 618 q 193 288 215 396 q 126 107 171 181 l 303 107 l 303 856 m 415 447 l 415 107 l 481 107 l 481 447 l 415 447 z "},"Ԯ":{"ha":833,"x_min":-1,"x_max":772,"o":"m 772 126 l 772 -218 l 647 -218 l 625 0 l 533 0 l 533 829 l 349 829 l 321 594 q 267 256 297 371 q 192 85 236 140 q 65 -19 147 29 l -1 92 q 69 167 43 126 q 118 303 94 207 q 163 582 142 399 l 207 958 l 694 958 l 694 126 l 772 126 z "},"Ԩ":{"ha":833,"x_min":-139,"x_max":735,"o":"m 735 958 l 735 0 l 574 0 l 574 436 l 260 436 l 260 -68 q 199 -243 260 -183 q 29 -303 139 -303 q -139 -247 -65 -303 l -79 -150 q -31 -172 -51 -165 q 18 -179 -11 -179 q 99 -79 99 -179 l 99 958 l 260 958 l 260 568 l 574 568 l 574 958 l 735 958 z "},"А":{"ha":833,"x_min":11,"x_max":822,"o":"m 243 231 l 176 0 l 11 0 l 317 958 l 517 958 l 822 0 l 651 0 l 585 231 l 243 231 m 551 356 l 414 833 l 276 356 l 551 356 z "},"Б":{"ha":833,"x_min":117,"x_max":767,"o":"m 663 831 l 278 831 l 278 596 l 389 596 q 669 524 571 596 q 767 306 767 453 q 667 75 767 150 q 394 0 567 0 l 117 0 l 117 958 l 678 958 l 663 831 m 278 475 l 278 125 l 396 125 q 548 165 496 125 q 600 304 600 204 q 394 475 600 475 l 278 475 z "},"В":{"ha":833,"x_min":113,"x_max":767,"o":"m 767 276 q 661 64 767 128 q 393 0 556 0 l 113 0 l 113 958 l 375 958 q 626 902 528 958 q 725 715 725 846 q 674 578 725 632 q 547 508 624 525 q 704 438 642 492 q 767 276 767 385 m 561 703 q 517 806 561 774 q 389 838 474 838 l 274 838 l 274 561 l 399 561 q 521 595 481 561 q 561 703 561 629 m 599 276 q 549 403 599 367 q 410 440 499 440 l 274 440 l 274 125 l 404 125 q 599 276 599 125 z "},"Г":{"ha":833,"x_min":165,"x_max":764,"o":"m 747 825 l 326 825 l 326 0 l 165 0 l 165 958 l 764 958 l 747 825 z "},"Ѓ":{"ha":833,"x_min":165,"x_max":764,"o":"m 747 825 l 326 825 l 326 0 l 165 0 l 165 958 l 764 958 l 747 825 m 653 1158 l 343 1047 l 304 1128 l 589 1283 l 653 1158 z "},"Ґ":{"ha":833,"x_min":165,"x_max":764,"o":"m 764 1167 l 764 958 l 747 825 l 326 825 l 326 0 l 165 0 l 165 958 l 611 958 l 611 1167 l 764 1167 z "},"Д":{"ha":833,"x_min":-6,"x_max":790,"o":"m 790 126 l 790 -218 l 665 -218 l 642 0 l 143 0 l 121 -218 l -6 -218 l -6 126 l 51 126 q 108 217 88 163 q 145 368 129 271 q 186 674 161 465 l 218 958 l 719 958 l 719 126 l 790 126 m 564 835 l 357 835 l 340 675 q 303 382 319 482 q 261 224 286 282 q 193 126 236 165 l 564 126 l 564 835 z "},"Е":{"ha":833,"x_min":157,"x_max":742,"o":"m 318 547 l 665 547 l 665 426 l 318 426 l 318 122 l 742 122 l 742 0 l 157 0 l 157 958 l 733 958 l 715 836 l 318 836 l 318 547 z "},"Ѐ":{"ha":833,"x_min":157,"x_max":742,"o":"m 318 547 l 665 547 l 665 426 l 318 426 l 318 122 l 742 122 l 742 0 l 157 0 l 157 958 l 733 958 l 715 836 l 318 836 l 318 547 m 617 1128 l 575 1047 l 274 1161 l 344 1286 l 617 1128 z "},"Ё":{"ha":833,"x_min":157,"x_max":742,"o":"m 318 547 l 665 547 l 665 426 l 318 426 l 318 122 l 742 122 l 742 0 l 157 0 l 157 958 l 733 958 l 715 836 l 318 836 l 318 547 m 294 1064 q 230 1089 256 1064 q 204 1151 204 1114 q 230 1215 204 1189 q 294 1240 256 1240 q 359 1215 333 1240 q 385 1151 385 1189 q 359 1089 385 1114 q 294 1064 333 1064 m 594 1064 q 531 1089 557 1064 q 504 1151 504 1114 q 531 1215 504 1189 q 594 1240 557 1240 q 659 1215 633 1240 q 685 1151 685 1189 q 659 1089 685 1114 q 594 1064 633 1064 z "},"Ж":{"ha":833,"x_min":11,"x_max":822,"o":"m 289 450 l 157 0 l 11 0 l 174 514 l 29 958 l 172 958 l 290 554 l 357 554 l 357 958 l 476 958 l 476 554 l 543 554 l 663 958 l 804 958 l 660 514 l 822 0 l 674 0 l 543 450 l 476 450 l 476 0 l 357 0 l 357 450 l 289 450 z "},"З":{"ha":833,"x_min":33,"x_max":763,"o":"m 392 978 q 571 946 494 978 q 689 856 647 914 q 731 725 731 799 q 675 586 731 639 q 525 518 619 533 q 696 447 629 508 q 763 281 763 385 q 717 126 763 193 q 585 20 671 58 q 382 -18 499 -18 q 186 17 275 -18 q 33 118 97 51 l 125 204 q 381 107 235 107 q 539 153 482 107 q 596 282 596 200 q 540 408 596 367 q 386 450 483 450 l 221 450 l 240 574 l 381 574 q 516 610 463 574 q 569 717 569 646 q 517 818 569 782 q 381 854 465 854 q 251 833 310 854 q 139 768 192 811 l 56 857 q 392 978 197 978 z "},"И":{"ha":833,"x_min":99,"x_max":735,"o":"m 99 958 l 253 958 l 253 535 q 246 322 253 410 q 225 142 239 235 l 543 958 l 735 958 l 735 0 l 581 0 l 581 422 q 607 811 581 624 l 294 0 l 99 0 l 99 958 z "},"Й":{"ha":833,"x_min":99,"x_max":735,"o":"m 99 958 l 253 958 l 253 535 q 246 322 253 410 q 225 142 239 235 l 543 958 l 735 958 l 735 0 l 581 0 l 581 422 q 607 811 581 624 l 294 0 l 99 0 l 99 958 m 415 1056 q 265 1105 324 1056 q 197 1233 206 1154 l 293 1253 q 415 1168 317 1168 q 540 1253 514 1168 l 635 1233 q 567 1105 626 1154 q 415 1056 507 1056 z "},"Ѝ":{"ha":833,"x_min":99,"x_max":735,"o":"m 99 958 l 253 958 l 253 535 q 246 322 253 410 q 225 142 239 235 l 543 958 l 735 958 l 735 0 l 581 0 l 581 422 q 607 811 581 624 l 294 0 l 99 0 l 99 958 m 589 1128 l 547 1047 l 246 1161 l 317 1286 l 589 1128 z "},"Ҋ":{"ha":833,"x_min":99,"x_max":858,"o":"m 415 1056 q 265 1105 324 1056 q 197 1233 206 1154 l 293 1253 q 415 1168 317 1168 q 540 1253 514 1168 l 635 1233 q 567 1105 626 1154 q 415 1056 507 1056 m 858 139 l 739 -218 l 610 -218 l 661 0 l 581 0 l 581 422 q 607 811 581 624 l 294 0 l 99 0 l 99 958 l 253 958 l 253 535 q 246 322 253 410 q 225 142 239 235 l 543 958 l 735 958 l 735 139 l 858 139 z "},"К":{"ha":833,"x_min":110,"x_max":826,"o":"m 269 440 l 269 0 l 110 0 l 110 958 l 269 958 l 269 565 l 372 565 l 635 958 l 800 958 l 507 514 l 826 0 l 642 0 l 372 440 l 269 440 z "},"Ќ":{"ha":833,"x_min":110,"x_max":826,"o":"m 269 440 l 269 0 l 110 0 l 110 958 l 269 958 l 269 565 l 372 565 l 635 958 l 800 958 l 507 514 l 826 0 l 642 0 l 372 440 l 269 440 m 622 1158 l 313 1047 l 274 1128 l 558 1283 l 622 1158 z "},"Л":{"ha":833,"x_min":7,"x_max":735,"o":"m 735 0 l 574 0 l 574 829 l 356 829 l 329 594 q 274 256 304 371 q 200 85 244 140 q 74 -19 156 29 l 7 92 q 77 167 51 126 q 126 303 103 207 q 171 582 150 399 l 215 958 l 735 958 l 735 0 z "},"М":{"ha":833,"x_min":35,"x_max":799,"o":"m 799 0 l 650 0 l 628 467 q 624 643 624 558 q 628 817 624 753 l 486 169 l 346 169 l 194 817 q 200 599 200 746 q 199 465 200 510 l 179 0 l 35 0 l 89 958 l 282 958 l 419 317 l 550 958 l 744 958 l 799 0 z "},"Н":{"ha":833,"x_min":99,"x_max":735,"o":"m 574 436 l 260 436 l 260 0 l 99 0 l 99 958 l 260 958 l 260 568 l 574 568 l 574 958 l 735 958 l 735 0 l 574 0 l 574 436 z "},"О":{"ha":833,"x_min":53,"x_max":781,"o":"m 781 479 q 687 117 781 251 q 417 -18 593 -18 q 147 115 240 -18 q 53 478 53 247 q 147 842 53 706 q 417 978 240 978 q 687 844 593 978 q 781 479 781 710 m 615 479 q 568 760 615 668 q 417 851 521 851 q 265 760 313 851 q 218 478 218 668 q 266 199 218 290 q 417 107 314 107 q 568 199 521 107 q 615 479 615 290 z "},"П":{"ha":833,"x_min":99,"x_max":735,"o":"m 574 828 l 260 828 l 260 0 l 99 0 l 99 958 l 735 958 l 735 0 l 574 0 l 574 828 z "},"Р":{"ha":833,"x_min":133,"x_max":783,"o":"m 783 657 q 683 419 783 496 q 410 342 583 342 l 293 342 l 293 0 l 133 0 l 133 958 l 399 958 q 683 883 583 958 q 783 657 783 807 m 615 657 q 410 838 615 838 l 293 838 l 293 464 l 411 464 q 562 508 508 464 q 615 657 615 553 z "},"С":{"ha":833,"x_min":72,"x_max":800,"o":"m 497 978 q 658 954 592 978 q 786 881 725 931 l 703 781 q 504 851 615 851 q 314 762 388 851 q 240 481 240 672 q 313 202 240 292 q 506 113 385 113 q 624 134 575 113 q 722 194 674 156 l 800 96 q 500 -18 683 -18 q 279 40 376 -18 q 127 210 182 97 q 72 481 72 322 q 128 749 72 636 q 282 919 185 861 q 497 978 379 978 z "},"Т":{"ha":833,"x_min":46,"x_max":789,"o":"m 496 0 l 335 0 l 335 828 l 46 828 l 46 958 l 789 958 l 772 828 l 496 828 l 496 0 z "},"У":{"ha":833,"x_min":19,"x_max":819,"o":"m 546 279 q 460 119 506 178 q 343 26 414 60 q 161 -18 272 -7 l 139 100 q 265 129 218 110 q 340 179 313 149 q 389 260 368 210 l 329 260 l 19 958 l 188 958 l 433 358 l 657 958 l 819 958 l 546 279 z "},"Ў":{"ha":833,"x_min":19,"x_max":819,"o":"m 546 279 q 460 119 506 178 q 343 26 414 60 q 161 -18 272 -7 l 139 100 q 265 129 218 110 q 340 179 313 149 q 389 260 368 210 l 329 260 l 19 958 l 188 958 l 433 358 l 657 958 l 819 958 l 546 279 m 428 1050 q 278 1101 336 1050 q 211 1233 219 1151 l 306 1253 q 428 1164 336 1164 q 508 1187 476 1164 q 553 1253 539 1210 l 649 1233 q 581 1101 640 1151 q 428 1050 521 1050 z "},"Ф":{"ha":833,"x_min":14,"x_max":819,"o":"m 483 914 q 737 795 654 901 q 819 483 819 689 q 734 166 819 276 q 483 47 649 56 l 483 -46 l 350 -46 l 350 47 q 99 165 183 56 q 14 483 14 275 q 97 795 14 689 q 350 914 179 901 l 350 1003 l 483 1003 l 483 914 m 357 813 q 213 731 257 806 q 169 483 169 656 q 213 237 169 314 q 357 150 256 160 l 357 813 m 476 150 q 621 237 578 160 q 664 483 664 314 q 620 731 664 656 q 476 813 576 806 l 476 150 z "},"Х":{"ha":833,"x_min":29,"x_max":806,"o":"m 232 958 l 417 614 l 604 958 l 775 958 l 510 518 l 806 0 l 626 0 l 414 407 l 200 0 l 29 0 l 318 510 l 53 958 l 232 958 z "},"Ч":{"ha":833,"x_min":57,"x_max":735,"o":"m 735 958 l 735 0 l 574 0 l 574 371 q 465 312 518 331 q 343 293 411 293 q 134 373 211 293 q 57 593 57 453 l 57 958 l 218 958 l 218 601 q 260 465 218 508 q 386 422 301 422 q 574 494 499 422 l 574 958 l 735 958 z "},"Ц":{"ha":833,"x_min":99,"x_max":813,"o":"m 813 126 l 813 -218 l 686 -218 l 664 0 l 99 0 l 99 958 l 260 958 l 260 129 l 574 129 l 574 958 l 735 958 l 735 126 l 813 126 z "},"Ш":{"ha":833,"x_min":58,"x_max":775,"o":"m 775 0 l 58 0 l 58 958 l 197 958 l 197 122 l 353 122 l 353 958 l 481 958 l 481 122 l 636 122 l 636 958 l 775 958 l 775 0 z "},"Щ":{"ha":833,"x_min":58,"x_max":854,"o":"m 854 126 l 854 -218 l 728 -218 l 706 0 l 58 0 l 58 958 l 197 958 l 197 122 l 353 122 l 353 958 l 481 958 l 481 122 l 636 122 l 636 958 l 775 958 l 775 126 l 854 126 z "},"Џ":{"ha":833,"x_min":99,"x_max":735,"o":"m 735 0 l 492 0 l 492 -218 l 365 -218 l 343 0 l 99 0 l 99 958 l 260 958 l 260 129 l 574 129 l 574 958 l 735 958 l 735 0 z "},"Ь":{"ha":833,"x_min":110,"x_max":779,"o":"m 271 615 l 397 615 q 680 542 581 615 q 779 315 779 468 q 678 78 779 156 q 403 0 578 0 l 110 0 l 110 958 l 271 958 l 271 615 m 271 494 l 271 124 l 407 124 q 558 167 506 124 q 610 314 610 210 q 404 494 610 494 l 271 494 z "},"Ъ":{"ha":833,"x_min":-1,"x_max":810,"o":"m 310 615 l 428 615 q 710 542 611 615 q 810 315 810 468 q 709 77 810 154 q 435 0 608 0 l 153 0 l 153 829 l -1 829 l -1 958 l 310 958 l 310 615 m 310 496 l 310 122 l 432 122 q 590 165 535 122 q 644 314 644 207 q 438 496 644 496 l 310 496 z "},"Ы":{"ha":833,"x_min":38,"x_max":796,"o":"m 185 617 l 243 617 q 503 540 415 617 q 592 315 592 464 q 501 78 592 157 q 246 0 411 0 l 38 0 l 38 958 l 185 958 l 185 617 m 796 0 l 649 0 l 649 958 l 796 958 l 796 0 m 185 501 l 185 119 l 256 119 q 393 165 347 119 q 439 314 439 210 q 258 501 439 501 l 185 501 z "},"Љ":{"ha":833,"x_min":-6,"x_max":833,"o":"m 497 615 q 749 542 665 615 q 833 315 833 468 q 748 77 833 154 q 506 0 663 0 l 358 0 l 358 842 l 247 842 l 219 428 q 190 181 208 265 q 143 57 171 96 q 63 -19 115 18 l -6 79 q 33 136 18 103 q 60 240 47 169 q 81 439 72 311 l 118 958 l 497 958 l 497 615 m 497 503 l 497 117 l 518 117 q 644 162 603 117 q 685 314 685 207 q 644 458 685 413 q 517 503 603 503 l 497 503 z "},"Њ":{"ha":833,"x_min":50,"x_max":833,"o":"m 500 586 q 749 515 665 585 q 833 303 833 446 q 749 73 833 146 q 503 0 664 0 l 358 0 l 358 471 l 192 471 l 192 0 l 50 0 l 50 958 l 192 958 l 192 586 l 358 586 l 358 958 l 500 958 l 500 586 m 500 472 l 500 118 l 517 118 q 646 158 606 119 q 686 301 686 197 q 645 433 686 394 q 517 472 604 471 l 500 472 z "},"Ѕ":{"ha":833,"x_min":43,"x_max":763,"o":"m 763 271 q 719 119 763 185 q 592 18 675 54 q 396 -18 510 -18 q 43 110 174 -18 l 132 208 q 396 108 240 108 q 538 149 482 108 q 594 263 594 189 q 577 335 594 306 q 518 387 560 364 q 399 433 476 410 q 164 546 239 481 q 89 718 89 611 q 131 853 89 794 q 249 945 174 913 q 418 978 324 978 q 739 863 611 978 l 654 767 q 428 851 556 851 q 302 819 350 851 q 254 728 254 788 q 274 664 254 690 q 342 616 294 638 q 478 568 390 594 q 690 461 617 526 q 763 271 763 396 z "},"Є":{"ha":833,"x_min":68,"x_max":794,"o":"m 492 978 q 651 953 583 978 q 782 879 719 928 l 703 788 q 503 854 606 854 q 320 781 393 854 q 235 556 247 708 l 632 556 l 632 428 l 232 428 q 313 188 240 267 q 500 108 386 108 q 622 130 571 108 q 717 189 672 151 l 794 93 q 492 -18 675 -18 q 271 40 367 -18 q 122 210 175 97 q 68 481 68 322 q 124 749 68 638 q 276 919 181 861 q 492 978 372 978 z "},"Э":{"ha":833,"x_min":43,"x_max":760,"o":"m 369 978 q 657 853 554 978 q 760 489 760 729 q 651 112 760 242 q 353 -18 542 -18 q 181 14 260 -18 q 43 104 101 46 l 129 193 q 231 129 179 150 q 347 108 283 108 q 525 186 463 108 q 594 429 588 264 l 199 429 l 199 554 l 594 554 q 527 783 586 713 q 358 854 468 854 q 239 832 290 854 q 136 769 188 810 l 54 858 q 197 946 121 914 q 369 978 272 978 z "},"І":{"ha":833,"x_min":128,"x_max":706,"o":"m 706 836 l 497 836 l 497 124 l 706 124 l 706 0 l 128 0 l 128 124 l 336 124 l 336 836 l 128 836 l 128 958 l 706 958 l 706 836 z "},"Ї":{"ha":833,"x_min":128,"x_max":706,"o":"m 706 836 l 497 836 l 497 124 l 706 124 l 706 0 l 128 0 l 128 124 l 336 124 l 336 836 l 128 836 l 128 958 l 706 958 l 706 836 m 267 1064 q 202 1089 228 1064 q 176 1151 176 1114 q 202 1215 176 1189 q 267 1240 228 1240 q 331 1215 306 1240 q 357 1151 357 1189 q 331 1089 357 1114 q 267 1064 306 1064 m 567 1064 q 503 1089 529 1064 q 476 1151 476 1114 q 503 1215 476 1189 q 567 1240 529 1240 q 631 1215 606 1240 q 657 1151 657 1189 q 631 1089 657 1114 q 567 1064 606 1064 z "},"Ј":{"ha":833,"x_min":83,"x_max":706,"o":"m 706 329 q 619 80 706 178 q 356 -18 532 -18 q 83 71 204 -18 l 149 172 q 251 123 203 138 q 350 108 300 108 q 492 167 440 108 q 544 332 544 225 l 544 835 l 257 835 l 257 958 l 706 958 l 706 329 z "},"Ћ":{"ha":833,"x_min":-8,"x_max":794,"o":"m 571 835 l 360 835 l 360 561 q 547 636 442 636 q 733 563 671 636 q 794 344 794 489 l 794 0 l 639 0 l 639 347 q 609 471 639 433 q 508 508 579 508 q 425 491 460 508 q 360 446 390 474 l 360 0 l 204 0 l 204 835 l -8 835 l -8 958 l 588 958 l 571 835 z "},"Ю":{"ha":833,"x_min":57,"x_max":808,"o":"m 542 978 q 699 922 640 978 q 783 758 758 867 q 808 479 808 650 q 746 106 808 229 q 542 -18 683 -18 q 341 97 401 -18 q 276 436 281 213 l 194 436 l 194 0 l 57 0 l 57 958 l 194 958 l 194 557 l 278 557 q 348 872 286 767 q 542 978 410 978 m 542 860 q 472 825 497 860 q 435 709 446 790 q 424 481 424 628 q 435 251 424 333 q 472 135 446 169 q 542 100 497 100 q 611 135 585 100 q 649 252 638 169 q 661 479 661 335 q 649 708 661 625 q 611 825 638 790 q 542 860 585 860 z "},"Я":{"ha":833,"x_min":29,"x_max":735,"o":"m 735 0 l 574 0 l 574 371 l 396 371 l 207 0 l 29 0 l 250 404 q 85 667 85 479 q 180 883 85 808 q 458 958 275 958 l 735 958 l 735 0 m 451 839 q 302 797 351 839 q 253 665 253 754 q 299 533 253 575 q 438 490 346 490 l 574 490 l 574 839 l 451 839 z "},"Ђ":{"ha":833,"x_min":-8,"x_max":794,"o":"m 360 561 q 547 636 447 636 q 733 563 671 636 q 794 344 794 489 l 794 135 q 728 -87 794 -11 q 535 -206 663 -162 l 494 -87 q 585 -35 554 -62 q 627 33 615 -7 q 639 136 639 72 l 639 347 q 609 471 639 433 q 508 508 579 508 q 425 491 460 508 q 360 446 390 474 l 360 0 l 204 0 l 204 835 l -8 835 l -8 958 l 588 958 l 571 835 l 360 835 l 360 561 z "},"Ѡ":{"ha":833,"x_min":21,"x_max":814,"o":"m 713 958 q 786 716 758 839 q 814 417 814 593 q 751 87 814 193 q 582 -19 689 -19 q 476 15 515 -19 q 417 119 438 50 q 356 15 394 50 q 256 -19 318 -19 q 138 25 190 -19 q 53 167 85 69 q 21 417 21 265 q 48 711 21 592 q 121 958 75 831 l 263 958 q 195 701 218 819 q 172 421 172 582 q 199 180 172 253 q 278 107 226 107 q 328 137 308 107 q 349 231 349 167 l 349 553 l 486 553 l 486 231 q 507 138 486 168 q 563 107 528 107 q 636 175 610 107 q 663 419 663 243 q 640 696 663 579 q 572 958 617 813 l 713 958 z "},"Ѣ":{"ha":833,"x_min":14,"x_max":799,"o":"m 436 603 q 701 528 604 603 q 799 311 799 454 q 699 78 799 156 q 432 0 599 0 l 199 0 l 199 731 l 14 731 l 14 836 l 199 836 l 199 958 l 360 958 l 360 836 l 557 836 l 557 731 l 360 731 l 360 603 l 436 603 m 435 124 q 631 310 631 124 q 435 482 631 482 l 360 482 l 360 124 l 435 124 z "},"Ѥ":{"ha":833,"x_min":46,"x_max":833,"o":"m 833 42 q 744 -3 792 13 q 633 -18 697 -18 q 387 97 476 -18 q 288 428 297 211 l 203 428 l 203 0 l 46 0 l 46 960 l 203 960 l 203 557 l 289 557 q 397 869 304 761 q 644 978 490 978 q 744 965 703 978 q 826 925 786 953 l 764 826 q 708 850 735 843 q 647 857 681 857 q 508 785 560 857 q 447 554 457 713 l 728 554 l 728 429 l 446 429 q 501 183 451 261 q 643 104 551 104 q 712 114 682 104 q 774 142 742 124 l 833 42 z "},"Ѧ":{"ha":833,"x_min":11,"x_max":822,"o":"m 550 379 l 482 379 l 482 0 l 349 0 l 349 379 l 279 379 l 169 0 l 11 0 l 317 958 l 517 958 l 822 0 l 660 0 l 550 379 m 514 501 l 414 846 l 314 501 l 514 501 z "},"Ѩ":{"ha":833,"x_min":32,"x_max":846,"o":"m 624 390 l 583 390 l 583 0 l 468 0 l 468 390 l 426 390 l 346 0 l 211 0 l 299 390 l 172 390 l 172 -1 l 32 -1 l 32 958 l 172 958 l 172 499 l 324 499 l 428 958 l 628 958 l 846 0 l 706 0 l 624 390 m 601 499 l 525 861 l 450 499 l 601 499 z "},"Ѫ":{"ha":833,"x_min":35,"x_max":799,"o":"m 799 0 l 661 0 l 550 432 l 486 432 l 486 0 l 347 0 l 347 432 l 283 432 l 172 0 l 35 0 l 190 538 l 289 538 l 115 863 l 115 958 l 719 958 l 719 863 l 543 538 l 649 538 l 799 0 m 419 538 l 575 856 l 261 856 l 419 538 z "},"Ѭ":{"ha":833,"x_min":18,"x_max":864,"o":"m 864 0 l 729 0 l 650 432 l 596 432 l 596 0 l 464 0 l 464 432 l 410 432 l 329 0 l 196 0 l 293 432 l 158 432 l 158 -1 l 18 -1 l 18 958 l 158 958 l 158 538 l 408 538 l 263 863 l 263 958 l 797 958 l 797 863 l 649 538 l 749 538 l 864 0 m 399 858 l 532 538 l 664 858 l 399 858 z "},"Ѯ":{"ha":833,"x_min":103,"x_max":731,"o":"m 343 1046 l 153 1207 l 215 1278 l 393 1164 l 572 1278 l 633 1207 l 443 1046 l 343 1046 m 419 528 q 652 456 574 526 q 731 256 731 386 q 648 59 731 129 q 435 -33 565 -11 q 308 -65 340 -50 q 276 -108 276 -81 q 301 -155 276 -133 q 379 -206 325 -176 l 322 -303 q 118 -93 118 -218 q 172 18 118 -22 q 346 79 225 58 q 510 140 456 99 q 564 261 564 182 q 518 381 564 343 q 378 419 472 419 l 221 419 l 221 522 l 500 832 l 103 832 l 103 958 l 682 958 l 682 835 l 394 528 l 419 528 z "},"Ѱ":{"ha":833,"x_min":17,"x_max":817,"o":"m 340 263 q 97 366 178 279 q 17 593 17 453 l 17 958 l 167 958 l 167 596 q 206 444 167 496 q 347 381 246 393 l 347 958 l 488 958 l 488 382 q 626 446 586 394 q 667 596 667 497 l 667 958 l 817 958 l 817 593 q 735 367 817 454 q 493 264 654 281 l 493 0 l 340 0 l 340 263 z "},"Ѳ":{"ha":833,"x_min":53,"x_max":781,"o":"m 781 479 q 687 117 781 251 q 417 -18 593 -18 q 147 115 240 -18 q 53 478 53 247 q 147 842 53 706 q 417 978 240 978 q 687 844 593 978 q 781 479 781 710 m 417 851 q 273 776 321 851 q 218 543 225 700 l 614 543 q 560 775 607 699 q 417 851 513 851 m 417 107 q 564 188 517 107 q 615 433 611 268 l 217 433 q 269 188 221 269 q 417 107 318 107 z "},"Ѵ":{"ha":833,"x_min":29,"x_max":826,"o":"m 792 850 q 754 858 767 858 q 718 844 732 858 q 694 796 704 829 l 486 0 l 297 0 l 29 958 l 201 958 l 392 153 l 544 811 q 610 940 565 900 q 731 979 654 979 q 826 958 779 979 l 792 850 z "},"Ѷ":{"ha":833,"x_min":29,"x_max":826,"o":"m 792 850 q 754 858 767 858 q 718 844 732 858 q 694 796 704 829 l 486 0 l 297 0 l 29 958 l 201 958 l 392 153 l 544 811 q 610 940 565 900 q 731 979 654 979 q 826 958 779 979 l 792 850 m 257 1100 l 97 1336 l 217 1397 l 344 1144 l 257 1100 m 482 1103 l 332 1340 l 453 1397 l 572 1144 l 482 1103 z "},"Ѹ":{"ha":833,"x_min":3,"x_max":825,"o":"m 222 -18 q 3 478 3 -18 q 56 847 3 717 q 222 978 110 978 q 389 850 338 978 q 440 479 440 722 q 389 109 440 236 q 222 -18 338 -18 m 222 92 q 277 131 257 92 q 306 254 297 171 q 314 479 314 338 q 294 778 314 689 q 222 868 274 868 q 167 828 188 868 q 139 703 147 788 q 131 478 131 619 q 151 181 131 269 q 222 92 172 92 m 461 -207 q 560 -137 525 -185 q 610 0 596 -90 l 554 0 l 444 733 l 563 733 l 636 108 l 708 733 l 825 733 l 714 -3 q 483 -300 676 -246 l 461 -207 z "},"Ғ":{"ha":833,"x_min":76,"x_max":803,"o":"m 365 825 l 365 601 l 576 601 l 576 492 l 365 492 l 365 0 l 204 0 l 204 492 l 76 492 l 76 601 l 204 601 l 204 958 l 803 958 l 788 825 l 365 825 z "},"Ҕ":{"ha":833,"x_min":96,"x_max":771,"o":"m 490 636 q 697 554 624 636 q 771 325 771 472 l 771 -67 q 710 -242 771 -182 q 540 -301 650 -301 q 372 -246 446 -301 l 433 -149 q 480 -171 460 -164 q 529 -178 500 -178 q 611 -78 611 -178 l 611 324 q 572 460 611 415 q 453 506 533 506 q 342 483 389 506 q 256 417 296 461 l 256 0 l 96 0 l 96 958 l 111 958 l 660 958 l 640 831 l 256 831 l 256 543 q 490 636 351 636 z "},"Җ":{"ha":833,"x_min":11,"x_max":847,"o":"m 847 126 l 847 -218 l 731 -218 l 707 0 l 674 0 l 543 450 l 476 450 l 476 0 l 357 0 l 357 450 l 289 450 l 157 0 l 11 0 l 174 514 l 29 958 l 172 958 l 290 554 l 357 554 l 357 958 l 476 958 l 476 554 l 543 554 l 663 958 l 804 958 l 660 514 l 782 126 l 847 126 z "},"Ҙ":{"ha":833,"x_min":33,"x_max":763,"o":"m 763 281 q 676 78 763 160 q 438 -17 589 -3 l 438 -75 q 538 -115 504 -81 q 572 -199 572 -149 q 519 -304 572 -265 q 388 -343 467 -343 q 304 -333 344 -343 q 236 -307 264 -324 l 278 -226 q 369 -250 325 -250 q 449 -197 449 -250 q 419 -154 449 -165 q 326 -143 389 -143 l 338 -17 q 167 24 244 -11 q 33 118 90 58 l 125 204 q 381 107 235 107 q 539 153 482 107 q 596 282 596 200 q 540 408 596 367 q 386 450 483 450 l 221 450 l 240 574 l 381 574 q 516 610 463 574 q 569 717 569 646 q 517 818 569 782 q 381 854 465 854 q 251 833 310 854 q 139 768 192 811 l 56 857 q 392 978 197 978 q 571 946 494 978 q 689 856 647 914 q 731 725 731 799 q 675 586 731 639 q 525 518 619 533 q 696 447 629 508 q 763 281 763 385 z "},"Қ":{"ha":833,"x_min":110,"x_max":826,"o":"m 826 126 l 826 -218 l 700 -218 l 678 0 l 642 0 l 372 440 l 269 440 l 269 0 l 110 0 l 110 958 l 269 958 l 269 565 l 372 565 l 635 958 l 800 958 l 507 514 l 747 126 l 826 126 z "},"Ҝ":{"ha":833,"x_min":110,"x_max":824,"o":"m 321 444 l 261 444 l 261 0 l 110 0 l 110 958 l 261 958 l 261 561 l 321 561 l 321 793 l 396 793 l 396 561 l 428 561 l 636 958 l 797 958 l 550 514 l 824 0 l 650 0 l 429 444 l 396 444 l 396 207 l 321 207 l 321 444 z "},"Ҟ":{"ha":833,"x_min":38,"x_max":821,"o":"m 821 0 l 636 0 l 394 440 l 293 440 l 293 0 l 132 0 l 132 732 l 38 732 l 38 843 l 132 843 l 132 958 l 293 958 l 293 843 l 436 843 l 436 732 l 293 732 l 293 565 l 394 565 l 631 958 l 794 958 l 529 514 l 821 0 z "},"Ҡ":{"ha":833,"x_min":10,"x_max":835,"o":"m 319 440 l 319 0 l 164 0 l 164 829 l 10 829 l 10 958 l 319 958 l 319 564 l 410 564 l 646 958 l 810 958 l 542 514 l 835 0 l 653 0 l 410 440 l 319 440 z "},"Ң":{"ha":833,"x_min":99,"x_max":813,"o":"m 813 126 l 813 -218 l 686 -218 l 664 0 l 574 0 l 574 436 l 260 436 l 260 0 l 99 0 l 99 958 l 260 958 l 260 568 l 574 568 l 574 958 l 735 958 l 735 126 l 813 126 z "},"Ҧ":{"ha":833,"x_min":36,"x_max":818,"o":"m 629 632 q 767 574 717 632 q 818 418 818 515 l 818 -74 q 758 -242 818 -182 q 603 -301 699 -301 q 435 -246 508 -301 l 493 -154 q 540 -177 518 -169 q 592 -185 563 -185 q 672 -85 672 -185 l 672 413 q 592 508 672 508 q 494 468 542 508 l 494 0 l 349 0 l 349 835 l 182 835 l 182 0 l 36 0 l 36 958 l 494 958 l 494 579 q 629 632 551 632 z "},"Ԥ":{"ha":833,"x_min":99,"x_max":813,"o":"m 813 126 l 813 -218 l 686 -218 l 664 0 l 574 0 l 574 828 l 260 828 l 260 0 l 99 0 l 99 958 l 735 958 l 735 126 l 813 126 z "},"Ҩ":{"ha":833,"x_min":42,"x_max":808,"o":"m 808 368 q 764 181 808 269 q 638 39 719 92 l 749 -112 l 657 -181 l 611 -119 q 570 -66 596 -100 q 528 -8 544 -32 q 432 -19 488 -19 q 227 38 315 -19 q 90 208 139 96 q 42 479 42 321 q 93 749 42 636 q 231 921 144 863 q 422 979 318 979 q 569 954 508 979 q 693 878 631 929 l 614 782 q 522 835 567 818 q 429 853 478 853 q 273 763 333 853 q 213 479 213 674 q 272 196 213 286 q 435 106 331 106 l 450 106 q 387 237 408 175 q 365 363 365 299 q 426 533 365 468 q 586 599 488 599 q 748 537 688 599 q 808 368 808 475 m 499 365 q 517 252 499 307 q 569 139 535 197 q 667 371 667 201 q 585 488 667 488 q 521 456 543 488 q 499 365 499 424 z "},"Ҫ":{"ha":833,"x_min":72,"x_max":800,"o":"m 554 -17 q 658 -182 658 -81 q 608 -298 658 -254 q 469 -342 557 -342 q 331 -307 393 -342 l 367 -222 q 460 -244 414 -244 q 518 -225 499 -244 q 538 -171 538 -206 q 436 -14 538 -81 q 246 62 328 0 q 118 230 164 124 q 72 481 72 336 q 128 749 72 636 q 282 919 185 861 q 497 978 379 978 q 658 954 592 978 q 786 881 725 931 l 703 781 q 504 851 615 851 q 314 762 388 851 q 240 481 240 672 q 313 202 240 292 q 506 113 385 113 q 624 134 575 113 q 722 194 674 156 l 800 96 q 554 -17 701 0 z "},"Ҭ":{"ha":833,"x_min":46,"x_max":789,"o":"m 496 828 l 496 126 l 574 126 l 574 -218 l 447 -218 l 425 0 l 335 0 l 335 828 l 46 828 l 46 958 l 789 958 l 772 828 l 496 828 z "},"Ү":{"ha":833,"x_min":15,"x_max":818,"o":"m 497 0 l 336 0 l 336 365 l 15 958 l 193 958 l 419 504 l 649 958 l 818 958 l 497 367 l 497 0 z "},"Ұ":{"ha":833,"x_min":15,"x_max":818,"o":"m 532 429 l 669 429 l 669 322 l 497 322 l 497 0 l 336 0 l 336 322 l 164 322 l 164 429 l 301 429 l 15 958 l 193 958 l 419 504 l 649 958 l 818 958 l 532 429 z "},"Ҳ":{"ha":833,"x_min":29,"x_max":810,"o":"m 810 126 l 810 -218 l 683 -218 l 661 0 l 625 0 l 625 1 l 414 407 l 200 0 l 29 0 l 318 510 l 53 958 l 232 958 l 417 614 l 604 958 l 775 958 l 510 518 l 733 126 l 810 126 z "},"Ҷ":{"ha":833,"x_min":57,"x_max":813,"o":"m 813 126 l 813 -218 l 686 -218 l 664 0 l 574 0 l 574 371 q 465 312 518 331 q 343 293 411 293 q 134 373 211 293 q 57 593 57 453 l 57 958 l 218 958 l 218 601 q 260 465 218 508 q 386 422 301 422 q 574 494 499 422 l 574 958 l 735 958 l 735 126 l 813 126 z "},"Ҹ":{"ha":833,"x_min":57,"x_max":735,"o":"m 735 958 l 735 0 l 574 0 l 574 371 q 446 306 506 322 l 446 168 l 361 168 l 361 293 l 343 293 q 134 373 211 293 q 57 593 57 453 l 57 958 l 218 958 l 218 601 q 253 474 218 517 q 361 424 289 431 l 361 756 l 446 756 l 446 428 q 574 494 519 443 l 574 958 l 735 958 z "},"Һ":{"ha":833,"x_min":99,"x_max":775,"o":"m 494 636 q 701 554 628 636 q 775 325 775 472 l 775 0 l 614 0 l 614 324 q 576 460 614 415 q 457 506 538 506 q 347 483 394 506 q 260 418 300 461 l 260 0 l 99 0 l 99 958 l 260 958 l 260 544 q 494 636 358 636 z "},"Ԧ":{"ha":833,"x_min":99,"x_max":836,"o":"m 836 126 l 836 -218 l 711 -218 l 688 0 l 599 0 l 599 324 q 560 460 599 415 q 439 506 521 506 q 339 483 382 506 q 260 419 296 461 l 260 0 l 99 0 l 99 958 l 260 958 l 260 549 q 479 636 351 636 q 686 554 613 636 q 760 325 760 472 l 760 126 l 836 126 z "},"Ҽ":{"ha":833,"x_min":-1,"x_max":792,"o":"m 792 496 q 788 417 792 454 l 339 417 q 390 176 340 253 q 521 100 439 100 q 607 116 571 100 q 686 163 643 132 l 753 75 q 517 -18 647 -18 q 282 92 367 -18 q 189 418 197 203 q 49 469 99 419 q -1 594 -1 518 q 47 738 -1 668 l 140 697 q 121 646 126 664 q 115 604 115 628 q 185 533 115 533 l 189 533 q 283 860 200 743 q 503 978 367 978 q 717 853 643 978 q 792 496 792 729 m 649 533 q 608 785 644 710 q 501 860 571 860 q 388 782 429 860 q 339 533 346 704 l 649 533 z "},"Ҿ":{"ha":833,"x_min":-1,"x_max":792,"o":"m 792 496 q 788 417 792 454 l 339 417 q 390 176 340 253 q 521 100 439 100 q 607 116 571 100 q 686 163 643 132 l 753 75 q 625 -1 690 22 q 496 -76 531 -39 q 461 -157 461 -112 q 539 -224 461 -224 q 621 -214 578 -224 l 607 -321 q 521 -331 561 -331 q 388 -290 439 -331 q 336 -182 336 -249 q 447 -12 336 -76 q 263 120 329 11 q 189 418 196 229 q 49 469 99 419 q -1 594 -1 518 q 47 738 -1 668 l 140 697 q 121 646 126 664 q 115 604 115 628 q 185 533 115 533 l 189 533 q 283 860 200 743 q 503 978 367 978 q 717 853 643 978 q 792 496 792 729 m 649 533 q 608 785 644 710 q 501 860 571 860 q 388 782 429 860 q 339 533 346 704 l 649 533 z "},"Ӏ":{"ha":833,"x_min":128,"x_max":706,"o":"m 706 836 l 497 836 l 497 124 l 706 124 l 706 0 l 128 0 l 128 124 l 336 124 l 336 836 l 128 836 l 128 958 l 706 958 l 706 836 z "},"Ӂ":{"ha":833,"x_min":11,"x_max":822,"o":"m 289 450 l 157 0 l 11 0 l 174 514 l 29 958 l 172 958 l 290 554 l 357 554 l 357 958 l 476 958 l 476 554 l 543 554 l 663 958 l 804 958 l 660 514 l 822 0 l 674 0 l 543 450 l 476 450 l 476 0 l 357 0 l 357 450 l 289 450 m 415 1056 q 265 1105 324 1056 q 197 1233 206 1154 l 293 1253 q 415 1168 317 1168 q 540 1253 514 1168 l 635 1233 q 567 1105 626 1154 q 415 1056 507 1056 z "},"Ӄ":{"ha":833,"x_min":99,"x_max":771,"o":"m 758 -67 q 697 -242 758 -182 q 528 -301 636 -301 q 360 -246 431 -301 l 419 -149 q 467 -171 446 -164 q 515 -178 488 -178 q 597 -78 597 -178 l 597 251 q 560 381 597 339 q 442 422 522 422 l 260 422 l 260 0 l 99 0 l 99 958 l 260 958 l 260 549 l 379 549 l 607 958 l 771 958 l 528 544 q 758 254 758 511 l 758 -67 z "},"Ӆ":{"ha":833,"x_min":11,"x_max":822,"o":"m 822 139 l 703 -218 l 574 -218 l 624 0 l 536 0 l 536 829 l 361 829 l 333 594 q 279 256 310 371 q 204 85 249 140 q 78 -19 160 29 l 11 92 q 81 167 56 126 q 131 303 107 207 q 175 582 154 399 l 219 958 l 697 958 l 697 139 l 822 139 z "},"Ӈ":{"ha":833,"x_min":99,"x_max":735,"o":"m 735 -67 q 674 -242 735 -182 q 504 -301 614 -301 q 336 -246 410 -301 l 396 -149 q 444 -171 424 -164 q 493 -178 464 -178 q 574 -78 574 -178 l 574 436 l 260 436 l 260 0 l 99 0 l 99 958 l 260 958 l 260 568 l 574 568 l 574 958 l 735 958 l 735 -67 z "},"Ӊ":{"ha":833,"x_min":85,"x_max":813,"o":"m 813 139 l 693 -218 l 564 -218 l 615 0 l 526 0 l 526 435 l 246 435 l 246 0 l 85 0 l 85 958 l 246 958 l 246 569 l 526 569 l 526 958 l 688 958 l 688 139 l 813 139 z "},"Ӌ":{"ha":833,"x_min":57,"x_max":735,"o":"m 735 958 l 735 0 l 636 0 l 614 -218 l 488 -218 l 488 126 l 574 126 l 574 371 q 465 312 518 331 q 343 293 411 293 q 134 373 211 293 q 57 593 57 453 l 57 958 l 218 958 l 218 601 q 260 465 218 508 q 386 422 301 422 q 574 494 499 422 l 574 958 l 735 958 z "},"Ӎ":{"ha":833,"x_min":28,"x_max":853,"o":"m 853 139 l 733 -218 l 613 -218 l 663 0 l 597 0 l 574 467 q 569 651 569 565 q 574 815 569 753 l 456 169 l 315 169 l 188 815 q 192 604 192 740 q 190 465 192 511 l 171 0 l 28 0 l 82 958 l 275 958 l 389 317 l 496 958 l 690 958 l 736 139 l 853 139 z "},"Ӑ":{"ha":833,"x_min":11,"x_max":822,"o":"m 243 231 l 176 0 l 11 0 l 317 958 l 517 958 l 822 0 l 651 0 l 585 231 l 243 231 m 551 356 l 414 833 l 276 356 l 551 356 m 415 1056 q 265 1105 324 1056 q 197 1233 206 1154 l 293 1253 q 415 1168 317 1168 q 540 1253 514 1168 l 635 1233 q 567 1105 626 1154 q 415 1056 507 1056 z "},"Ӓ":{"ha":833,"x_min":11,"x_max":822,"o":"m 243 231 l 176 0 l 11 0 l 317 958 l 517 958 l 822 0 l 651 0 l 585 231 l 243 231 m 551 356 l 414 833 l 276 356 l 551 356 m 267 1064 q 202 1089 228 1064 q 176 1151 176 1114 q 202 1215 176 1189 q 267 1240 228 1240 q 331 1215 306 1240 q 357 1151 357 1189 q 331 1089 357 1114 q 267 1064 306 1064 m 567 1064 q 503 1089 529 1064 q 476 1151 476 1114 q 503 1215 476 1189 q 567 1240 529 1240 q 631 1215 606 1240 q 657 1151 657 1189 q 631 1089 657 1114 q 567 1064 606 1064 z "},"Ӗ":{"ha":833,"x_min":157,"x_max":742,"o":"m 318 547 l 665 547 l 665 426 l 318 426 l 318 122 l 742 122 l 742 0 l 157 0 l 157 958 l 733 958 l 715 836 l 318 836 l 318 547 m 444 1056 q 294 1105 353 1056 q 226 1233 235 1154 l 322 1253 q 444 1168 346 1168 q 569 1253 543 1168 l 664 1233 q 596 1105 656 1154 q 444 1056 536 1056 z "},"Ә":{"ha":833,"x_min":49,"x_max":779,"o":"m 49 463 q 54 540 49 490 l 617 540 q 555 780 611 704 q 396 856 499 856 q 287 835 333 856 q 186 776 240 815 l 107 865 q 243 949 171 919 q 407 978 315 978 q 684 854 589 978 q 779 489 779 731 q 735 215 779 329 q 609 42 692 101 q 413 -18 526 -18 q 143 106 238 -18 q 49 463 49 229 m 413 104 q 557 181 506 104 q 617 421 608 258 l 203 421 q 260 178 208 251 q 413 104 313 104 z "},"Ӛ":{"ha":833,"x_min":49,"x_max":779,"o":"m 49 463 q 54 540 49 490 l 617 540 q 555 780 611 704 q 396 856 499 856 q 287 835 333 856 q 186 776 240 815 l 107 865 q 243 949 171 919 q 407 978 315 978 q 684 854 589 978 q 779 489 779 731 q 735 215 779 329 q 609 42 692 101 q 413 -18 526 -18 q 143 106 238 -18 q 49 463 49 229 m 413 104 q 557 181 506 104 q 617 421 608 258 l 203 421 q 260 178 208 251 q 413 104 313 104 m 256 1064 q 191 1089 217 1064 q 165 1151 165 1114 q 191 1215 165 1189 q 256 1240 217 1240 q 320 1215 294 1240 q 346 1151 346 1189 q 320 1089 346 1114 q 256 1064 294 1064 m 556 1064 q 492 1089 518 1064 q 465 1151 465 1114 q 492 1215 465 1189 q 556 1240 518 1240 q 620 1215 594 1240 q 646 1151 646 1189 q 620 1089 646 1114 q 556 1064 594 1064 z "},"Ӝ":{"ha":833,"x_min":11,"x_max":822,"o":"m 289 450 l 157 0 l 11 0 l 174 514 l 29 958 l 172 958 l 290 554 l 357 554 l 357 958 l 476 958 l 476 554 l 543 554 l 663 958 l 804 958 l 660 514 l 822 0 l 674 0 l 543 450 l 476 450 l 476 0 l 357 0 l 357 450 l 289 450 m 267 1064 q 202 1089 228 1064 q 176 1151 176 1114 q 202 1215 176 1189 q 267 1240 228 1240 q 331 1215 306 1240 q 357 1151 357 1189 q 331 1089 357 1114 q 267 1064 306 1064 m 567 1064 q 503 1089 529 1064 q 476 1151 476 1114 q 503 1215 476 1189 q 567 1240 529 1240 q 631 1215 606 1240 q 657 1151 657 1189 q 631 1089 657 1114 q 567 1064 606 1064 z "},"Ӟ":{"ha":833,"x_min":33,"x_max":763,"o":"m 392 978 q 571 946 494 978 q 689 856 647 914 q 731 725 731 799 q 675 586 731 639 q 525 518 619 533 q 696 447 629 508 q 763 281 763 385 q 717 126 763 193 q 585 20 671 58 q 382 -18 499 -18 q 186 17 275 -18 q 33 118 97 51 l 125 204 q 381 107 235 107 q 539 153 482 107 q 596 282 596 200 q 540 408 596 367 q 386 450 483 450 l 221 450 l 240 574 l 381 574 q 516 610 463 574 q 569 717 569 646 q 517 818 569 782 q 381 854 465 854 q 251 833 310 854 q 139 768 192 811 l 56 857 q 392 978 197 978 m 258 1064 q 194 1089 219 1064 q 168 1151 168 1114 q 194 1215 168 1189 q 258 1240 219 1240 q 323 1215 297 1240 q 349 1151 349 1189 q 323 1089 349 1114 q 258 1064 297 1064 m 558 1064 q 494 1089 521 1064 q 468 1151 468 1114 q 494 1215 468 1189 q 558 1240 521 1240 q 623 1215 597 1240 q 649 1151 649 1189 q 623 1089 649 1114 q 558 1064 597 1064 z "},"Ӡ":{"ha":833,"x_min":82,"x_max":751,"o":"m 438 557 q 673 487 594 557 q 751 289 751 417 q 708 130 751 200 q 583 20 664 60 q 392 -19 501 -19 q 216 8 286 -19 q 82 92 146 36 l 161 185 q 268 124 218 143 q 389 106 318 106 q 533 153 482 106 q 583 289 583 200 q 535 410 583 372 q 393 447 486 447 l 239 447 l 239 547 l 528 832 l 126 832 l 126 958 l 707 958 l 707 835 l 419 557 l 438 557 z "},"Ӣ":{"ha":833,"x_min":99,"x_max":735,"o":"m 99 958 l 253 958 l 253 535 q 246 322 253 410 q 225 142 239 235 l 543 958 l 735 958 l 735 0 l 581 0 l 581 422 q 607 811 581 624 l 294 0 l 99 0 l 99 958 m 221 1097 l 221 1211 l 613 1211 l 613 1097 l 221 1097 z "},"Ӥ":{"ha":833,"x_min":99,"x_max":735,"o":"m 99 958 l 253 958 l 253 535 q 246 322 253 410 q 225 142 239 235 l 543 958 l 735 958 l 735 0 l 581 0 l 581 422 q 607 811 581 624 l 294 0 l 99 0 l 99 958 m 267 1064 q 202 1089 228 1064 q 176 1151 176 1114 q 202 1215 176 1189 q 267 1240 228 1240 q 331 1215 306 1240 q 357 1151 357 1189 q 331 1089 357 1114 q 267 1064 306 1064 m 567 1064 q 503 1089 529 1064 q 476 1151 476 1114 q 503 1215 476 1189 q 567 1240 529 1240 q 631 1215 606 1240 q 657 1151 657 1189 q 631 1089 657 1114 q 567 1064 606 1064 z "},"Ӧ":{"ha":833,"x_min":53,"x_max":781,"o":"m 781 479 q 687 117 781 251 q 417 -18 593 -18 q 147 115 240 -18 q 53 478 53 247 q 147 842 53 706 q 417 978 240 978 q 687 844 593 978 q 781 479 781 710 m 615 479 q 568 760 615 668 q 417 851 521 851 q 265 760 313 851 q 218 478 218 668 q 266 199 218 290 q 417 107 314 107 q 568 199 521 107 q 615 479 615 290 m 267 1064 q 202 1089 228 1064 q 176 1151 176 1114 q 202 1215 176 1189 q 267 1240 228 1240 q 331 1215 306 1240 q 357 1151 357 1189 q 331 1089 357 1114 q 267 1064 306 1064 m 567 1064 q 503 1089 529 1064 q 476 1151 476 1114 q 503 1215 476 1189 q 567 1240 529 1240 q 631 1215 606 1240 q 657 1151 657 1189 q 631 1089 657 1114 q 567 1064 606 1064 z "},"Ө":{"ha":833,"x_min":53,"x_max":781,"o":"m 781 479 q 687 117 781 251 q 417 -18 593 -18 q 147 115 240 -18 q 53 478 53 247 q 147 842 53 706 q 417 978 240 978 q 687 844 593 978 q 781 479 781 710 m 417 851 q 273 776 321 851 q 218 543 225 700 l 614 543 q 560 775 607 699 q 417 851 513 851 m 417 107 q 564 188 517 107 q 615 433 611 268 l 217 433 q 269 188 221 269 q 417 107 318 107 z "},"Ӫ":{"ha":833,"x_min":53,"x_max":781,"o":"m 781 479 q 687 117 781 251 q 417 -18 593 -18 q 147 115 240 -18 q 53 478 53 247 q 147 842 53 706 q 417 978 240 978 q 687 844 593 978 q 781 479 781 710 m 417 851 q 273 776 321 851 q 218 543 225 700 l 614 543 q 560 775 607 699 q 417 851 513 851 m 417 107 q 564 188 517 107 q 615 433 611 268 l 217 433 q 269 188 221 269 q 417 107 318 107 m 267 1064 q 202 1089 228 1064 q 176 1151 176 1114 q 202 1215 176 1189 q 267 1240 228 1240 q 331 1215 306 1240 q 357 1151 357 1189 q 331 1089 357 1114 q 267 1064 306 1064 m 567 1064 q 503 1089 529 1064 q 476 1151 476 1114 q 503 1215 476 1189 q 567 1240 529 1240 q 631 1215 606 1240 q 657 1151 657 1189 q 631 1089 657 1114 q 567 1064 606 1064 z "},"Ӭ":{"ha":833,"x_min":43,"x_max":760,"o":"m 369 978 q 657 853 554 978 q 760 489 760 729 q 651 112 760 242 q 353 -18 542 -18 q 181 14 260 -18 q 43 104 101 46 l 129 193 q 231 129 179 150 q 347 108 283 108 q 525 186 463 108 q 594 429 588 264 l 199 429 l 199 554 l 594 554 q 527 783 586 713 q 358 854 468 854 q 239 832 290 854 q 136 769 188 810 l 54 858 q 197 946 121 914 q 369 978 272 978 m 246 1063 q 181 1088 207 1063 q 156 1150 156 1113 q 181 1213 156 1188 q 246 1239 207 1239 q 310 1213 285 1239 q 336 1150 336 1188 q 310 1088 336 1113 q 246 1063 285 1063 m 546 1063 q 482 1088 508 1063 q 456 1150 456 1113 q 482 1213 456 1188 q 546 1239 508 1239 q 610 1213 585 1239 q 636 1150 636 1188 q 610 1088 636 1113 q 546 1063 585 1063 z "},"Ӯ":{"ha":833,"x_min":19,"x_max":819,"o":"m 546 279 q 460 119 506 178 q 343 26 414 60 q 161 -18 272 -7 l 139 100 q 265 129 218 110 q 340 179 313 149 q 389 260 368 210 l 329 260 l 19 958 l 188 958 l 433 358 l 657 958 l 819 958 l 546 279 m 235 1097 l 235 1211 l 626 1211 l 626 1097 l 235 1097 z "},"Ӱ":{"ha":833,"x_min":19,"x_max":819,"o":"m 546 279 q 460 119 506 178 q 343 26 414 60 q 161 -18 272 -7 l 139 100 q 265 129 218 110 q 340 179 313 149 q 389 260 368 210 l 329 260 l 19 958 l 188 958 l 433 358 l 657 958 l 819 958 l 546 279 m 281 1064 q 216 1089 242 1064 q 190 1151 190 1114 q 216 1215 190 1189 q 281 1240 242 1240 q 345 1215 319 1240 q 371 1151 371 1189 q 345 1089 371 1114 q 281 1064 319 1064 m 581 1064 q 517 1089 543 1064 q 490 1151 490 1114 q 517 1215 490 1189 q 581 1240 543 1240 q 645 1215 619 1240 q 671 1151 671 1189 q 645 1089 671 1114 q 581 1064 619 1064 z "},"Ӳ":{"ha":833,"x_min":19,"x_max":819,"o":"m 546 279 q 460 119 506 178 q 343 26 414 60 q 161 -18 272 -7 l 139 100 q 265 129 218 110 q 340 179 313 149 q 389 260 368 210 l 329 260 l 19 958 l 188 958 l 433 358 l 657 958 l 819 958 l 546 279 m 374 1340 l 494 1285 l 346 1047 l 254 1088 l 374 1340 m 611 1340 l 729 1281 l 571 1044 l 482 1089 l 611 1340 z "},"Ӵ":{"ha":833,"x_min":57,"x_max":735,"o":"m 735 958 l 735 0 l 574 0 l 574 371 q 465 312 518 331 q 343 293 411 293 q 134 373 211 293 q 57 593 57 453 l 57 958 l 218 958 l 218 601 q 260 465 218 508 q 386 422 301 422 q 574 494 499 422 l 574 958 l 735 958 m 250 1064 q 185 1089 211 1064 q 160 1151 160 1114 q 185 1215 160 1189 q 250 1240 211 1240 q 315 1215 289 1240 q 340 1151 340 1189 q 315 1089 340 1114 q 250 1064 289 1064 m 550 1064 q 486 1089 513 1064 q 460 1151 460 1114 q 486 1215 460 1189 q 550 1240 513 1240 q 615 1215 589 1240 q 640 1151 640 1189 q 615 1089 640 1114 q 550 1064 589 1064 z "},"Ӷ":{"ha":833,"x_min":165,"x_max":764,"o":"m 326 825 l 326 126 l 413 126 l 413 -218 l 286 -218 l 264 0 l 165 0 l 165 958 l 764 958 l 747 825 l 326 825 z "},"Ӹ":{"ha":833,"x_min":38,"x_max":796,"o":"m 185 617 l 243 617 q 503 540 415 617 q 592 315 592 464 q 501 78 592 157 q 246 0 411 0 l 38 0 l 38 958 l 185 958 l 185 617 m 796 0 l 649 0 l 649 958 l 796 958 l 796 0 m 185 501 l 185 119 l 256 119 q 393 165 347 119 q 439 314 439 210 q 258 501 439 501 l 185 501 m 267 1064 q 202 1089 228 1064 q 176 1151 176 1114 q 202 1215 176 1189 q 267 1240 228 1240 q 331 1215 306 1240 q 357 1151 357 1189 q 331 1089 357 1114 q 267 1064 306 1064 m 567 1064 q 503 1089 529 1064 q 476 1151 476 1114 q 503 1215 476 1189 q 567 1240 529 1240 q 631 1215 606 1240 q 657 1151 657 1189 q 631 1089 657 1114 q 567 1064 606 1064 z "},"Ӻ":{"ha":833,"x_min":86,"x_max":833,"o":"m 396 825 l 396 601 l 607 601 l 607 492 l 396 492 l 396 126 l 486 126 l 486 -67 q 425 -242 486 -182 q 256 -301 364 -301 q 86 -246 160 -301 l 147 -149 q 194 -171 174 -164 q 243 -178 214 -178 q 325 -78 325 -178 l 325 0 l 235 0 l 235 492 l 107 492 l 107 601 l 235 601 l 235 958 l 833 958 l 818 825 l 396 825 z "},"Ӽ":{"ha":833,"x_min":13,"x_max":818,"o":"m 818 -67 q 757 -242 818 -182 q 588 -301 696 -301 q 419 -246 493 -301 l 479 -149 q 527 -171 507 -164 q 576 -178 547 -178 q 657 -78 657 -178 l 657 0 l 610 0 l 397 407 l 185 0 l 13 0 l 303 510 l 36 958 l 215 958 l 400 614 l 588 958 l 760 958 l 494 518 l 717 126 l 818 126 l 818 -67 z "},"Ӿ":{"ha":833,"x_min":29,"x_max":806,"o":"m 806 0 l 626 0 l 414 407 l 200 0 l 29 0 l 288 456 l 89 456 l 89 565 l 286 565 l 53 958 l 232 958 l 417 614 l 604 958 l 775 958 l 539 565 l 744 565 l 744 456 l 546 456 l 806 0 z "},"Ԁ":{"ha":833,"x_min":54,"x_max":724,"o":"m 419 0 q 153 76 253 0 q 54 303 54 153 q 155 528 54 447 q 431 610 256 610 l 563 610 l 563 958 l 724 958 l 724 0 l 419 0 m 563 124 l 563 489 l 432 489 q 224 303 224 489 q 276 165 224 207 q 426 124 329 124 l 563 124 z "},"Ԃ":{"ha":833,"x_min":13,"x_max":811,"o":"m 804 525 q 811 346 811 435 q 749 70 811 161 q 575 -21 686 -21 q 473 6 517 -21 q 403 82 429 32 q 231 -19 338 -19 q 122 14 172 -19 q 42 113 72 47 q 13 274 13 179 q 92 514 13 428 q 313 600 172 600 l 372 600 l 372 958 l 513 958 l 513 207 q 529 124 513 153 q 578 96 546 96 q 671 343 671 96 q 664 525 671 428 l 804 525 m 257 96 q 320 119 294 96 q 372 193 346 142 l 372 489 l 314 489 q 196 436 238 489 q 154 275 154 383 q 182 139 154 182 q 257 96 210 96 z "},"Ԅ":{"ha":833,"x_min":31,"x_max":803,"o":"m 796 528 q 803 354 803 438 q 734 73 803 164 q 543 -18 665 -18 q 388 28 449 -18 q 282 171 326 74 l 176 394 l 67 394 l 67 511 l 168 511 q 313 551 264 511 q 361 681 361 592 q 311 801 361 764 q 154 839 261 839 l 31 839 l 31 958 l 156 958 q 435 888 340 958 q 529 681 529 818 q 331 425 529 490 l 431 207 q 481 127 456 150 q 543 104 506 104 q 621 161 593 104 q 649 354 649 218 q 642 528 649 431 l 796 528 z "},"Ԇ":{"ha":833,"x_min":93,"x_max":776,"o":"m 776 126 l 776 -218 l 651 -218 l 628 0 l 569 0 l 328 394 l 133 394 l 133 513 l 342 513 q 486 553 438 513 q 535 681 535 593 q 487 801 535 764 q 339 839 439 839 l 93 839 l 93 958 l 329 958 q 703 681 703 958 q 643 514 703 581 q 485 417 583 447 l 675 126 l 776 126 z "},"Ԉ":{"ha":833,"x_min":1,"x_max":821,"o":"m 814 525 q 821 346 821 435 q 758 70 821 161 q 583 -21 694 -21 q 438 40 494 -21 q 381 215 381 100 l 381 840 l 271 840 l 251 539 q 218 236 239 340 q 166 81 197 132 q 75 -19 135 29 l 1 82 q 52 154 33 113 q 85 292 71 196 q 114 574 100 388 l 142 958 l 521 958 l 521 207 q 538 124 521 153 q 588 96 556 96 q 679 343 679 96 q 672 525 679 428 l 814 525 z "},"Ԋ":{"ha":833,"x_min":58,"x_max":821,"o":"m 813 525 q 821 346 821 444 q 757 70 821 161 q 581 -21 693 -21 q 432 40 490 -21 q 374 215 374 100 l 374 435 l 203 435 l 203 0 l 58 0 l 58 958 l 203 958 l 203 558 l 374 558 l 374 958 l 518 958 l 518 207 q 535 124 518 153 q 585 96 553 96 q 651 154 626 96 q 676 343 676 213 q 669 525 676 428 l 813 525 z "},"Ԍ":{"ha":833,"x_min":51,"x_max":764,"o":"m 442 -18 q 153 109 256 -18 q 51 481 51 236 q 108 751 51 639 q 259 921 164 864 q 469 978 354 978 q 628 951 563 978 q 754 867 694 924 l 664 774 q 574 833 619 814 q 474 851 529 851 q 291 762 363 851 q 219 481 219 672 q 276 195 219 283 q 449 107 332 107 q 607 147 538 107 l 607 411 l 444 411 l 428 535 l 764 535 l 764 69 q 613 5 690 28 q 442 -18 536 -18 z "},"Ԏ":{"ha":833,"x_min":19,"x_max":794,"o":"m 788 526 q 794 350 794 436 q 753 144 794 226 q 646 22 713 61 q 499 -18 579 -18 q 324 51 393 -18 q 256 247 256 119 l 256 829 l 19 829 l 19 958 l 683 958 l 667 829 l 417 829 l 417 239 q 504 101 417 101 q 602 160 565 101 q 639 350 639 218 q 632 526 639 432 l 788 526 z "},"Ԑ":{"ha":833,"x_min":71,"x_max":800,"o":"m 446 978 q 625 948 544 978 q 778 857 706 918 l 694 768 q 583 833 640 811 q 454 854 525 854 q 316 818 368 854 q 264 715 264 782 q 317 610 264 646 q 453 574 369 574 l 613 574 l 594 450 l 447 450 q 294 408 350 450 q 238 281 238 365 q 294 153 238 200 q 451 107 351 107 q 711 204 597 107 l 800 118 q 644 17 735 51 q 444 -18 553 -18 q 246 19 331 -18 q 116 124 161 57 q 71 278 71 192 q 138 444 71 382 q 308 518 204 506 q 158 583 214 532 q 103 718 103 635 q 147 853 103 794 q 268 945 190 913 q 446 978 346 978 z "},"Ԓ":{"ha":833,"x_min":7,"x_max":735,"o":"m 735 -67 q 674 -242 735 -182 q 504 -301 614 -301 q 336 -246 410 -301 l 396 -149 q 444 -171 424 -164 q 493 -178 464 -178 q 574 -78 574 -178 l 574 829 l 356 829 l 329 594 q 274 256 304 371 q 200 85 244 140 q 74 -19 156 29 l 7 92 q 77 167 51 126 q 126 303 103 207 q 171 582 150 399 l 215 958 l 735 958 l 735 -67 z "},"Ԕ":{"ha":833,"x_min":-6,"x_max":843,"o":"m 843 0 l 699 0 l 554 408 l 415 0 l 276 0 l 467 511 l 340 836 l 264 836 l 243 539 q 210 237 231 340 q 159 81 190 133 q 68 -19 128 29 l -6 82 q 45 154 26 113 q 78 292 64 196 q 107 574 93 388 l 135 958 l 138 956 l 136 958 l 438 958 l 561 610 l 683 958 l 822 958 l 644 515 l 843 0 z "},"Ԗ":{"ha":833,"x_min":58,"x_max":828,"o":"m 665 0 l 468 436 q 375 367 429 392 q 257 342 321 342 l 207 342 l 207 0 l 58 0 l 58 958 l 251 958 q 467 879 389 958 q 546 660 544 800 l 679 958 l 822 958 l 601 499 l 828 0 l 665 0 m 249 463 q 365 508 322 463 q 407 657 407 554 q 367 794 407 749 q 254 840 326 840 l 207 840 l 207 463 l 249 463 z "},"Ԙ":{"ha":833,"x_min":7,"x_max":831,"o":"m 831 121 l 831 0 l 397 0 l 397 371 l 321 371 l 176 0 l 7 0 l 183 404 q 24 664 24 483 q 65 819 24 753 q 183 922 107 886 q 361 958 260 958 l 822 958 l 806 838 l 550 838 l 550 547 l 758 547 l 758 426 l 550 426 l 550 121 l 831 121 m 397 840 l 351 840 q 228 796 272 840 q 185 664 185 751 q 225 533 185 576 q 333 489 265 489 l 397 489 l 397 840 z "},"Ԛ":{"ha":833,"x_min":56,"x_max":844,"o":"m 781 479 q 734 212 781 322 q 581 44 688 101 q 748 -27 688 24 q 844 -185 808 -78 l 696 -240 q 628 -113 664 -161 q 538 -40 592 -65 q 403 -15 483 -15 q 145 116 235 -15 q 56 478 56 247 q 149 842 56 707 q 418 978 243 978 q 688 844 594 978 q 781 479 781 711 m 613 479 q 567 760 613 669 q 418 851 522 851 q 269 760 314 851 q 224 478 224 668 q 270 198 224 289 q 418 107 317 107 q 567 198 522 107 q 613 479 613 289 z "},"Ԝ":{"ha":833,"x_min":3,"x_max":831,"o":"m 699 0 l 510 0 l 415 710 l 317 0 l 125 0 l 3 958 l 158 958 l 233 156 l 336 847 l 501 847 l 597 156 l 686 958 l 831 958 l 699 0 z "},"Ԟ":{"ha":833,"x_min":104,"x_max":821,"o":"m 821 0 l 636 0 l 367 440 l 265 440 l 265 0 l 104 0 l 104 958 l 265 958 l 265 565 l 367 565 l 476 729 l 324 817 l 376 910 l 536 818 l 631 958 l 794 958 l 657 749 l 801 667 l 747 574 l 597 660 l 501 514 l 821 0 z "},"Ԡ":{"ha":833,"x_min":-15,"x_max":808,"o":"m 633 632 q 762 576 715 632 q 808 428 808 519 l 808 -74 q 749 -241 808 -181 q 597 -301 690 -301 q 431 -246 504 -301 l 488 -156 q 535 -178 513 -171 q 586 -186 557 -186 q 667 -87 667 -186 l 667 413 q 596 508 667 508 q 504 468 549 508 l 504 0 l 364 0 l 364 840 l 254 840 l 233 539 q 201 238 221 342 q 149 81 181 133 q 58 -19 118 29 l -15 82 q 35 154 17 113 q 69 292 54 196 q 97 574 83 388 l 125 958 l 504 958 l 504 581 q 633 632 560 632 z "},"Ԣ":{"ha":833,"x_min":35,"x_max":818,"o":"m 629 632 q 767 574 717 632 q 818 418 818 515 l 818 -74 q 758 -242 818 -182 q 603 -301 699 -301 q 435 -246 508 -301 l 493 -154 q 540 -177 518 -169 q 592 -185 563 -185 q 672 -85 672 -185 l 672 413 q 592 508 672 508 q 494 468 543 508 l 494 0 l 351 0 l 351 435 l 179 435 l 179 0 l 35 0 l 35 958 l 179 958 l 179 558 l 351 558 l 351 958 l 494 958 l 494 581 q 629 632 553 632 z "},"Ҍ":{"ha":833,"x_min":42,"x_max":794,"o":"m 433 603 q 697 528 600 603 q 794 311 794 454 q 694 78 794 156 q 428 0 594 0 l 153 0 l 153 732 l 42 732 l 42 835 l 153 835 l 153 958 l 314 958 l 314 835 l 490 835 l 490 732 l 314 732 l 314 603 l 433 603 m 431 124 q 626 310 626 124 q 431 482 626 482 l 314 482 l 314 124 l 431 124 z "},"Ҏ":{"ha":833,"x_min":133,"x_max":783,"o":"m 783 656 q 749 508 783 572 q 651 404 714 443 l 756 233 l 646 233 l 565 364 q 410 342 490 342 l 293 342 l 293 0 l 133 0 l 133 958 l 399 958 q 683 883 583 958 q 783 656 783 807 m 415 464 q 499 474 465 464 l 382 665 l 492 665 l 581 519 q 619 654 619 567 q 414 838 619 838 l 293 838 l 293 464 l 415 464 z "},"а":{"ha":833,"x_min":78,"x_max":740,"o":"m 685 179 q 697 117 685 138 q 740 88 710 97 l 704 -18 q 553 83 589 -4 q 452 8 513 33 q 319 -18 392 -18 q 143 44 208 -18 q 78 210 78 107 q 169 388 78 325 q 426 450 260 450 l 531 450 l 531 497 q 489 599 531 567 q 368 631 447 631 q 278 621 329 631 q 174 593 226 611 l 135 703 q 392 753 267 753 q 611 689 538 753 q 685 507 685 625 l 685 179 m 365 96 q 459 121 414 96 q 531 190 504 146 l 531 353 l 444 353 q 290 317 339 353 q 242 215 242 282 q 273 126 242 157 q 365 96 304 96 z "},"б":{"ha":833,"x_min":88,"x_max":744,"o":"m 471 688 q 613 647 551 688 q 710 528 675 606 q 744 346 744 451 q 703 147 744 229 q 587 24 661 65 q 415 -18 513 -18 q 175 87 263 -18 q 88 407 88 192 q 112 668 88 565 q 197 837 136 771 q 367 939 257 903 q 501 988 451 967 q 608 1046 551 1010 l 669 938 q 569 883 622 907 q 438 831 515 858 q 336 781 374 808 q 277 702 299 753 q 247 565 256 651 q 342 656 286 624 q 471 688 399 688 m 415 100 q 538 153 493 100 q 582 343 582 207 q 544 517 582 464 q 435 569 507 569 q 331 538 379 569 q 250 449 283 506 l 250 358 q 293 167 250 233 q 415 100 336 100 z "},"в":{"ha":833,"x_min":138,"x_max":753,"o":"m 567 400 q 753 218 753 379 q 662 54 753 108 q 431 0 571 0 l 138 0 l 138 725 q 407 753 283 753 q 633 702 549 753 q 717 560 717 651 q 681 459 717 499 q 567 400 644 419 m 407 642 q 293 633 347 642 l 293 439 l 422 439 q 526 463 490 439 q 561 542 561 488 q 524 618 561 594 q 407 642 486 642 m 414 114 q 544 137 496 114 q 592 225 592 160 q 432 339 592 339 l 293 339 l 293 114 l 414 114 z "},"г":{"ha":833,"x_min":200,"x_max":736,"o":"m 200 0 l 200 733 l 736 733 l 718 608 l 356 608 l 356 0 l 200 0 z "},"ѓ":{"ha":833,"x_min":200,"x_max":736,"o":"m 200 0 l 200 733 l 736 733 l 718 608 l 356 608 l 356 0 l 200 0 m 649 1003 l 344 879 l 299 961 l 583 1126 l 649 1003 z "},"ґ":{"ha":833,"x_min":200,"x_max":736,"o":"m 736 928 l 736 733 l 718 608 l 356 608 l 356 0 l 200 0 l 200 733 l 586 733 l 586 928 l 736 928 z "},"д":{"ha":833,"x_min":29,"x_max":763,"o":"m 763 121 l 763 -218 l 640 -218 l 618 0 l 175 0 l 153 -218 l 29 -218 l 29 121 l 82 121 q 133 190 114 150 q 166 301 153 229 q 189 497 179 374 l 206 733 l 703 733 l 703 121 l 763 121 m 551 617 l 344 617 l 338 506 q 314 304 328 376 q 277 192 300 232 q 213 121 254 151 l 236 121 l 551 121 l 551 617 z "},"е":{"ha":833,"x_min":92,"x_max":743,"o":"m 253 317 q 315 156 260 210 q 453 103 369 103 q 551 119 504 103 q 646 167 597 135 l 713 72 q 592 6 661 29 q 446 -18 522 -18 q 185 87 278 -18 q 92 367 92 192 q 132 565 92 476 q 249 703 172 653 q 426 753 325 753 q 658 655 572 753 q 743 386 743 557 q 739 317 743 344 l 253 317 m 428 638 q 306 583 353 638 q 251 422 258 529 l 592 422 q 547 582 589 526 q 428 638 506 638 z "},"ѐ":{"ha":833,"x_min":92,"x_max":743,"o":"m 253 317 q 315 156 260 210 q 453 103 369 103 q 551 119 504 103 q 646 167 597 135 l 713 72 q 592 6 661 29 q 446 -18 522 -18 q 185 87 278 -18 q 92 367 92 192 q 132 565 92 476 q 249 703 172 653 q 426 753 325 753 q 658 655 572 753 q 743 386 743 557 q 739 317 743 344 l 253 317 m 428 638 q 306 583 353 638 q 251 422 258 529 l 592 422 q 547 582 589 526 q 428 638 506 638 m 257 993 l 329 1118 l 603 946 l 556 864 l 257 993 z "},"ё":{"ha":833,"x_min":92,"x_max":743,"o":"m 253 317 q 315 156 260 210 q 453 103 369 103 q 551 119 504 103 q 646 167 597 135 l 713 72 q 592 6 661 29 q 446 -18 522 -18 q 185 87 278 -18 q 92 367 92 192 q 132 565 92 476 q 249 703 172 653 q 426 753 325 753 q 658 655 572 753 q 743 386 743 557 q 739 317 743 344 l 253 317 m 428 638 q 306 583 353 638 q 251 422 258 529 l 592 422 q 547 582 589 526 q 428 638 506 638 m 279 894 q 214 919 240 894 q 188 982 188 944 q 214 1046 188 1021 q 279 1071 240 1071 q 342 1046 317 1071 q 368 982 368 1021 q 342 919 368 944 q 279 894 317 894 m 579 894 q 515 919 542 894 q 489 982 489 944 q 515 1045 489 1019 q 579 1071 542 1071 q 644 1046 618 1071 q 669 982 669 1021 q 644 919 669 944 q 579 894 618 894 z "},"ж":{"ha":833,"x_min":14,"x_max":819,"o":"m 357 335 l 294 335 l 160 0 l 14 0 l 183 394 l 24 733 l 171 733 l 293 438 l 357 438 l 357 733 l 476 733 l 476 438 l 540 438 l 668 733 l 810 733 l 650 394 l 819 0 l 674 0 l 538 335 l 476 335 l 476 0 l 357 0 l 357 335 z "},"з":{"ha":833,"x_min":60,"x_max":728,"o":"m 386 438 q 491 465 453 438 q 529 538 529 492 q 375 636 529 636 q 262 621 319 636 q 156 576 204 606 l 86 664 q 222 730 144 707 q 383 753 300 753 q 603 700 518 753 q 689 551 689 647 q 529 390 689 433 q 671 340 614 385 q 728 217 728 296 q 632 43 728 104 q 381 -18 536 -18 q 60 82 186 -18 l 131 176 q 247 119 188 139 q 382 100 307 100 q 517 132 471 100 q 564 219 564 164 q 522 299 564 272 q 397 325 479 325 l 244 325 l 254 438 l 386 438 z "},"и":{"ha":833,"x_min":124,"x_max":710,"o":"m 710 0 l 560 0 l 560 301 q 567 466 560 389 q 581 575 574 543 l 297 0 l 124 0 l 124 733 l 274 733 l 274 431 q 267 271 274 350 q 253 161 261 192 l 533 733 l 710 733 l 710 0 z "},"й":{"ha":833,"x_min":124,"x_max":710,"o":"m 710 0 l 560 0 l 560 301 q 567 466 560 389 q 581 575 574 543 l 297 0 l 124 0 l 124 733 l 274 733 l 274 431 q 267 271 274 350 q 253 161 261 192 l 533 733 l 710 733 l 710 0 m 414 881 q 264 930 322 881 q 197 1058 206 979 l 292 1078 q 414 993 318 993 q 539 1078 515 993 l 635 1058 q 567 930 626 979 q 414 881 507 881 z "},"ѝ":{"ha":833,"x_min":124,"x_max":710,"o":"m 710 0 l 560 0 l 560 301 q 567 466 560 389 q 581 575 574 543 l 297 0 l 124 0 l 124 733 l 274 733 l 274 431 q 267 271 274 350 q 253 161 261 192 l 533 733 l 710 733 l 710 0 m 244 993 l 317 1118 l 590 946 l 543 864 l 244 993 z "},"ҋ":{"ha":833,"x_min":114,"x_max":803,"o":"m 397 881 q 247 930 306 881 q 179 1058 188 979 l 275 1078 q 397 993 299 993 q 522 1078 496 993 l 618 1058 q 549 930 610 979 q 397 881 489 881 m 803 131 l 694 -218 l 567 -218 l 618 0 l 535 0 l 535 301 q 554 589 535 463 l 288 0 l 114 0 l 114 733 l 264 733 l 264 431 q 256 269 264 347 q 238 142 249 190 l 510 733 l 683 733 l 683 131 l 803 131 z "},"к":{"ha":833,"x_min":129,"x_max":800,"o":"m 129 733 l 285 733 l 285 443 l 414 443 l 606 733 l 768 733 l 538 394 l 800 0 l 624 0 l 411 329 l 285 329 l 285 0 l 129 0 l 129 733 z "},"ќ":{"ha":833,"x_min":129,"x_max":800,"o":"m 129 733 l 285 733 l 285 443 l 414 443 l 606 733 l 768 733 l 538 394 l 800 0 l 624 0 l 411 329 l 285 329 l 285 0 l 129 0 l 129 733 m 622 1003 l 318 879 l 272 961 l 557 1126 l 622 1003 z "},"л":{"ha":833,"x_min":43,"x_max":718,"o":"m 718 0 l 563 0 l 563 613 l 332 613 l 321 458 q 287 203 308 292 q 226 68 265 115 q 110 -19 186 21 l 43 79 q 106 137 83 104 q 145 242 129 169 q 172 451 161 314 l 193 733 l 718 733 l 718 0 z "},"м":{"ha":833,"x_min":47,"x_max":786,"o":"m 786 0 l 643 0 l 621 317 q 617 488 617 400 q 618 586 617 551 l 613 586 l 485 121 l 353 121 l 211 586 l 206 586 q 208 479 208 551 q 204 315 208 394 l 189 0 l 47 0 l 99 733 l 283 733 l 421 251 l 544 733 l 733 733 l 786 0 z "},"н":{"ha":833,"x_min":124,"x_max":710,"o":"m 554 314 l 279 314 l 279 0 l 124 0 l 124 733 l 279 733 l 279 435 l 554 435 l 554 733 l 710 733 l 710 0 l 554 0 l 554 314 z "},"о":{"ha":833,"x_min":85,"x_max":749,"o":"m 418 753 q 663 649 576 753 q 749 368 749 546 q 661 86 749 190 q 417 -18 574 -18 q 172 84 258 -18 q 85 367 85 186 q 173 647 85 542 q 418 753 261 753 m 418 632 q 291 567 333 632 q 249 367 249 501 q 290 166 249 231 q 417 101 332 101 q 543 167 501 101 q 585 368 585 232 q 543 567 585 503 q 418 632 501 632 z "},"п":{"ha":833,"x_min":124,"x_max":710,"o":"m 556 613 l 278 613 l 278 0 l 124 0 l 124 733 l 710 733 l 710 0 l 556 0 l 556 613 z "},"р":{"ha":833,"x_min":124,"x_max":749,"o":"m 482 753 q 749 368 749 753 q 675 88 749 194 q 465 -18 601 -18 q 279 63 350 -18 l 279 -282 l 124 -300 l 124 733 l 258 733 l 268 639 q 365 724 310 694 q 482 753 419 753 m 439 633 q 350 604 390 633 q 279 528 310 575 l 279 185 q 424 103 333 103 q 544 167 504 103 q 585 367 585 231 q 549 570 585 507 q 439 633 513 633 z "},"с":{"ha":833,"x_min":115,"x_max":729,"o":"m 478 110 q 658 172 565 110 l 729 72 q 613 6 681 31 q 472 -18 544 -18 q 210 85 304 -18 q 115 363 115 189 q 158 563 115 475 q 283 702 201 651 q 475 753 364 753 q 729 664 621 753 l 657 567 q 478 628 568 628 q 333 562 386 628 q 281 363 281 496 q 333 171 281 232 q 478 110 386 110 z "},"т":{"ha":833,"x_min":79,"x_max":763,"o":"m 744 613 l 494 613 l 494 0 l 339 0 l 339 613 l 79 613 l 79 733 l 763 733 l 744 613 z "},"у":{"ha":833,"x_min":68,"x_max":765,"o":"m 513 -3 q 384 -212 468 -136 q 153 -300 300 -287 l 133 -183 q 250 -149 206 -172 q 321 -92 294 -126 q 368 0 347 -57 l 315 0 l 68 733 l 233 733 l 418 108 l 606 733 l 765 733 l 513 -3 z "},"ў":{"ha":833,"x_min":68,"x_max":765,"o":"m 513 -3 q 384 -212 468 -136 q 153 -300 300 -287 l 133 -183 q 250 -149 206 -172 q 321 -92 294 -126 q 368 0 347 -57 l 315 0 l 68 733 l 233 733 l 418 108 l 606 733 l 765 733 l 513 -3 m 414 881 q 264 930 322 881 q 197 1058 206 979 l 292 1078 q 414 993 318 993 q 539 1078 515 993 l 635 1058 q 567 930 626 979 q 414 881 507 881 z "},"ф":{"ha":833,"x_min":32,"x_max":801,"o":"m 479 1029 l 479 681 q 615 753 533 753 q 761 656 721 753 q 801 367 801 558 q 751 84 801 186 q 601 -18 700 -18 q 479 54 531 -18 l 479 -283 l 354 -300 l 354 54 q 229 -18 303 -18 q 82 84 132 -18 q 32 367 32 186 q 76 653 32 554 q 226 753 121 753 q 295 736 264 753 q 354 683 326 719 l 354 1046 l 479 1029 m 268 639 q 201 576 221 639 q 181 367 181 514 q 201 157 181 219 q 268 94 221 94 q 309 108 292 94 q 354 156 326 122 l 354 582 q 313 626 331 613 q 268 639 294 639 m 574 639 q 524 626 546 639 q 479 582 503 613 l 479 156 q 522 109 503 124 q 565 94 540 94 q 632 158 611 94 q 653 367 653 221 q 635 578 653 517 q 574 639 618 639 z "},"х":{"ha":833,"x_min":60,"x_max":774,"o":"m 60 0 l 324 386 l 89 733 l 268 733 l 418 475 l 568 733 l 739 733 l 510 393 l 774 0 l 592 0 l 411 300 l 232 0 l 60 0 z "},"ч":{"ha":833,"x_min":99,"x_max":699,"o":"m 699 0 l 543 0 l 543 296 q 444 240 501 260 q 321 219 386 219 q 156 278 213 219 q 99 440 99 336 l 99 733 l 254 733 l 254 458 q 283 366 254 394 q 369 338 311 338 q 465 357 417 338 q 543 408 514 376 l 543 733 l 699 733 l 699 0 z "},"ц":{"ha":833,"x_min":110,"x_max":804,"o":"m 804 121 l 804 -218 l 681 -218 l 658 0 l 110 0 l 110 733 l 265 733 l 265 122 l 542 122 l 542 733 l 697 733 l 697 121 l 804 121 z "},"ш":{"ha":833,"x_min":56,"x_max":778,"o":"m 778 0 l 56 0 l 56 733 l 194 733 l 194 122 l 353 122 l 353 733 l 481 733 l 481 122 l 639 122 l 639 733 l 778 733 l 778 0 z "},"щ":{"ha":833,"x_min":56,"x_max":867,"o":"m 867 121 l 867 -218 l 743 -218 l 721 0 l 56 0 l 56 733 l 194 733 l 194 122 l 353 122 l 353 733 l 481 733 l 481 122 l 639 122 l 639 733 l 778 733 l 778 121 l 867 121 z "},"џ":{"ha":833,"x_min":124,"x_max":710,"o":"m 710 0 l 489 0 l 489 -218 l 365 -218 l 343 0 l 124 0 l 124 733 l 278 733 l 278 122 l 556 122 l 556 733 l 710 733 l 710 0 z "},"ь":{"ha":833,"x_min":156,"x_max":753,"o":"m 311 507 l 429 507 q 676 443 599 507 q 753 256 753 379 q 667 63 753 125 q 447 0 582 0 l 156 0 l 156 733 l 311 733 l 311 507 m 311 396 l 311 115 l 440 115 q 551 147 513 115 q 589 257 589 179 q 553 363 589 329 q 429 396 517 396 l 311 396 z "},"ъ":{"ha":833,"x_min":36,"x_max":771,"o":"m 354 507 l 429 507 q 771 257 771 507 q 683 62 771 124 q 439 0 596 0 l 199 0 l 199 618 l 36 618 l 36 733 l 354 733 l 354 507 m 354 394 l 354 115 l 440 115 q 564 147 521 115 q 607 258 607 178 q 565 363 607 331 q 439 394 522 394 l 354 394 z "},"ы":{"ha":833,"x_min":67,"x_max":767,"o":"m 207 501 l 243 501 q 560 256 560 501 q 478 63 560 126 q 251 0 397 0 l 67 0 l 67 733 l 207 733 l 207 501 m 767 0 l 625 0 l 625 733 l 767 733 l 767 0 m 207 397 l 207 108 l 253 108 q 370 142 331 108 q 410 257 410 175 q 372 365 410 332 q 250 397 333 397 l 207 397 z "},"љ":{"ha":833,"x_min":-1,"x_max":828,"o":"m 514 500 l 531 500 q 828 254 828 500 q 751 65 828 129 q 538 0 674 0 l 376 0 l 376 621 l 254 621 l 247 446 q 220 201 240 288 q 162 67 200 114 q 51 -19 124 21 l -1 81 q 51 138 31 106 q 85 242 71 169 q 107 446 100 314 l 121 733 l 514 733 l 514 500 m 514 396 l 514 107 l 536 107 q 644 140 610 107 q 679 256 679 172 q 646 364 679 332 q 535 396 613 396 l 514 396 z "},"њ":{"ha":833,"x_min":79,"x_max":832,"o":"m 518 464 l 535 464 q 832 233 832 464 q 754 56 832 113 q 535 0 676 0 l 381 0 l 381 358 l 219 358 l 219 0 l 79 0 l 79 733 l 219 733 l 219 464 l 381 464 l 381 733 l 518 733 l 518 464 m 518 361 l 518 108 l 536 108 q 649 134 614 108 q 685 235 685 160 q 651 332 685 303 q 540 361 617 361 l 518 361 z "},"ѕ":{"ha":833,"x_min":89,"x_max":714,"o":"m 390 100 q 506 126 464 100 q 549 199 549 153 q 536 251 549 231 q 486 288 524 271 q 374 325 449 306 q 192 403 253 356 q 132 542 132 451 q 211 695 132 638 q 425 753 290 753 q 704 668 588 753 l 638 569 q 429 635 539 635 q 290 554 290 635 q 306 508 290 526 q 361 474 322 490 q 476 438 400 458 q 655 356 596 404 q 714 210 714 307 q 621 40 714 97 q 390 -18 528 -18 q 89 85 208 -18 l 171 179 q 273 122 217 143 q 390 100 329 100 z "},"є":{"ha":833,"x_min":115,"x_max":729,"o":"m 474 753 q 729 668 624 753 l 660 574 q 478 633 572 633 q 341 582 394 633 q 275 431 288 531 l 593 431 l 593 321 l 275 321 q 338 156 283 210 q 478 103 392 103 q 573 117 529 103 q 661 163 617 132 l 729 68 q 611 4 679 26 q 474 -18 543 -18 q 210 85 304 -18 q 115 363 115 188 q 158 563 115 475 q 283 702 201 651 q 474 753 364 753 z "},"э":{"ha":833,"x_min":115,"x_max":729,"o":"m 386 753 q 641 649 553 753 q 729 368 729 546 q 636 87 729 192 q 374 -18 543 -18 q 233 5 300 -18 q 115 71 167 28 l 188 164 q 274 117 229 132 q 371 103 318 103 q 571 321 553 103 l 253 321 l 253 431 l 568 431 q 378 633 550 633 q 193 574 275 633 l 122 667 q 386 753 232 753 z "},"і":{"ha":833,"x_min":150,"x_max":724,"o":"m 417 1093 q 490 1065 461 1093 q 518 994 518 1036 q 490 925 518 953 q 417 897 461 897 q 343 925 371 897 q 315 994 315 953 q 344 1065 315 1038 q 417 1093 372 1093 m 524 114 l 724 114 l 724 0 l 150 0 l 150 114 l 368 114 l 368 619 l 157 619 l 157 733 l 524 733 l 524 114 z "},"ї":{"ha":833,"x_min":150,"x_max":724,"o":"m 524 114 l 724 114 l 724 0 l 150 0 l 150 114 l 368 114 l 368 619 l 157 619 l 157 733 l 524 733 l 524 114 m 267 894 q 201 919 228 894 q 175 982 175 944 q 201 1046 175 1021 q 267 1071 228 1071 q 330 1046 304 1071 q 356 982 356 1021 q 330 919 356 944 q 267 894 304 894 m 567 894 q 503 919 529 894 q 476 982 476 944 q 503 1045 476 1019 q 567 1071 529 1071 q 631 1046 606 1071 q 657 982 657 1021 q 631 919 657 944 q 567 894 606 894 z "},"ј":{"ha":833,"x_min":119,"x_max":632,"o":"m 511 1093 q 585 1065 557 1093 q 613 994 613 1038 q 585 925 613 953 q 511 897 557 897 q 438 925 467 897 q 410 994 410 953 q 438 1065 410 1036 q 511 1093 467 1093 m 632 154 q 511 -150 632 -44 q 144 -300 390 -256 l 119 -181 q 387 -74 297 -147 q 476 144 476 0 l 476 619 l 188 619 l 188 733 l 632 733 l 632 154 z "},"ћ":{"ha":833,"x_min":21,"x_max":711,"o":"m 507 753 q 660 697 608 753 q 711 535 711 640 l 711 0 l 556 0 l 556 511 q 531 605 556 576 q 450 633 506 633 q 356 602 401 633 q 279 525 311 571 l 279 0 l 124 0 l 124 828 l 21 828 l 21 935 l 124 935 l 124 1026 l 279 1043 l 279 935 l 499 935 l 499 828 l 279 828 l 279 643 q 383 725 324 697 q 507 753 442 753 z "},"ю":{"ha":833,"x_min":65,"x_max":799,"o":"m 542 753 q 735 653 672 753 q 799 368 799 553 q 736 83 799 185 q 542 -18 674 -18 q 358 70 419 -18 q 289 315 297 158 l 206 315 l 206 0 l 65 0 l 65 733 l 206 733 l 206 432 l 289 432 q 360 669 299 585 q 542 753 422 753 m 542 639 q 456 576 479 639 q 433 367 433 514 q 456 160 433 225 q 542 96 479 96 q 628 160 606 96 q 650 368 650 225 q 626 575 650 511 q 542 639 603 639 z "},"я":{"ha":833,"x_min":56,"x_max":696,"o":"m 696 733 l 696 0 l 540 0 l 540 274 l 375 274 l 226 0 l 56 0 l 232 308 q 137 387 169 338 q 104 503 104 436 q 185 673 104 613 q 418 733 267 733 l 696 733 m 540 382 l 540 624 l 415 624 q 303 594 340 624 q 267 506 267 565 q 302 412 267 442 q 414 382 338 382 l 540 382 z "},"ђ":{"ha":833,"x_min":21,"x_max":711,"o":"m 279 935 l 499 935 l 499 828 l 279 828 l 279 646 q 382 725 322 697 q 507 753 442 753 q 660 697 608 753 q 711 535 711 640 l 711 65 q 684 -112 711 -44 q 606 -221 657 -181 q 467 -299 554 -261 l 410 -185 q 494 -136 464 -160 q 540 -70 524 -112 q 556 43 556 -28 l 556 521 q 530 607 556 581 q 450 633 504 633 q 356 602 401 633 q 279 525 311 571 l 279 0 l 124 0 l 124 828 l 21 828 l 21 935 l 124 935 l 124 1026 l 279 1043 l 279 935 z "},"ѡ":{"ha":833,"x_min":31,"x_max":803,"o":"m 732 733 q 803 333 803 521 q 749 73 803 164 q 590 -18 694 -18 q 415 136 443 -18 q 243 -18 378 -18 q 84 71 138 -18 q 31 333 31 160 q 101 733 31 542 l 231 733 q 187 535 199 626 q 175 338 175 443 q 194 160 175 219 q 265 101 214 101 q 334 158 315 101 q 353 322 353 214 l 353 488 l 482 508 l 482 324 q 501 155 482 208 q 569 101 519 101 q 640 160 621 101 q 658 338 658 218 q 645 531 658 439 q 600 733 632 624 l 732 733 z "},"ѣ":{"ha":833,"x_min":69,"x_max":761,"o":"m 333 750 l 518 750 l 501 643 l 333 643 l 333 501 l 419 501 q 761 253 761 501 q 674 61 761 122 q 432 0 588 0 l 178 0 l 178 643 l 69 643 l 69 750 l 178 750 l 178 903 l 333 919 l 333 750 m 333 389 l 333 115 l 431 115 q 554 146 511 115 q 597 254 597 176 q 555 357 597 325 q 429 389 513 389 l 333 389 z "},"ѥ":{"ha":833,"x_min":88,"x_max":807,"o":"m 607 97 q 674 110 644 97 q 732 149 703 124 l 804 68 q 710 4 763 26 q 606 -18 658 -18 q 398 71 475 -18 q 311 315 321 160 l 231 315 l 231 0 l 88 0 l 88 733 l 231 733 l 231 432 l 313 432 q 405 665 328 578 q 610 753 482 753 q 807 674 719 753 l 736 592 q 676 627 706 615 q 611 639 647 639 q 504 587 542 639 q 456 431 467 535 l 703 431 l 703 321 l 454 321 q 499 151 458 206 q 607 97 540 97 z "},"ѧ":{"ha":833,"x_min":40,"x_max":794,"o":"m 544 272 l 475 272 l 475 0 l 354 0 l 354 272 l 285 272 l 189 0 l 40 0 l 324 733 l 513 733 l 794 0 l 643 0 l 544 272 m 504 383 l 414 638 l 324 383 l 504 383 z "},"ѩ":{"ha":833,"x_min":53,"x_max":840,"o":"m 635 271 l 588 271 l 588 0 l 479 0 l 479 271 l 435 271 l 363 0 l 233 0 l 313 271 l 189 271 l 189 0 l 53 0 l 53 733 l 189 733 l 189 381 l 344 381 l 447 733 l 625 733 l 840 0 l 710 0 l 635 271 m 606 381 l 535 639 l 465 381 l 606 381 z "},"ѫ":{"ha":833,"x_min":22,"x_max":813,"o":"m 813 0 l 676 0 l 576 307 l 488 307 l 488 0 l 347 0 l 347 307 l 258 307 l 160 0 l 22 0 l 171 417 l 288 417 l 125 656 l 125 733 l 700 733 l 700 656 l 538 417 l 664 417 l 813 0 m 415 417 l 549 631 l 279 631 l 415 417 z "},"ѭ":{"ha":833,"x_min":29,"x_max":861,"o":"m 861 0 l 729 0 l 649 308 l 600 308 l 600 0 l 474 0 l 474 308 l 424 308 l 342 0 l 211 0 l 306 308 l 165 308 l 165 0 l 29 0 l 29 733 l 165 733 l 165 418 l 415 418 l 272 656 l 272 733 l 790 733 l 790 656 l 649 418 l 735 418 l 861 0 m 535 418 l 650 635 l 418 635 l 535 418 z "},"ѯ":{"ha":833,"x_min":107,"x_max":729,"o":"m 640 1040 l 450 864 l 350 864 l 160 1040 l 224 1110 l 401 982 l 578 1110 l 640 1040 m 299 -304 q 155 -215 203 -264 q 107 -104 107 -167 q 163 8 107 -33 q 347 69 219 49 q 475 96 429 82 q 542 132 521 110 q 563 192 563 154 q 536 262 563 240 q 457 283 510 283 l 224 283 l 224 386 l 496 613 l 110 613 l 110 733 l 689 733 l 689 619 l 403 393 l 486 393 q 665 342 601 393 q 729 190 729 290 q 656 34 729 88 q 442 -42 582 -19 q 329 -65 367 -54 q 278 -87 292 -75 q 264 -118 264 -99 q 285 -162 264 -142 q 350 -206 307 -183 l 299 -304 z "},"ѱ":{"ha":833,"x_min":50,"x_max":796,"o":"m 485 103 q 590 142 554 113 q 640 224 626 172 q 653 363 653 276 q 618 733 653 518 l 758 733 q 796 354 796 546 q 721 97 796 189 q 485 -12 646 6 l 485 -282 l 351 -300 l 351 -12 q 123 78 196 1 q 50 274 50 156 l 50 733 l 192 733 l 192 281 q 228 155 192 197 q 351 103 265 113 l 351 733 l 485 733 l 485 103 z "},"ѳ":{"ha":833,"x_min":85,"x_max":749,"o":"m 418 753 q 663 649 576 753 q 749 368 749 546 q 661 86 749 190 q 417 -18 574 -18 q 172 84 258 -18 q 85 367 85 186 q 173 647 85 542 q 418 753 261 753 m 418 633 q 247 425 260 633 l 586 425 q 418 633 571 633 m 247 319 q 297 153 256 206 q 417 101 339 101 q 536 153 494 101 q 586 319 578 206 l 247 319 z "},"ѵ":{"ha":833,"x_min":60,"x_max":821,"o":"m 60 733 l 228 733 l 401 131 l 544 633 q 608 761 568 724 q 719 799 647 799 q 821 776 764 799 l 783 668 q 744 676 767 676 q 710 663 722 676 q 688 618 697 650 l 493 0 l 307 0 l 60 733 z "},"ѷ":{"ha":833,"x_min":60,"x_max":821,"o":"m 60 733 l 228 733 l 401 131 l 544 633 q 608 761 568 724 q 719 799 647 799 q 821 776 764 799 l 783 668 q 744 676 767 676 q 710 663 722 676 q 688 618 697 650 l 493 0 l 307 0 l 60 733 m 264 875 l 104 1111 l 224 1172 l 351 919 l 264 875 m 489 878 l 339 1115 l 460 1172 l 579 919 l 489 878 z "},"ѹ":{"ha":833,"x_min":-3,"x_max":844,"o":"m 217 -18 q 52 83 107 -18 q -3 367 -3 183 q 53 649 -3 544 q 217 753 108 753 q 383 651 329 753 q 436 368 436 550 q 382 84 436 186 q 217 -18 328 -18 m 400 -207 q 542 -138 494 -183 q 608 0 589 -93 l 550 0 l 431 733 l 560 733 l 639 108 l 719 733 l 844 733 l 724 6 q 624 -209 700 -135 q 422 -300 547 -283 l 400 -207 m 217 82 q 289 149 268 82 q 310 368 310 215 q 289 587 310 521 q 217 653 268 653 q 144 586 165 653 q 124 367 124 519 q 144 148 124 214 q 217 82 165 82 z "},"ғ":{"ha":833,"x_min":119,"x_max":776,"o":"m 396 608 l 396 425 l 565 425 l 565 315 l 396 315 l 396 0 l 240 0 l 240 315 l 119 315 l 119 425 l 240 425 l 240 733 l 776 733 l 758 608 l 396 608 z "},"ҕ":{"ha":833,"x_min":131,"x_max":711,"o":"m 711 -67 q 651 -241 711 -181 q 483 -301 590 -301 q 315 -246 389 -301 l 375 -153 q 424 -174 406 -168 q 472 -181 443 -181 q 556 -81 556 -181 l 556 249 q 530 338 556 310 q 456 365 504 365 q 365 339 406 365 q 286 264 325 313 l 286 0 l 131 0 l 131 733 l 611 733 l 590 615 l 286 615 l 286 383 q 381 456 326 429 q 501 483 436 483 q 654 425 597 483 q 711 260 711 367 l 711 -67 z "},"җ":{"ha":833,"x_min":24,"x_max":843,"o":"m 843 121 l 843 -218 l 739 -218 l 715 0 l 664 0 l 538 335 l 476 335 l 476 0 l 357 0 l 357 335 l 294 335 l 169 0 l 24 0 l 183 394 l 33 733 l 179 733 l 293 438 l 357 438 l 357 733 l 476 733 l 476 438 l 540 438 l 658 733 l 800 733 l 650 394 l 761 121 l 843 121 z "},"ҙ":{"ha":833,"x_min":60,"x_max":728,"o":"m 728 217 q 652 58 728 118 q 449 -15 576 -3 l 449 -75 q 549 -115 515 -81 q 583 -199 583 -149 q 531 -304 583 -265 q 399 -343 478 -343 q 315 -333 356 -343 q 247 -307 275 -324 l 289 -226 q 381 -250 336 -250 q 460 -197 460 -250 q 430 -154 460 -165 q 338 -143 400 -143 l 349 -18 q 60 82 176 -11 l 131 176 q 247 119 188 139 q 382 100 307 100 q 517 132 471 100 q 564 219 564 164 q 522 299 564 272 q 397 325 479 325 l 244 325 l 254 438 l 386 438 q 491 465 453 438 q 529 538 529 492 q 375 636 529 636 q 262 621 319 636 q 156 576 204 606 l 86 664 q 222 730 144 707 q 383 753 300 753 q 603 700 518 753 q 689 551 689 647 q 529 390 689 433 q 671 340 614 385 q 728 217 728 296 z "},"қ":{"ha":833,"x_min":129,"x_max":821,"o":"m 821 121 l 821 -218 l 697 -218 l 675 0 l 624 0 l 411 329 l 285 329 l 285 0 l 129 0 l 129 733 l 285 733 l 285 443 l 414 443 l 606 733 l 768 733 l 538 394 l 719 121 l 821 121 z "},"ҝ":{"ha":833,"x_min":129,"x_max":800,"o":"m 129 733 l 282 733 l 282 439 l 339 439 l 339 599 l 406 599 l 406 439 l 439 439 l 613 733 l 768 733 l 563 394 l 800 0 l 633 0 l 439 333 l 406 333 l 406 165 l 339 165 l 339 333 l 282 333 l 282 0 l 129 0 l 129 733 z "},"ҟ":{"ha":833,"x_min":40,"x_max":793,"o":"m 793 0 l 617 0 l 404 329 l 306 329 l 306 0 l 150 0 l 150 786 l 40 786 l 40 893 l 150 893 l 150 1028 l 306 1046 l 306 893 l 499 893 l 499 786 l 306 786 l 306 443 l 407 443 l 599 733 l 761 733 l 532 394 l 793 0 z "},"ҡ":{"ha":833,"x_min":7,"x_max":822,"o":"m 822 0 l 647 0 l 438 329 l 325 329 l 325 0 l 169 0 l 169 618 l 7 618 l 7 733 l 325 733 l 325 443 l 442 443 l 629 733 l 792 733 l 565 394 l 822 0 z "},"ң":{"ha":833,"x_min":100,"x_max":794,"o":"m 794 121 l 794 -218 l 672 -218 l 649 0 l 532 0 l 532 314 l 256 314 l 256 0 l 100 0 l 100 733 l 256 733 l 256 435 l 532 435 l 532 733 l 688 733 l 688 121 l 794 121 z "},"ԥ":{"ha":833,"x_min":113,"x_max":806,"o":"m 806 121 l 806 -218 l 683 -218 l 661 0 l 544 0 l 544 613 l 268 613 l 268 0 l 113 0 l 113 733 l 699 733 l 699 121 l 806 121 z "},"ҧ":{"ha":833,"x_min":33,"x_max":832,"o":"m 651 483 q 782 428 732 483 q 832 282 832 374 l 832 -71 q 773 -242 832 -182 q 613 -301 714 -301 q 446 -246 519 -301 l 504 -156 q 551 -178 531 -171 q 603 -185 572 -185 q 686 -89 686 -185 l 686 276 q 667 344 686 321 q 610 368 647 368 q 508 328 553 368 l 508 0 l 361 0 l 361 615 l 181 615 l 181 0 l 33 0 l 33 733 l 508 733 l 508 432 q 651 483 567 483 z "},"ҩ":{"ha":833,"x_min":72,"x_max":778,"o":"m 778 300 q 737 151 778 222 q 622 35 696 79 q 689 -51 633 19 q 739 -114 714 -81 l 656 -181 q 515 -8 564 -72 q 418 -18 472 -18 q 165 83 257 -18 q 72 361 72 185 q 113 565 72 476 q 231 703 154 654 q 411 753 308 753 q 586 710 508 753 l 529 600 q 418 628 478 628 q 285 562 333 628 q 238 363 238 496 q 286 168 238 229 q 426 107 335 107 l 438 107 q 374 300 374 215 q 428 444 374 388 q 576 501 483 501 q 722 447 667 501 q 778 300 778 393 m 503 300 q 554 135 503 225 q 623 203 600 160 q 646 306 646 247 q 628 374 646 350 q 576 397 610 397 q 522 372 540 397 q 503 300 503 346 z "},"ҫ":{"ha":833,"x_min":115,"x_max":729,"o":"m 533 -14 q 642 -182 642 -81 q 591 -298 642 -254 q 453 -342 540 -342 q 314 -307 376 -342 l 350 -222 q 443 -244 397 -244 q 501 -225 482 -244 q 521 -171 521 -206 q 421 -15 521 -82 q 196 101 276 0 q 115 363 115 203 q 158 563 115 475 q 283 702 201 651 q 475 753 364 753 q 729 664 621 753 l 657 567 q 478 628 568 628 q 333 562 386 628 q 281 363 281 496 q 333 171 281 232 q 478 110 386 110 q 658 172 565 110 l 729 72 q 640 17 692 40 q 533 -14 589 -6 z "},"ҭ":{"ha":833,"x_min":79,"x_max":763,"o":"m 494 613 l 494 121 l 601 121 l 601 -218 l 478 -218 l 456 0 l 339 0 l 339 613 l 79 613 l 79 733 l 763 733 l 744 613 l 494 613 z "},"ү":{"ha":833,"x_min":63,"x_max":771,"o":"m 340 17 l 63 733 l 229 733 l 419 156 l 611 733 l 771 733 l 493 17 l 493 -282 l 340 -300 l 340 17 z "},"ұ":{"ha":833,"x_min":63,"x_max":771,"o":"m 525 100 l 633 100 l 633 -6 l 493 -6 l 493 -282 l 340 -300 l 340 -6 l 200 -6 l 200 100 l 308 100 l 63 733 l 229 733 l 419 156 l 611 733 l 771 733 l 525 100 z "},"ҳ":{"ha":833,"x_min":60,"x_max":774,"o":"m 411 300 l 304 121 l 489 121 l 489 -218 l 365 -218 l 343 0 l 292 0 l 285 88 l 232 0 l 60 0 l 324 386 l 89 733 l 268 733 l 418 475 l 568 733 l 739 733 l 510 393 l 774 0 l 592 0 l 411 300 z "},"ҷ":{"ha":833,"x_min":85,"x_max":792,"o":"m 792 121 l 792 -218 l 669 -218 l 646 0 l 529 0 l 529 296 q 430 240 488 260 q 307 219 372 219 q 142 278 199 219 q 85 440 85 336 l 85 733 l 240 733 l 240 458 q 269 366 240 394 q 356 338 297 338 q 451 357 403 338 q 529 408 500 376 l 529 733 l 685 733 l 685 121 l 792 121 z "},"ҹ":{"ha":833,"x_min":99,"x_max":699,"o":"m 699 733 l 699 0 l 543 0 l 543 296 q 428 235 496 256 l 428 121 l 350 121 l 350 221 q 321 219 340 219 q 156 278 213 219 q 99 440 99 336 l 99 733 l 254 733 l 254 458 q 278 372 254 400 q 350 339 301 343 l 350 546 l 428 546 l 428 346 q 543 408 501 364 l 543 733 l 699 733 z "},"һ":{"ha":833,"x_min":125,"x_max":710,"o":"m 494 672 q 652 613 594 672 q 710 446 710 553 l 710 0 l 554 0 l 554 429 q 528 524 554 496 q 450 553 501 553 q 357 526 397 553 q 281 447 317 499 l 281 0 l 125 0 l 125 1026 l 281 1043 l 281 567 q 374 644 319 617 q 494 672 428 672 z "},"ԧ":{"ha":833,"x_min":117,"x_max":808,"o":"m 808 121 l 808 -218 l 686 -218 l 663 0 l 546 0 l 546 429 q 519 524 546 496 q 442 553 493 553 q 348 525 389 553 q 272 446 307 497 l 272 0 l 117 0 l 117 1026 l 272 1043 l 272 567 q 366 644 311 617 q 486 672 421 672 q 644 613 586 672 q 701 446 701 553 l 701 121 l 808 121 z "},"ҽ":{"ha":833,"x_min":13,"x_max":782,"o":"m 782 386 q 778 317 782 344 l 350 317 q 401 154 353 208 q 526 100 449 100 q 610 113 575 100 q 685 153 644 126 l 753 65 q 649 5 708 28 q 524 -18 590 -18 q 297 72 379 -18 q 204 317 215 161 q 62 363 111 318 q 13 486 13 408 q 25 556 13 525 q 61 624 38 588 l 151 583 q 132 532 138 550 q 126 490 126 514 q 144 440 126 458 q 196 422 161 422 l 204 422 q 297 661 218 569 q 500 753 375 753 q 708 656 635 753 q 782 386 782 558 m 638 422 q 500 640 633 640 q 394 586 433 640 q 350 422 356 532 l 638 422 z "},"ҿ":{"ha":833,"x_min":13,"x_max":782,"o":"m 782 386 q 778 317 782 344 l 350 317 q 401 154 353 208 q 526 100 449 100 q 610 113 575 100 q 685 153 644 126 l 753 65 q 635 0 699 21 q 504 -76 539 -39 q 469 -157 469 -112 q 547 -224 469 -224 q 629 -214 586 -224 l 615 -321 q 529 -331 569 -331 q 396 -290 447 -331 q 344 -182 344 -249 q 372 -87 344 -128 q 454 -12 400 -46 q 278 95 342 8 q 204 317 214 182 q 62 363 111 318 q 13 486 13 408 q 25 556 13 525 q 61 624 38 588 l 151 583 q 132 532 138 550 q 126 490 126 514 q 144 440 126 458 q 196 422 161 422 l 204 422 q 297 661 218 569 q 500 753 375 753 q 708 656 635 753 q 782 386 782 558 m 638 422 q 500 640 633 640 q 394 586 433 640 q 350 422 356 532 l 638 422 z "},"ӏ":{"ha":833,"x_min":69,"x_max":713,"o":"m 446 200 q 557 107 446 107 q 674 132 613 107 l 713 24 q 524 -18 636 -18 q 352 44 414 -18 q 290 214 290 106 l 290 914 l 69 914 l 69 1028 l 446 1028 l 446 200 z "},"ӂ":{"ha":833,"x_min":14,"x_max":819,"o":"m 357 335 l 294 335 l 160 0 l 14 0 l 183 394 l 24 733 l 171 733 l 293 438 l 357 438 l 357 733 l 476 733 l 476 438 l 540 438 l 668 733 l 810 733 l 650 394 l 819 0 l 674 0 l 538 335 l 476 335 l 476 0 l 357 0 l 357 335 m 414 881 q 264 930 322 881 q 197 1058 206 979 l 292 1078 q 414 993 318 993 q 539 1078 515 993 l 635 1058 q 567 930 626 979 q 414 881 507 881 z "},"ӄ":{"ha":833,"x_min":129,"x_max":717,"o":"m 521 418 q 659 350 611 407 q 707 194 707 293 l 707 -67 q 647 -241 707 -181 q 479 -301 586 -301 q 311 -246 385 -301 l 371 -153 q 419 -174 399 -167 q 468 -181 439 -181 q 551 -81 551 -181 l 551 189 q 523 283 551 256 q 428 310 494 310 l 285 310 l 285 0 l 129 0 l 129 733 l 285 733 l 285 424 l 376 424 l 560 733 l 717 733 l 521 418 z "},"ӆ":{"ha":833,"x_min":40,"x_max":792,"o":"m 792 131 l 682 -218 l 556 -218 l 607 0 l 517 0 l 517 613 l 329 613 l 317 458 q 284 203 306 292 q 223 68 263 115 q 106 -19 183 21 l 40 79 q 102 138 79 106 q 142 242 125 169 q 168 451 158 314 l 190 733 l 672 733 l 672 131 l 792 131 z "},"ӈ":{"ha":833,"x_min":124,"x_max":710,"o":"m 710 -67 q 649 -241 710 -181 q 482 -301 589 -301 q 314 -246 388 -301 l 374 -153 q 423 -174 404 -168 q 471 -181 442 -181 q 554 -81 554 -181 l 554 314 l 279 314 l 279 0 l 124 0 l 124 733 l 279 733 l 279 435 l 554 435 l 554 733 l 710 733 l 710 -67 z "},"ӊ":{"ha":833,"x_min":122,"x_max":796,"o":"m 796 131 l 688 -218 l 560 -218 l 611 0 l 522 0 l 522 314 l 278 314 l 278 0 l 122 0 l 122 733 l 278 733 l 278 435 l 522 435 l 522 733 l 678 733 l 678 131 l 796 131 z "},"ӌ":{"ha":833,"x_min":99,"x_max":699,"o":"m 699 733 l 699 0 l 588 0 l 565 -218 l 443 -218 l 443 121 l 543 121 l 543 318 q 444 263 503 283 q 321 242 386 242 q 156 299 213 242 q 99 461 99 357 l 99 733 l 254 733 l 254 481 q 283 388 254 417 q 369 360 311 360 q 465 379 417 360 q 543 431 514 399 l 543 733 l 699 733 z "},"ӎ":{"ha":833,"x_min":56,"x_max":839,"o":"m 839 131 l 729 -218 l 614 -218 l 664 0 l 592 0 l 571 317 q 564 546 564 435 l 564 603 l 461 121 l 329 121 l 214 603 q 215 497 215 567 q 211 315 215 401 l 196 0 l 56 0 l 107 733 l 292 733 l 397 251 l 490 733 l 681 733 l 724 131 l 839 131 z "},"ӑ":{"ha":833,"x_min":78,"x_max":740,"o":"m 685 179 q 697 117 685 138 q 740 88 710 97 l 704 -18 q 553 83 589 -4 q 452 8 513 33 q 319 -18 392 -18 q 143 44 208 -18 q 78 210 78 107 q 169 388 78 325 q 426 450 260 450 l 531 450 l 531 497 q 489 599 531 567 q 368 631 447 631 q 278 621 329 631 q 174 593 226 611 l 135 703 q 392 753 267 753 q 611 689 538 753 q 685 507 685 625 l 685 179 m 365 96 q 459 121 414 96 q 531 190 504 146 l 531 353 l 444 353 q 290 317 339 353 q 242 215 242 282 q 273 126 242 157 q 365 96 304 96 m 404 881 q 254 930 313 881 q 188 1058 196 979 l 282 1078 q 404 993 308 993 q 529 1078 506 993 l 625 1058 q 557 930 617 979 q 404 881 497 881 z "},"ӓ":{"ha":833,"x_min":78,"x_max":740,"o":"m 685 179 q 697 117 685 138 q 740 88 710 97 l 704 -18 q 553 83 589 -4 q 452 8 513 33 q 319 -18 392 -18 q 143 44 208 -18 q 78 210 78 107 q 169 388 78 325 q 426 450 260 450 l 531 450 l 531 497 q 489 599 531 567 q 368 631 447 631 q 278 621 329 631 q 174 593 226 611 l 135 703 q 392 753 267 753 q 611 689 538 753 q 685 507 685 625 l 685 179 m 365 96 q 459 121 414 96 q 531 190 504 146 l 531 353 l 444 353 q 290 317 339 353 q 242 215 242 282 q 273 126 242 157 q 365 96 304 96 m 256 894 q 190 919 217 894 q 164 982 164 944 q 190 1046 164 1021 q 256 1071 217 1071 q 319 1046 293 1071 q 344 982 344 1021 q 319 919 344 944 q 256 894 293 894 m 556 894 q 492 919 518 894 q 465 982 465 944 q 492 1045 465 1019 q 556 1071 518 1071 q 620 1046 594 1071 q 646 982 646 1021 q 620 919 646 944 q 556 894 594 894 z "},"ӗ":{"ha":833,"x_min":92,"x_max":743,"o":"m 253 317 q 315 156 260 210 q 453 103 369 103 q 551 119 504 103 q 646 167 597 135 l 713 72 q 592 6 661 29 q 446 -18 522 -18 q 185 87 278 -18 q 92 367 92 192 q 132 565 92 476 q 249 703 172 653 q 426 753 325 753 q 658 655 572 753 q 743 386 743 557 q 739 317 743 344 l 253 317 m 428 638 q 306 583 353 638 q 251 422 258 529 l 592 422 q 547 582 589 526 q 428 638 506 638 m 426 881 q 276 930 335 881 q 210 1058 218 979 l 304 1078 q 426 993 331 993 q 551 1078 528 993 l 647 1058 q 579 930 639 979 q 426 881 519 881 z "},"ә":{"ha":833,"x_min":85,"x_max":747,"o":"m 406 753 q 663 651 578 753 q 747 368 747 549 q 658 87 747 192 q 410 -18 568 -18 q 172 78 260 -18 q 85 347 85 175 q 89 417 85 386 l 588 417 q 535 581 582 529 q 401 633 489 633 q 298 618 344 633 q 207 567 251 603 l 138 663 q 406 753 250 753 m 410 99 q 540 149 496 99 q 588 311 583 199 l 235 311 l 235 301 q 281 151 236 204 q 410 99 326 99 z "},"ӛ":{"ha":833,"x_min":85,"x_max":747,"o":"m 406 753 q 663 651 578 753 q 747 368 747 549 q 658 87 747 192 q 410 -18 568 -18 q 172 78 260 -18 q 85 347 85 175 q 89 417 85 386 l 588 417 q 535 581 582 529 q 401 633 489 633 q 298 618 344 633 q 207 567 251 603 l 138 663 q 406 753 250 753 m 410 99 q 540 149 496 99 q 588 311 583 199 l 235 311 l 235 301 q 281 151 236 204 q 410 99 326 99 m 272 894 q 207 919 233 894 q 181 982 181 944 q 207 1046 181 1021 q 272 1071 233 1071 q 335 1046 310 1071 q 361 982 361 1021 q 335 919 361 944 q 272 894 310 894 m 572 894 q 508 919 535 894 q 482 982 482 944 q 508 1045 482 1019 q 572 1071 535 1071 q 637 1046 611 1071 q 663 982 663 1021 q 637 919 663 944 q 572 894 611 894 z "},"ӝ":{"ha":833,"x_min":14,"x_max":819,"o":"m 357 335 l 294 335 l 160 0 l 14 0 l 183 394 l 24 733 l 171 733 l 293 438 l 357 438 l 357 733 l 476 733 l 476 438 l 540 438 l 668 733 l 810 733 l 650 394 l 819 0 l 674 0 l 538 335 l 476 335 l 476 0 l 357 0 l 357 335 m 267 894 q 201 919 228 894 q 175 982 175 944 q 201 1046 175 1021 q 267 1071 228 1071 q 330 1046 304 1071 q 356 982 356 1021 q 330 919 356 944 q 267 894 304 894 m 567 894 q 503 919 529 894 q 476 982 476 944 q 503 1045 476 1019 q 567 1071 529 1071 q 631 1046 606 1071 q 657 982 657 1021 q 631 919 657 944 q 567 894 606 894 z "},"ӟ":{"ha":833,"x_min":60,"x_max":728,"o":"m 386 438 q 491 465 453 438 q 529 538 529 492 q 375 636 529 636 q 262 621 319 636 q 156 576 204 606 l 86 664 q 222 730 144 707 q 383 753 300 753 q 603 700 518 753 q 689 551 689 647 q 529 390 689 433 q 671 340 614 385 q 728 217 728 296 q 632 43 728 104 q 381 -18 536 -18 q 60 82 186 -18 l 131 176 q 247 119 188 139 q 382 100 307 100 q 517 132 471 100 q 564 219 564 164 q 522 299 564 272 q 397 325 479 325 l 244 325 l 254 438 l 386 438 m 254 893 q 189 918 215 893 q 163 981 163 943 q 189 1044 163 1019 q 254 1069 215 1069 q 317 1044 292 1069 q 343 981 343 1019 q 317 918 343 943 q 254 893 292 893 m 554 893 q 490 918 517 893 q 464 981 464 943 q 490 1044 464 1018 q 554 1069 517 1069 q 619 1044 593 1069 q 644 981 644 1019 q 619 918 644 943 q 554 893 593 893 z "},"ӡ":{"ha":833,"x_min":72,"x_max":732,"o":"m 413 290 q 645 219 558 290 q 732 14 732 149 q 688 -149 732 -78 q 565 -260 644 -221 q 383 -300 486 -300 q 203 -269 276 -300 q 72 -176 131 -237 l 156 -92 q 256 -157 206 -136 q 378 -178 307 -178 q 517 -128 467 -178 q 568 13 568 -79 q 516 142 568 101 q 364 182 464 182 l 233 182 l 233 288 l 521 611 l 117 611 l 117 733 l 696 733 l 696 621 l 399 290 l 413 290 z "},"ӣ":{"ha":833,"x_min":124,"x_max":710,"o":"m 710 0 l 560 0 l 560 301 q 567 466 560 389 q 581 575 574 543 l 297 0 l 124 0 l 124 733 l 274 733 l 274 431 q 267 271 274 350 q 253 161 261 192 l 533 733 l 710 733 l 710 0 m 219 929 l 219 1042 l 613 1042 l 613 929 l 219 929 z "},"ӥ":{"ha":833,"x_min":124,"x_max":710,"o":"m 710 0 l 560 0 l 560 301 q 567 466 560 389 q 581 575 574 543 l 297 0 l 124 0 l 124 733 l 274 733 l 274 431 q 267 271 274 350 q 253 161 261 192 l 533 733 l 710 733 l 710 0 m 267 894 q 201 919 228 894 q 175 982 175 944 q 201 1046 175 1021 q 267 1071 228 1071 q 330 1046 304 1071 q 356 982 356 1021 q 330 919 356 944 q 267 894 304 894 m 567 894 q 503 919 529 894 q 476 982 476 944 q 503 1045 476 1019 q 567 1071 529 1071 q 631 1046 606 1071 q 657 982 657 1021 q 631 919 657 944 q 567 894 606 894 z "},"ӧ":{"ha":833,"x_min":85,"x_max":749,"o":"m 418 753 q 663 649 576 753 q 749 368 749 546 q 661 86 749 190 q 417 -18 574 -18 q 172 84 258 -18 q 85 367 85 186 q 173 647 85 542 q 418 753 261 753 m 418 632 q 291 567 333 632 q 249 367 249 501 q 290 166 249 231 q 417 101 332 101 q 543 167 501 101 q 585 368 585 232 q 543 567 585 503 q 418 632 501 632 m 267 894 q 201 919 228 894 q 175 982 175 944 q 201 1046 175 1021 q 267 1071 228 1071 q 330 1046 304 1071 q 356 982 356 1021 q 330 919 356 944 q 267 894 304 894 m 567 894 q 503 919 529 894 q 476 982 476 944 q 503 1045 476 1019 q 567 1071 529 1071 q 631 1046 606 1071 q 657 982 657 1021 q 631 919 657 944 q 567 894 606 894 z "},"ө":{"ha":833,"x_min":85,"x_max":749,"o":"m 418 753 q 663 649 576 753 q 749 368 749 546 q 661 86 749 190 q 417 -18 574 -18 q 172 84 258 -18 q 85 367 85 186 q 173 647 85 542 q 418 753 261 753 m 418 633 q 247 425 260 633 l 586 425 q 418 633 571 633 m 247 319 q 297 153 256 206 q 417 101 339 101 q 536 153 494 101 q 586 319 578 206 l 247 319 z "},"ӫ":{"ha":833,"x_min":85,"x_max":749,"o":"m 418 753 q 663 649 576 753 q 749 368 749 546 q 661 86 749 190 q 417 -18 574 -18 q 172 84 258 -18 q 85 367 85 186 q 173 647 85 542 q 418 753 261 753 m 418 633 q 247 425 260 633 l 586 425 q 418 633 571 633 m 247 319 q 297 153 256 206 q 417 101 339 101 q 536 153 494 101 q 586 319 578 206 l 247 319 m 268 894 q 203 919 229 894 q 176 982 176 944 q 203 1046 176 1021 q 268 1071 229 1071 q 331 1046 306 1071 q 357 982 357 1021 q 331 919 357 944 q 268 894 306 894 m 568 894 q 504 919 531 894 q 478 982 478 944 q 504 1045 478 1019 q 568 1071 531 1071 q 633 1046 607 1071 q 658 982 658 1021 q 633 919 658 944 q 568 894 607 894 z "},"ӭ":{"ha":833,"x_min":115,"x_max":729,"o":"m 386 753 q 641 649 553 753 q 729 368 729 546 q 636 87 729 192 q 374 -18 543 -18 q 233 5 300 -18 q 115 71 167 28 l 188 164 q 274 117 229 132 q 371 103 318 103 q 571 321 553 103 l 253 321 l 253 431 l 568 431 q 378 633 550 633 q 193 574 275 633 l 122 667 q 386 753 232 753 m 263 894 q 197 919 224 894 q 171 982 171 944 q 197 1046 171 1021 q 263 1071 224 1071 q 326 1046 300 1071 q 351 982 351 1021 q 326 919 351 944 q 263 894 300 894 m 563 894 q 499 919 525 894 q 472 982 472 944 q 499 1045 472 1019 q 563 1071 525 1071 q 627 1046 601 1071 q 653 982 653 1021 q 627 919 653 944 q 563 894 601 894 z "},"ӯ":{"ha":833,"x_min":68,"x_max":765,"o":"m 513 -3 q 384 -212 468 -136 q 153 -300 300 -287 l 133 -183 q 250 -149 206 -172 q 321 -92 294 -126 q 368 0 347 -57 l 315 0 l 68 733 l 233 733 l 418 108 l 606 733 l 765 733 l 513 -3 m 219 929 l 219 1042 l 613 1042 l 613 929 l 219 929 z "},"ӱ":{"ha":833,"x_min":68,"x_max":765,"o":"m 513 -3 q 384 -212 468 -136 q 153 -300 300 -287 l 133 -183 q 250 -149 206 -172 q 321 -92 294 -126 q 368 0 347 -57 l 315 0 l 68 733 l 233 733 l 418 108 l 606 733 l 765 733 l 513 -3 m 267 894 q 201 919 228 894 q 175 982 175 944 q 201 1046 175 1021 q 267 1071 228 1071 q 330 1046 304 1071 q 356 982 356 1021 q 330 919 356 944 q 267 894 304 894 m 567 894 q 503 919 529 894 q 476 982 476 944 q 503 1045 476 1019 q 567 1071 529 1071 q 631 1046 606 1071 q 657 982 657 1021 q 631 919 657 944 q 567 894 606 894 z "},"ӳ":{"ha":833,"x_min":68,"x_max":765,"o":"m 513 -3 q 384 -212 468 -136 q 153 -300 300 -287 l 133 -183 q 250 -149 206 -172 q 321 -92 294 -126 q 368 0 347 -57 l 315 0 l 68 733 l 233 733 l 418 108 l 606 733 l 765 733 l 513 -3 m 356 1172 l 476 1115 l 326 878 l 236 919 l 356 1172 m 592 1172 l 711 1111 l 551 875 l 464 919 l 592 1172 z "},"ӵ":{"ha":833,"x_min":99,"x_max":699,"o":"m 699 0 l 543 0 l 543 296 q 444 240 501 260 q 321 219 386 219 q 156 278 213 219 q 99 440 99 336 l 99 733 l 254 733 l 254 458 q 283 366 254 394 q 369 338 311 338 q 465 357 417 338 q 543 408 514 376 l 543 733 l 699 733 l 699 0 m 249 894 q 183 919 210 894 q 157 982 157 944 q 183 1046 157 1021 q 249 1071 210 1071 q 312 1046 286 1071 q 338 982 338 1021 q 312 919 338 944 q 249 894 286 894 m 549 894 q 485 919 511 894 q 458 982 458 944 q 485 1045 458 1019 q 549 1071 511 1071 q 613 1046 588 1071 q 639 982 639 1021 q 613 919 639 944 q 549 894 588 894 z "},"ӷ":{"ha":833,"x_min":200,"x_max":736,"o":"m 356 608 l 356 121 l 464 121 l 464 -218 l 340 -218 l 318 0 l 200 0 l 200 733 l 736 733 l 718 608 l 356 608 z "},"ӹ":{"ha":833,"x_min":67,"x_max":767,"o":"m 207 501 l 243 501 q 560 256 560 501 q 478 63 560 126 q 251 0 397 0 l 67 0 l 67 733 l 207 733 l 207 501 m 767 0 l 625 0 l 625 733 l 767 733 l 767 0 m 207 397 l 207 108 l 253 108 q 370 142 331 108 q 410 257 410 175 q 372 365 410 332 q 250 397 333 397 l 207 397 m 267 894 q 201 919 228 894 q 175 982 175 944 q 201 1046 175 1021 q 267 1071 228 1071 q 330 1046 304 1071 q 356 982 356 1021 q 330 919 356 944 q 267 894 304 894 m 567 894 q 503 919 529 894 q 476 982 476 944 q 503 1045 476 1019 q 567 1071 529 1071 q 631 1046 606 1071 q 657 982 657 1021 q 631 919 657 944 q 567 894 606 894 z "}}}
